<svg width="95" height="116" viewBox="0 0 95 116" fill="none" xmlns="http://www.w3.org/2000/svg">
<path d="M87.1332 15.2032C84.7491 9.73321 81.2066 2.60473 75.0306 0.740616C69.2113 -1.01552 63.6836 6.33986 60.494 10.0422C58.5894 12.2539 56.7654 14.6412 55.1984 17.1793C51.5369 16.4334 47.7431 16.4865 44.0432 17.3329C42.5779 13.454 40.6157 9.75911 37.7368 6.83721C35.6385 4.70726 32.468 2.7858 29.4337 2.52706C25.7703 2.21673 22.9163 3.89383 20.0834 6.04545C14.3831 10.3711 10.1539 16.4361 6.7168 22.6318C3.14546 29.0706 0.598355 36.6114 0.01528 43.9684C0.00760796 44.0646 0.16871 44.0863 0.185972 43.9914C2.41854 30.7304 8.32601 17.7756 18.292 8.51873C21.0021 6.00076 24.2723 3.45557 28.0892 3.21543C31.6739 2.98833 35.2664 5.39142 37.6677 7.82172C40.3395 10.5294 41.9238 13.9801 43.3182 17.514C37.4568 19.0231 31.8677 22.5269 27.4793 28.0241C24.0038 32.3761 20.9734 37.9479 18.666 44.0761C17.5018 44.2098 16.3721 44.4642 15.5128 44.6439C13.3109 45.1067 10.3323 46.0682 8.7288 47.9308C8.7077 47.9407 8.68467 47.9551 8.65974 47.9638C7.59141 48.4007 7.42263 46.985 6.61899 46.7796C6.49815 46.7464 6.40225 46.8026 6.33128 46.8973C6.0244 47.2969 6.24113 47.9206 6.39649 48.3447C6.64007 49.01 7.22316 49.4211 7.89062 49.5791C7.94816 49.6683 8.05942 49.7272 8.16683 49.6971C8.23587 49.6769 8.303 49.6497 8.37397 49.628C8.86498 49.6152 9.34064 49.4268 9.7837 49.2227C9.98893 49.1293 10.1616 49.0116 10.315 48.8792C10.5643 48.7643 10.8137 48.6493 11.0592 48.5286C12.9312 47.9206 14.7609 47.6202 17.0012 47.6935C17.1354 47.6979 17.2678 47.7152 17.402 47.7238C15.7161 53.0083 14.5787 58.589 14.1452 64.0891C12.9925 64.4684 11.8647 65.1209 10.9057 65.6254C9.60725 66.3095 7.7698 67.3399 6.91053 68.7396C6.78969 68.6305 6.67845 68.5083 6.58447 68.3747C6.14332 67.7467 5.95919 66.8111 5.38571 66.2965C5.20733 66.1384 4.92922 66.1571 4.80263 66.3726C4.33847 67.1575 4.96183 68.3992 5.37612 69.0818C5.61012 69.4683 6.03207 69.934 6.50582 70.1726C6.57103 70.2919 6.69187 70.3638 6.85874 70.3335C6.88367 70.3293 6.9086 70.3193 6.93353 70.3134C7.1963 70.3523 7.46291 70.312 7.718 70.1195C7.75636 70.0907 7.78706 70.0577 7.81774 70.0261C8.40849 69.7731 8.98005 69.4209 9.53627 69.0287C10.9786 68.3992 12.4497 67.8487 13.963 67.3788C13.8077 73.2339 14.5078 78.8992 16.2666 83.8992C15.1944 84.6768 14.2085 85.5951 13.3589 86.5768C12.2886 87.3585 11.2817 88.3904 10.758 89.612C10.5452 89.4799 10.3495 89.487 10.1059 89.454C9.89303 89.4239 9.71274 89.3232 9.52861 89.2196C9.14117 89.004 8.65207 88.8072 8.2186 88.7138C7.9213 88.6476 7.52621 88.925 7.66814 89.2656C7.90789 89.8564 8.27807 90.388 8.79018 90.7747C9.35407 91.1986 10.4358 91.5853 10.9633 90.917C10.969 90.9084 10.971 90.8998 10.9767 90.8911C11.531 90.6683 12.0527 90.2962 12.5514 89.8491C14.1453 88.79 15.6701 87.6071 17.239 86.5234C17.262 86.5062 17.287 86.4933 17.31 86.4776C17.9659 87.9305 18.7101 89.3216 19.5771 90.6209C22.2239 94.5875 26.0561 97.6976 30.5404 99.9353C29.4472 101.409 28.7988 103.28 28.5111 105.165C28.492 105.28 28.4785 105.411 28.4613 105.546C28.0432 107.64 28.0585 110.237 29.1077 112.015C29.2304 112.343 29.3762 112.644 29.5392 112.919C29.1479 112.995 28.7586 113.071 28.3635 113.134C27.8168 113.222 26.9019 113.564 26.5471 114.007C26.4148 114.173 26.4186 114.406 26.6142 114.529C27.6749 115.181 29.685 114.763 30.7821 114.373C31.1925 114.228 31.3632 113.908 31.3613 113.59C31.8121 112.591 31.4956 112.518 31.3038 111.035C30.972 108.449 30.7993 106.486 32.0096 104.096C32.4853 103.155 33.0818 102.239 33.7243 101.338C41.03 104.152 49.5901 104.886 57.4942 103.439C58.3554 103.282 59.1897 103.093 60.003 102.873C60.703 105.734 61.2152 108.6 60.8258 111.505C60.6359 112.252 60.4364 113.012 60.2581 113.811C60.2101 114.027 60.3521 114.192 60.5247 114.243C60.845 114.853 61.6084 115.078 62.3314 115.098C63.0929 115.119 63.7124 114.784 64.3434 114.48C64.7616 114.274 64.6637 113.715 64.3434 113.488C63.7201 113.048 63.0718 112.929 62.4312 112.89C62.3966 112.889 62.3602 112.884 62.3257 112.88C62.3199 112.877 62.3046 112.874 62.2547 112.864C62.2413 112.863 62.2279 112.857 62.2164 112.853C62.1876 112.833 62.1626 112.817 62.1243 112.788C62.0322 112.723 62.061 112.746 62.1933 112.847C62.1511 112.808 62.1051 112.777 62.061 112.745C63.9195 110.003 64.1535 106.444 63.7872 103.188C63.7277 102.666 63.6434 102.154 63.5475 101.648C70.3641 98.8417 75.1859 93.8013 78.3065 88.0972C78.7956 88.2021 79.2847 88.3172 79.77 88.4695C82.0505 89.1751 83.4909 91.101 85.2938 92.4821C85.4089 92.85 85.6986 93.1504 86.1455 93.1059C86.8283 93.0397 87.3941 92.7752 87.9791 92.4275C88.4873 92.1256 88.8 91.6486 89.1433 91.1871C89.291 90.9888 89.1395 90.6568 88.9074 90.6094C88.424 90.5102 87.91 90.5361 87.4363 90.7014C87.0795 90.825 86.765 90.9888 86.4274 91.1167C86.3296 90.7085 86.1378 90.3177 85.8788 89.9454C84.8105 87.886 82.3938 86.2045 79.7374 85.164C80.4643 83.4955 81.0723 81.7994 81.5403 80.1079C82.5933 76.305 83.3241 72.3098 83.5216 67.9895C85.7887 68.0327 87.6147 69.2917 89.7168 69.6077C89.7225 69.6122 89.7225 69.6179 89.7283 69.6237C90.5895 70.3824 91.5197 69.4455 92.051 68.7671C92.379 68.3445 92.5727 67.9594 92.7683 67.4621C92.8988 67.1345 93.0906 66.6672 92.9851 66.3109C92.9275 66.1141 92.7453 66.0293 92.5535 66.0652C92.3157 66.1083 92.0357 66.3467 91.8669 66.515C91.5811 66.7967 91.2646 67.0395 91.0153 67.3501C90.8005 67.6188 90.5665 67.8702 90.3075 68.096C90.2558 68.1418 90.1982 68.1807 90.1407 68.218C89.2871 66.5309 86.8551 65.6772 84.2562 65.5233C84.028 65.4817 83.8017 65.4443 83.5734 65.4113C83.5485 59.7444 82.5856 53.5041 80.2495 46.4146C81.1011 46.2262 81.9565 46.0711 82.8004 46.0739C86.0073 46.0868 88.4183 47.3228 91.2205 48.553C91.2608 48.5919 91.3068 48.622 91.3452 48.6636C91.6712 49.0072 92.1584 48.8635 92.4078 48.5271C92.9122 47.8445 93.3648 47.1145 93.8137 46.3929C94.0304 46.0423 93.6161 45.726 93.2939 45.8727C92.6782 46.153 92.2658 46.6516 91.8419 47.1519C91.3145 46.5698 90.6815 46.0423 89.9834 45.5981C88.1325 44.1567 85.3571 43.4294 83.3701 43.1549C82.2615 43.0026 80.6081 42.8258 79.022 42.9451C77.7733 39.6438 76.2409 36.1674 74.3727 32.481C70.1627 24.1741 63.4535 19.1668 56.1228 17.3934C57.3254 15.4387 58.6565 13.5489 60.1411 11.7136C63.8659 7.1088 70.0457 -1.16512 76.7376 2.30859C82.0006 5.04214 84.9256 11.932 87.1658 17.0815C90.1081 23.8478 92.4173 30.9389 94.2356 38.0873C94.2548 38.1606 94.3641 38.1292 94.3507 38.0557C92.8451 30.1499 90.3497 22.5787 87.1332 15.2032Z" fill="#554949"/>
<path d="M22.4022 32.1663C23.7622 29.8611 25.4581 27.79 27.1645 25.7377C27.2202 25.6702 27.1328 25.5782 27.0651 25.64C23.5273 28.8967 20.0542 33.7832 19.2123 38.6092C19.2018 38.6653 19.2846 38.7113 19.3133 38.6509C20.3434 36.4722 21.1718 34.2545 22.4022 32.1663Z" fill="#554949"/>
<path d="M28.7255 24.2686C28.7498 24.2097 28.6755 24.1724 28.6301 24.1939C28.3103 24.3491 28.1239 24.6984 27.939 24.9902C27.9042 25.0462 27.9769 25.1267 28.0345 25.085C28.3224 24.878 28.5907 24.6007 28.7255 24.2686Z" fill="#554949"/>
<path d="M78.4926 91.1181C77.1723 93.1185 75.9176 94.9567 74.1693 96.6254C72.2699 98.4405 70.0628 99.8762 67.9886 101.474C67.9266 101.522 67.9776 101.62 68.0505 101.581C71.9713 99.5557 77.3144 95.6207 78.5545 91.1454C78.5654 91.1066 78.5144 91.0864 78.4926 91.1181Z" fill="#554949"/>
<path d="M67.3399 101.696C67.0261 101.741 66.7755 102.064 66.5354 102.258C66.4863 102.298 66.5406 102.38 66.5967 102.362C66.9034 102.268 67.3346 102.11 67.4082 101.764C67.417 101.719 67.3819 101.69 67.3399 101.696Z" fill="#554949"/>
<path d="M39.3021 48.6073C36.093 49.4107 32.2323 48.8056 29.1588 48.0367C29.0951 48.0209 29.0526 48.1128 29.1131 48.1445C34.3407 50.8019 41.7746 50.717 45.0686 45.2212C45.5994 44.3374 45.9782 43.3629 46.2379 42.3368C47.3811 39.4522 47.9266 35.8867 47.5313 32.8182C47.6424 31.0807 47.4872 29.3919 46.9516 27.9045C44.4905 21.0504 34.7734 25.9802 32.051 29.9395C32.02 29.9856 32.0837 30.0243 32.1213 29.9942C33.9846 28.4707 35.9297 26.9287 38.1328 26.0664C37.2427 26.6297 36.2906 27.3641 35.2732 28.3012C31.8812 31.4242 29.4119 36.3594 28.7227 39.3863C27.4081 45.1623 33.7691 49.4811 39.3021 48.6073Z" fill="white"/>
<path d="M50.6218 37.2241C50.6218 37.2371 50.62 37.2472 50.62 37.2602C50.5436 39.9808 51.6068 43.016 52.9759 45.3298C55.6288 49.8153 62.5524 52.0113 67.1949 49.3151C67.234 49.2922 67.2198 49.2204 67.1718 49.2246C64.0993 49.4963 61.0927 49.4791 58.5163 48.4012C62.0955 49.4143 66.1494 48.7086 68.1639 45.4765C71.5493 40.0396 67.9044 30.6706 63.2459 26.7715C61.3007 25.1432 59.3964 24.4951 57.6735 24.5783C59.2471 24.0121 60.9575 23.9288 62.5791 24.5898C62.6734 24.6272 62.7107 24.4892 62.6431 24.4376C60.6624 22.9414 57.6913 23.6571 55.6128 24.6099C53.4133 25.6174 51.9962 27.3823 51.141 29.61C50.4938 31.2971 50.3071 33.019 50.4884 34.6745C50.4813 35.5253 50.5258 36.382 50.6218 37.2241Z" fill="white"/>
<path d="M46.3651 55.4933C48.2298 56.6086 51.2175 56.1199 52.8759 54.835C55.3197 52.9395 53.9618 49.2804 51.4022 50.7219C50.2809 51.3557 48.6797 51.8458 46.9206 50.949C44.5859 49.759 42.8738 53.5847 46.3651 55.4933Z" fill="white"/>
<path d="M45.846 65.2188C46.0455 65.1771 45.9984 64.8624 45.7974 64.8653C41.4515 64.9572 37.2614 64.9947 32.9496 64.2976C29.2135 63.6926 25.7709 62.2353 22.1467 61.2594C22.1159 61.2523 22.0997 61.2939 22.1256 61.3111C28.7206 65.4215 38.296 66.7896 45.846 65.2188Z" fill="white"/>
<path d="M48.6708 64.5547C48.619 64.5606 48.6029 64.6338 48.6583 64.6497C55.7907 66.6674 66.4705 63.0082 72.6156 59.4038C72.737 59.3321 72.6549 59.1408 72.5192 59.1767C69.0021 60.0894 65.6296 61.5639 62.1429 62.6015C57.6653 63.9353 53.2555 64.0805 48.6708 64.5547Z" fill="white"/>
<path d="M75.3316 70.1912C67.9565 74.9858 59.4001 76.8253 50.7319 77.429C46.194 77.7437 41.5659 77.7767 37.0875 76.9332C33.0239 76.1686 29.1606 74.5603 25.014 74.2557C24.9239 74.2485 24.9166 74.3792 24.9942 74.4052C40.4494 79.5389 62.0677 82.038 75.5588 70.4845C75.7193 70.3451 75.5083 70.0763 75.3316 70.1912Z" fill="white"/>
<path d="M68.5306 84.1349C55.6189 87.0295 44.1198 88.6132 31.0144 85.9372C30.8911 85.9127 30.796 86.0937 30.9228 86.1513C36.4778 88.6664 43.1916 88.7266 49.1657 88.494C55.6929 88.2395 62.7009 87.1947 68.6486 84.4123C68.8106 84.3376 68.6909 84.099 68.5306 84.1349Z" fill="white"/>
<path d="M56.8536 93.4016C52.4517 93.8012 48.4991 95.3878 44.0567 94.1318C43.9418 94.0987 43.8759 94.2612 43.9773 94.3215C47.5988 96.4946 53.2287 95.1794 56.8975 93.7279C57.058 93.6647 57.0546 93.3843 56.8536 93.4016Z" fill="white"/>
<path d="M60.8334 92.5596C60.6741 92.5726 60.4993 92.518 60.3434 92.5625C60.1464 92.6156 59.9613 92.7234 59.7609 92.7823C59.5347 92.85 59.2983 92.87 59.0619 92.8757C58.8203 92.883 58.6319 92.9447 58.4023 92.9663C58.2498 92.9821 58.1744 93.1775 58.3218 93.2624C58.5394 93.3917 58.6285 93.5224 58.8974 93.5384C59.2007 93.557 59.4919 93.5341 59.7935 93.488C60.0265 93.4506 60.2577 93.3717 60.477 93.2783C60.7426 93.1647 60.8008 92.9865 60.9413 92.7465C60.9841 92.6703 60.9293 92.551 60.8334 92.5596Z" fill="white"/>
<path d="M22.7869 73.4927C22.6072 73.4051 22.3769 73.2557 22.1764 73.2197C21.9506 73.1795 21.7129 73.1909 21.496 73.1536C21.4143 73.1392 21.3579 73.2484 21.4381 73.2929C21.5406 73.3476 21.6401 73.4725 21.7441 73.5358C21.9536 73.6665 22.1541 73.7845 22.3769 73.8965C22.8225 74.1236 23.1598 74.3665 23.6544 74.4528C23.7525 74.4686 23.8609 74.3695 23.7941 74.2688C23.5282 73.8635 23.2266 73.7098 22.7869 73.4927Z" fill="white"/>
</svg>
