<svg width="69" height="85" viewBox="0 0 69 85" fill="none" xmlns="http://www.w3.org/2000/svg">
<path d="M63.7201 11.0629C61.9763 7.06203 59.3852 1.84805 54.8679 0.484589C50.6115 -0.799896 46.5684 4.58004 44.2354 7.28803C42.8423 8.9057 41.5082 10.6519 40.362 12.5083C37.6839 11.9627 34.909 12.0016 32.2028 12.6207C31.131 9.78349 29.6959 7.08097 27.5901 4.94381C26.0554 3.38591 23.7364 1.9805 21.517 1.79124C18.8375 1.56426 16.75 2.79094 14.678 4.3647C10.5086 7.52863 7.41521 11.9647 4.90123 16.4964C2.28906 21.2059 0.426031 26.7215 -0.00044678 32.1026C-0.00605833 32.173 0.111776 32.1889 0.124402 32.1194C1.75736 22.42 6.07826 12.9445 13.3677 6.17372C15.3499 4.33202 17.7419 2.47038 20.5336 2.29474C23.1556 2.12864 25.7832 3.88631 27.5396 5.66392C29.4939 7.64437 30.6526 10.1683 31.6725 12.7531C27.3853 13.8569 23.2973 16.4197 20.0875 20.4405C17.5455 23.6237 15.3289 27.6991 13.6412 32.1814C12.7897 32.2792 11.9634 32.4652 11.3349 32.5967C9.72437 32.9352 7.54568 33.6385 6.37287 35.0008C6.35744 35.0081 6.34059 35.0186 6.32236 35.0249C5.54095 35.3445 5.4175 34.3091 4.82969 34.1588C4.74131 34.1345 4.67117 34.1756 4.61926 34.2449C4.3948 34.5372 4.55332 34.9934 4.66695 35.3036C4.84512 35.7902 5.2716 36.0909 5.7598 36.2065C5.80189 36.2717 5.88326 36.3148 5.96183 36.2927C6.01233 36.278 6.06143 36.2581 6.11334 36.2422C6.47247 36.2328 6.82039 36.0951 7.14446 35.9458C7.29457 35.8775 7.42083 35.7913 7.53306 35.6945C7.71544 35.6105 7.89781 35.5263 8.07738 35.4381C9.4466 34.9934 10.7849 34.7737 12.4235 34.8273C12.5217 34.8305 12.6185 34.8431 12.7167 34.8494C11.4836 38.7147 10.6517 42.7965 10.3346 46.8194C9.49148 47.0969 8.66659 47.5742 7.96515 47.9432C7.01539 48.4436 5.67143 49.1972 5.04293 50.221C4.95455 50.1412 4.87319 50.0518 4.80444 49.9541C4.48178 49.4948 4.3471 48.8104 3.92764 48.434C3.79717 48.3184 3.59375 48.332 3.50116 48.4897C3.16166 49.0638 3.6176 49.972 3.92062 50.4713C4.09178 50.754 4.4004 51.0946 4.74692 51.2691C4.79461 51.3564 4.883 51.409 5.00505 51.3868C5.02329 51.3837 5.04152 51.3764 5.05976 51.3721C5.25195 51.4006 5.44696 51.3711 5.63354 51.2303C5.6616 51.2092 5.68405 51.1851 5.7065 51.1619C6.13859 50.9769 6.55664 50.7193 6.96348 50.4324C8.01845 49.972 9.09446 49.5694 10.2013 49.2257C10.0877 53.5083 10.5998 57.652 11.8862 61.3092C11.102 61.8779 10.3809 62.5496 9.75943 63.2676C8.97662 63.8394 8.24011 64.5942 7.85712 65.4877C7.7014 65.391 7.55831 65.3962 7.38014 65.3721C7.22442 65.35 7.09255 65.2764 6.95788 65.2006C6.67449 65.0429 6.31675 64.899 5.99969 64.8307C5.78225 64.7823 5.49326 64.9852 5.59707 65.2343C5.77244 65.6664 6.04319 66.0553 6.41776 66.3381C6.83021 66.6481 7.62144 66.931 8.00723 66.4422C8.01144 66.4359 8.01285 66.4296 8.01706 66.4233C8.42249 66.2602 8.80407 65.9881 9.16882 65.6611C10.3346 64.8864 11.4499 64.0212 12.5975 63.2286C12.6143 63.216 12.6325 63.2066 12.6494 63.1951C13.1292 64.2578 13.6735 65.2753 14.3076 66.2256C16.2436 69.1269 19.0466 71.4017 22.3265 73.0384C21.5269 74.116 21.0527 75.4846 20.8422 76.8637C20.8282 76.9479 20.8184 77.0435 20.8058 77.1423C20.4999 78.674 20.5112 80.5735 21.2786 81.8738C21.3683 82.1134 21.475 82.3342 21.5942 82.535C21.308 82.5907 21.0232 82.6464 20.7342 82.6927C20.3344 82.7568 19.6652 83.0069 19.4057 83.3307C19.3089 83.4526 19.3117 83.6229 19.4548 83.7123C20.2306 84.1896 21.7008 83.8837 22.5033 83.5988C22.8035 83.4926 22.9283 83.2582 22.9269 83.0259C23.2566 82.2952 23.0251 82.2417 22.8849 81.1569C22.6422 79.2657 22.5159 77.8299 23.4011 76.0817C23.749 75.3932 24.1853 74.7236 24.6553 74.0644C29.9989 76.1227 36.26 76.6598 42.0413 75.6012C42.6712 75.4866 43.2814 75.3479 43.8763 75.1871C44.3883 77.2801 44.7629 79.3761 44.4781 81.5006C44.3392 82.0472 44.1933 82.6033 44.0628 83.1878C44.0278 83.3454 44.1316 83.4664 44.2579 83.5031C44.4921 83.9499 45.0505 84.1139 45.5794 84.1287C46.1363 84.1444 46.5894 83.8994 47.051 83.6765C47.3568 83.5263 47.2853 83.1173 47.051 82.9512C46.5951 82.6296 46.1209 82.5423 45.6523 82.514C45.6271 82.5128 45.6004 82.5097 45.5752 82.5067C45.5709 82.5046 45.5597 82.5024 45.5233 82.495C45.5134 82.494 45.5036 82.4898 45.4952 82.4866C45.4742 82.4719 45.4559 82.4604 45.4279 82.4393C45.3605 82.392 45.3816 82.4089 45.4784 82.4824C45.4475 82.454 45.4138 82.4309 45.3816 82.4078C46.741 80.402 46.9121 77.7993 46.6442 75.4173C46.6007 75.0357 46.5389 74.6614 46.4688 74.2915C51.4547 72.2385 54.9815 68.5519 57.264 64.3797C57.6218 64.4564 57.9795 64.5406 58.3344 64.652C60.0024 65.1681 61.056 66.5767 62.3747 67.5869C62.4589 67.856 62.6707 68.0757 62.9976 68.0432C63.497 67.9948 63.9109 67.8013 64.3388 67.547C64.7105 67.3262 64.9392 66.9773 65.1903 66.6397C65.2984 66.4947 65.1875 66.2518 65.0178 66.2172C64.6643 66.1446 64.2883 66.1636 63.9418 66.2845C63.6808 66.3749 63.4508 66.4947 63.2038 66.5882C63.1323 66.2897 62.992 66.0038 62.8026 65.7315C62.0212 64.2252 60.2536 62.9953 58.3106 62.2342C58.8423 61.0139 59.287 59.7733 59.6293 58.5361C60.3995 55.7546 60.934 52.8324 61.0785 49.6724C62.7367 49.7039 64.0722 50.6248 65.6098 50.856C65.614 50.8592 65.614 50.8634 65.6182 50.8676C66.2481 51.4226 66.9285 50.7373 67.3171 50.2411C67.557 49.932 67.6987 49.6503 67.8418 49.2866C67.9372 49.0469 68.0775 48.7052 68.0003 48.4445C67.9582 48.3006 67.825 48.2386 67.6847 48.2648C67.5107 48.2964 67.3059 48.4708 67.1824 48.5938C66.9734 48.7999 66.7419 48.9775 66.5596 49.2046C66.4024 49.4012 66.2313 49.5851 66.0419 49.7502C66.004 49.7837 65.9619 49.8122 65.9198 49.8394C65.2955 48.6055 63.5167 47.981 61.6158 47.8685C61.4488 47.8381 61.2833 47.8107 61.1164 47.7866C61.0981 43.6416 60.3939 39.0773 58.6851 33.8918C59.308 33.7541 59.9337 33.6406 60.551 33.6427C62.8966 33.6521 64.66 34.5561 66.7097 35.4559C66.7391 35.4844 66.7728 35.5064 66.8008 35.5369C67.0393 35.7881 67.3957 35.683 67.578 35.437C67.947 34.9377 68.2781 34.4038 68.6064 33.876C68.7649 33.6195 68.4619 33.3882 68.2262 33.4955C67.7759 33.7005 67.4742 34.0652 67.1642 34.4311C66.7784 34.0053 66.3154 33.6195 65.8048 33.2946C64.451 32.2404 62.421 31.7084 60.9676 31.5076C60.1568 31.3962 58.9475 31.2669 57.7873 31.3541C56.874 28.9395 55.7531 26.3968 54.3867 23.7004C51.3074 17.6245 46.4001 13.962 41.0382 12.6649C41.9178 11.2352 42.8914 9.85294 43.9773 8.51051C46.7017 5.14246 51.2218 -0.909317 56.1165 1.63145C59.966 3.63084 62.1054 8.6703 63.744 12.4368C65.896 17.3859 67.5851 22.5725 68.915 27.8011C68.929 27.8546 69.009 27.8316 68.9992 27.7779C67.8979 21.9953 66.0728 16.4576 63.7201 11.0629Z" fill="#3A3333"/>
<path d="M16.374 23.4701C17.3687 21.784 18.6091 20.2692 19.8572 18.7681C19.898 18.7187 19.8341 18.6514 19.7845 18.6966C17.1969 21.0787 14.6566 24.6528 14.0408 28.1826C14.0331 28.2237 14.0937 28.2573 14.1146 28.2132C14.8681 26.6196 15.474 24.9975 16.374 23.4701Z" fill="#3A3333"/>
<path d="M20.999 17.6936C21.0168 17.6505 20.9625 17.6232 20.9292 17.639C20.6953 17.7525 20.559 18.008 20.4238 18.2214C20.3983 18.2624 20.4515 18.3212 20.4936 18.2908C20.7042 18.1393 20.9004 17.9365 20.999 17.6936Z" fill="#3A3333"/>
<path d="M57.4002 66.5893C56.4345 68.0525 55.5167 69.397 54.238 70.6175C52.8487 71.9451 51.2344 72.9953 49.7172 74.1642C49.6719 74.1989 49.7092 74.2704 49.7625 74.242C52.6303 72.7609 56.5384 69.8827 57.4455 66.6093C57.4535 66.5809 57.4162 66.5661 57.4002 66.5893Z" fill="#3A3333"/>
<path d="M49.2427 74.3263C49.0132 74.3589 48.8299 74.5954 48.6543 74.7373C48.6184 74.7668 48.6581 74.8267 48.6992 74.8131C48.9235 74.7448 49.2389 74.6291 49.2927 74.3758C49.2991 74.3431 49.2735 74.3221 49.2427 74.3263Z" fill="#3A3333"/>
<path d="M28.735 35.4957C26.3878 36.0833 23.564 35.6407 21.3159 35.0783C21.2693 35.0667 21.2383 35.134 21.2825 35.1572C25.1061 37.1009 30.5435 37.0388 32.9528 33.019C33.341 32.3725 33.6181 31.6598 33.8081 30.9093C34.6442 28.7994 35.0432 26.1914 34.7541 23.9471C34.8354 22.6762 34.7219 21.441 34.3301 20.353C32.5299 15.3398 25.4226 18.9455 23.4314 21.8415C23.4087 21.8752 23.4553 21.9035 23.4827 21.8815C24.8457 20.7672 26.2683 19.6393 27.8797 19.0086C27.2287 19.4206 26.5323 19.9578 25.7881 20.6432C23.3072 22.9274 21.5011 26.5372 20.997 28.7511C20.0354 32.9759 24.688 36.1348 28.735 35.4957Z" fill="#A49D9D"/>
<path d="M37.0147 27.1695C37.0147 27.179 37.0134 27.1864 37.0134 27.1959C36.9575 29.1859 37.7352 31.406 38.7366 33.0983C40.6769 36.3791 45.7411 37.9854 49.1368 36.0133C49.1654 35.9965 49.155 35.944 49.1199 35.9471C46.8726 36.1458 44.6734 36.1332 42.789 35.3448C45.4069 36.0858 48.3721 35.5697 49.8455 33.2056C52.3217 29.2289 49.6557 22.3761 46.2483 19.5242C44.8256 18.3332 43.4327 17.8592 42.1725 17.92C43.3235 17.506 44.5746 17.445 45.7606 17.9285C45.8296 17.9558 45.8569 17.8549 45.8075 17.8172C44.3587 16.7228 42.1855 17.2462 40.6652 17.9432C39.0565 18.6801 38.02 19.9709 37.3945 21.6004C36.9211 22.8344 36.7845 24.0938 36.9172 25.3047C36.912 25.927 36.9445 26.5536 37.0147 27.1695Z" fill="#A49D9D"/>
<path d="M33.9012 40.5322C35.2651 41.348 37.4504 40.9905 38.6634 40.0507C40.4509 38.6643 39.4577 35.9879 37.5855 37.0423C36.7654 37.5058 35.5942 37.8643 34.3075 37.2084C32.5998 36.338 31.3476 39.1362 33.9012 40.5322Z" fill="#A49D9D"/>
<path d="M33.5214 47.6458C33.6673 47.6153 33.6329 47.3851 33.4858 47.3872C30.3072 47.4545 27.2424 47.4819 24.0886 46.972C21.3559 46.5295 18.8379 45.4635 16.187 44.7498C16.1645 44.7445 16.1527 44.775 16.1716 44.7876C20.9954 47.794 27.9991 48.7947 33.5214 47.6458Z" fill="#A49D9D"/>
<path d="M35.5877 47.16C35.5498 47.1643 35.538 47.2178 35.5785 47.2294C40.7954 48.7053 48.6069 46.0288 53.1016 43.3925C53.1904 43.34 53.1303 43.2001 53.0311 43.2264C50.4586 43.8939 47.9918 44.9724 45.4415 45.7314C42.1665 46.707 38.9411 46.8131 35.5877 47.16Z" fill="#A49D9D"/>
<path d="M55.088 51.2828C49.6937 54.7897 43.4353 56.1352 37.0951 56.5767C33.7759 56.8069 30.3908 56.8311 27.1152 56.2141C24.143 55.6548 21.3172 54.4785 18.2843 54.2557C18.2183 54.2504 18.2131 54.346 18.2698 54.365C29.5742 58.1199 45.3864 59.9479 55.2542 51.4973C55.3716 51.3953 55.2173 51.1988 55.088 51.2828Z" fill="#A49D9D"/>
<path d="M50.1138 61.4815C40.6698 63.5987 32.259 64.7571 22.6734 62.7998C22.5832 62.7819 22.5136 62.9143 22.6064 62.9564C26.6694 64.796 31.5801 64.8401 35.9498 64.6699C40.7239 64.4837 45.8498 63.7196 50.2001 61.6844C50.3186 61.6298 50.231 61.4553 50.1138 61.4815Z" fill="#A49D9D"/>
<path d="M41.5727 68.2595C38.3531 68.5518 35.462 69.7123 32.2127 68.7936C32.1287 68.7694 32.0805 68.8882 32.1546 68.9323C34.8035 70.5218 38.9214 69.5598 41.6049 68.4982C41.7222 68.452 41.7198 68.2469 41.5727 68.2595Z" fill="#A49D9D"/>
<path d="M44.4837 67.6436C44.3672 67.6531 44.2394 67.6132 44.1253 67.6457C43.9812 67.6846 43.8459 67.7634 43.6993 67.8065C43.5339 67.856 43.3609 67.8707 43.188 67.8748C43.0113 67.8802 42.8735 67.9253 42.7056 67.9411C42.594 67.9526 42.5389 68.0956 42.6467 68.1576C42.8058 68.2522 42.871 68.3478 43.0677 68.3595C43.2895 68.3732 43.5025 68.3564 43.7231 68.3227C43.8935 68.2953 44.0627 68.2376 44.2231 68.1693C44.4173 68.0862 44.4599 67.9559 44.5627 67.7803C44.594 67.7246 44.5539 67.6373 44.4837 67.6436Z" fill="#A49D9D"/>
<path d="M16.6554 53.6976C16.5239 53.6335 16.3555 53.5242 16.2088 53.4979C16.0436 53.4684 15.8698 53.4768 15.7112 53.4495C15.6514 53.439 15.6101 53.5188 15.6688 53.5514C15.7438 53.5914 15.8166 53.6828 15.8926 53.7291C16.0458 53.8247 16.1925 53.911 16.3555 53.9929C16.6814 54.159 16.9281 54.3367 17.2899 54.3998C17.3616 54.4113 17.4409 54.3388 17.392 54.2652C17.1975 53.9688 16.977 53.8563 16.6554 53.6976Z" fill="#A49D9D"/>
</svg>
