<svg width="78" height="128" viewBox="0 0 78 128" fill="none" xmlns="http://www.w3.org/2000/svg">
<path d="M71.5372 53.1085C63.56 53.213 55.528 54.8065 47.4391 54.8065C43.5348 54.8042 39.1009 54.9229 34.5434 54.8493C30.7151 54.2508 26.9103 53.4908 23.1508 52.6002C19.1921 51.6645 13.5823 49.653 8.5979 49.4131C8.4858 49.3727 8.37182 49.368 8.26613 49.3965C1.62235 49.1804 3.06559 85.9486 7.35228 87.3498C10.7472 88.4588 14.582 88.8459 17.6228 89.3542C26.0553 90.7601 34.7311 90.8242 43.257 91.0499C50.688 91.2446 61.2706 92.1898 69.0127 88.9077C71.599 87.8105 74.9571 53.0657 71.5372 53.1085Z" fill="#BE3C41"/>
<path d="M14.383 92.3824C12.9411 92.1414 11.3427 91.9236 9.68931 91.6636C8.95989 103.002 9.6005 116.677 19.0005 121.559C22.7576 123.509 27.2885 123.712 31.4197 124.149C37.5744 124.803 44.2935 125.278 50.4714 124.633C59.1441 123.729 62.8631 117.866 64.5693 109.793C65.6857 104.527 66.4256 99.2136 66.9775 93.8793C59.29 95.1901 50.704 94.5284 44.1962 94.3571C34.2803 94.095 24.1889 94.0188 14.383 92.3824Z" fill="#554949"/>
<path d="M39.9275 30.3401C39.7056 30.2733 39.7788 29.9236 40.015 29.9423C48.5656 30.559 57.3008 30.4336 65.7969 29.1012C69.2999 28.5539 72.5734 27.6807 75.7401 26.5673C78.1297 25.7263 78.605 12.9689 76.3435 11.172C72.9339 8.4592 68.1064 7.15621 64.1307 6.00275C55.6 3.5303 46.7846 2.09385 37.9327 1.48508C31.9465 1.0739 18.23 1.64261 10.2858 6.31784C6.11338 8.77427 6.73203 22.3273 8.9284 23.7451C9.70778 24.2471 10.5483 24.6796 11.4257 25.0588C17.3873 26.9251 23.978 27.6033 29.6649 28.4364C29.9784 28.4818 30.0414 28.973 29.6954 29.0158C24.6517 29.6512 17.9147 29.0665 11.7229 27.0693C11.1266 33.7284 11.2914 40.4355 11.5661 47.1773C14.9429 47.997 18.1915 49.0143 20.813 49.6364C25.1849 50.6697 44.5212 52.1996 49.0603 52.1996C56.1434 52.2023 63.1882 51.1503 70.1971 50.5816C70.9927 43.6662 71.8792 36.7589 72.3705 29.8248C70.3199 30.3267 51.5779 33.8378 39.9275 30.3401Z" fill="#554949"/>
<path d="M13.7563 11.7363C14.3241 11.2325 14.7862 10.6421 15.3806 10.1618C16.0235 9.63964 16.7645 9.24078 17.4363 8.75532C17.5279 8.6871 17.4707 8.55852 17.361 8.57689C15.8933 8.81044 13.9009 10.0831 13.5771 11.6313C13.5547 11.7389 13.6749 11.8098 13.7563 11.7363Z" fill="white"/>
<path d="M62.5438 18.3882C62.3853 18.3988 62.3748 18.177 62.5068 18.1295C63.7795 17.6833 65.4033 17.612 66.5519 16.9043C68.4239 15.7505 64.3075 14.4435 63.7795 14.2666C60.0169 13.0177 56.1936 12.5054 52.3009 11.8269C52.2071 11.811 52.2338 11.6658 52.3233 11.6632C55.9322 11.5866 59.7951 12.2044 63.225 13.3398C64.7221 13.8388 66.676 14.3643 67.7163 15.6449C69.4088 17.7334 63.3966 18.3302 62.5438 18.3882ZM59.5522 18.449C49.8461 19.0325 39.7199 18.6497 30.0233 17.95C26.7281 17.7123 22.7958 17.6991 19.8586 15.9987C18.2384 15.0613 19.4617 14.0527 20.52 13.5405C20.6444 13.4798 20.7827 13.6355 20.6726 13.7411C18.0349 16.2548 27.4772 17.0786 28.8671 17.1737C32.3479 17.4139 35.8343 17.4007 39.3191 17.5354C46.0624 17.7915 52.8118 17.8787 59.5522 18.1929C59.7159 18.2008 59.7159 18.4384 59.5522 18.449ZM22.3622 12.8012C31.0106 10.6915 40.2554 9.91257 49.0727 11.3727C49.1907 11.3938 49.1601 11.5734 49.0463 11.576C44.3018 11.5971 39.5715 11.1588 34.8228 11.4704C30.7011 11.7397 26.496 13.0863 22.3783 12.9173C22.3133 12.9147 22.297 12.817 22.3622 12.8012ZM58.7442 15.6369C58.8789 15.6449 58.8762 15.8324 58.7442 15.8429C52.8707 16.3288 46.9028 16.0858 41.0206 15.7848C36.6343 15.563 31.7657 16.0092 27.5646 14.5465C27.469 14.5121 27.5075 14.3801 27.6073 14.396C32.7772 15.2462 38.1486 15.0455 43.3777 15.2277C48.5008 15.4046 53.63 15.3544 58.7442 15.6369ZM50.8333 13.6751C45.7041 13.7781 40.5382 13.8758 35.4131 13.9233C35.35 13.9233 35.3419 13.8336 35.3989 13.8177C40.1759 12.3391 45.985 12.6296 50.8576 13.5009C50.9574 13.5194 50.931 13.6725 50.8333 13.6751ZM72.0888 14.0316C70.6894 10.6017 57.8227 5.90446 49.6568 6.06288C49.5306 6.06552 49.4696 6.26354 49.6061 6.28995C56.6953 7.75008 65.1657 10.0156 69.0893 12.7801C70.6946 13.9128 71.537 15.1274 71.2095 16.4079C71.1858 16.268 71.1594 16.1307 71.1118 15.9881C70.6366 14.5386 68.6615 13.6461 67.439 13.0177C64.7986 11.6579 61.7992 10.9793 58.9106 10.3931C53.1352 9.22079 47.137 9.12838 41.2648 8.92243C35.6207 8.7244 29.9563 8.68744 24.3425 9.40298C21.0737 9.82017 18.621 10.7601 16.1969 13.0282C15.1772 13.9867 14.6113 15.1432 14.7579 16.1914C13.6568 15.3465 13.1031 14.3405 13.3798 13.1286C13.4532 12.8064 13.0643 12.5556 12.8465 12.8513C9.1787 17.7809 16.9132 19.2015 20.4733 19.7797C29.1401 21.1924 37.9574 21.8973 46.7178 22.3805C53.1698 22.737 62.7972 24.1918 69.0074 21.6148C72.4716 20.1784 73.2268 16.8198 72.0888 14.0316Z" fill="white"/>
<path d="M36.4035 32.8574C43.9491 35.9723 53.4794 35.0859 61.3137 33.7067C61.4325 33.6869 61.4053 33.4888 61.284 33.4962C57.2926 33.7636 53.3061 34.0583 49.3048 34.1004C44.9296 34.145 40.7426 33.3898 36.4461 32.7088C36.3463 32.6915 36.3119 32.8203 36.4035 32.8574Z" fill="white"/>
<path d="M16.0803 80.8892C10.4078 87.3737 9.09693 74.3767 8.87712 70.8929C8.72242 68.4382 8.76513 65.9415 9.19261 63.5194C9.79929 60.08 11.6595 58.8946 14.8266 58.8246C15.0077 58.82 15.073 58.6193 14.9652 58.4909C12.8584 55.9452 10.076 57.3592 8.5108 59.6926C5.75296 63.7971 6.78874 70.6806 7.34456 75.2004C7.80447 78.9198 8.62886 82.952 12.3089 84.7207C14.9141 85.9737 16.7927 83.519 16.7643 81.1716C16.7603 80.8402 16.3186 80.6162 16.0803 80.8892Z" fill="white"/>
<path d="M22.7437 84.0055C20.631 84.5177 20.0245 81.5307 19.7943 79.987C19.7943 79.9729 19.8004 79.9659 19.7985 79.9519C19.2346 75.6994 19.367 71.4984 19.3445 67.2787C19.4058 66.8109 19.4544 66.3361 19.4872 65.8519C19.5847 64.3876 19.7171 62.9772 20.0916 61.5504C20.8182 58.7762 23.9364 58.823 24.9192 61.3211C26.9917 66.57 26.0654 73.7861 25.6303 79.194C25.476 81.112 24.8982 83.4815 22.7437 84.0055ZM24.3883 57.3564C17.641 55.0197 17.0995 63.2649 17.5839 68.5325C17.35 72.3405 17.5413 76.1789 18.0176 79.9519C18.0237 80.0057 18.0501 80.0431 18.0644 80.0922C18.0644 80.125 18.054 80.153 18.0583 80.1858C18.4103 82.7915 19.6764 86.2674 22.9778 85.7598C26.1215 85.2756 27.2022 81.926 27.4314 79.194C27.8384 74.1322 28.0676 69.1407 27.6373 64.0766C27.4431 61.8264 26.9215 58.2335 24.3883 57.3564Z" fill="white"/>
<path d="M34.8909 69.713C34.1627 69.8034 33.3487 69.9148 32.6391 70.2023C32.6947 69.4904 32.7388 68.7784 32.8083 68.0688C33.0078 66.0697 33.1098 63.7692 33.9656 61.9093C34.7216 60.2673 38.1306 60.7636 39.7053 60.2743C39.863 60.2256 39.921 59.9821 39.754 59.8986C37.145 58.5837 32.7573 58.2776 31.7439 61.8188C29.5755 69.3883 30.3733 77.7278 29.3575 85.4898C29.1813 86.8256 31.2801 86.8093 31.4517 85.4898C32.0199 81.1276 32.1775 76.7398 32.4674 72.3591C33.4948 72.4356 34.5616 71.9973 35.5124 71.6448C36.3658 71.3294 37.2703 71.0998 37.8268 70.3299C37.9335 70.1838 37.8523 69.9727 37.7109 69.8869C36.8575 69.3605 35.8301 69.597 34.8909 69.713Z" fill="white"/>
<path d="M45.2282 71.4331C44.1813 70.7671 42.6366 71.2415 41.4541 71.3349C41.4822 71.1597 41.5009 70.9844 41.5289 70.8091C41.8304 68.8719 42.2253 66.9417 42.7441 65.0535C43.583 62.0132 45.4782 61.9431 47.6001 60.3844C47.7123 60.3026 47.752 60.104 47.6001 60.0316C37.9699 55.3812 37.9535 81.9653 37.9956 86.0408C38.0026 87.0269 39.5847 87.3074 39.7646 86.2815C40.4984 82.0447 40.6783 77.7356 41.1761 73.4615C41.2275 73.4638 41.2649 73.4848 41.321 73.4802C42.5875 73.3844 44.6416 73.3353 45.4151 72.1458C45.574 71.9028 45.4595 71.5803 45.2282 71.4331Z" fill="white"/>
<path d="M50.1717 63.3722C48.0633 68.7978 47.424 75.7321 47.3311 81.5179C47.4124 83.4195 47.8215 85.8975 49.6765 86.9296C51.4432 87.9152 53.4842 87.8803 55.0812 86.6227C57.5243 84.7003 57.4779 79.2259 56.1459 76.7525C55.9971 76.4782 55.581 76.5503 55.4996 76.8362C54.9022 78.94 55.2067 81.1855 54.6 83.2962C54.2885 84.3772 53.6214 85.1536 52.4521 85.128C50.4995 85.0862 50.1182 83.0382 50.0508 81.5179C50.1461 75.5484 50.7296 68.2562 53.3564 62.812C54.2723 60.9128 56.4736 67.4449 56.5178 67.6355C57.3779 71.3456 53.7771 70.7272 51.2735 71.2084C50.718 71.3153 50.8505 72.2057 51.406 72.1871C53.7934 72.1173 57.9102 73.0797 58.5518 69.7951C59.1469 66.7313 57.8196 62.21 55.6972 59.9853C53.2192 57.3818 50.89 61.5265 50.1717 63.3722Z" fill="white"/>
<path d="M61.9885 70.6207C62.2988 68.605 62.7374 66.629 63.3579 64.7556C64.8324 60.2833 66.9834 65.6375 67.254 67.7792C67.597 70.5134 64.2655 70.4201 61.9885 70.6207ZM66.0666 59.9543C60.1664 56.0116 59.1492 79.1712 59.2402 81.7608C59.2402 81.7864 59.2286 81.8051 59.2309 81.8331C59.3755 83.3915 59.5972 85.6242 61.0949 86.5387C62.4434 87.3623 64.2212 87.045 65.3643 85.9788C67.66 83.8418 68.4672 79.0685 67.4617 76.1803C67.3684 75.9026 66.9671 75.7207 66.7431 75.9889C65.5043 77.5054 65.6116 79.4954 65.25 81.3385C65.033 82.4537 64.6644 83.7345 63.7079 84.4414C61.9232 85.7572 61.5872 82.9623 61.4822 81.8331C61.4799 81.8191 61.4729 81.8098 61.4706 81.7958C61.3236 78.5109 61.4029 75.0441 61.8438 71.6613C64.3192 72.2585 68.3995 72.3028 69.1298 69.5172C69.902 66.5753 68.6888 61.7087 66.0666 59.9543Z" fill="white"/>
<path d="M17.0655 115.863C23.0984 121.259 33.0495 123.154 40.9102 122.195C41.132 122.166 41.2257 121.825 40.9672 121.772C37.395 121.041 33.7496 120.935 30.147 120.355C25.4941 119.604 21.4029 117.705 17.1713 115.724C17.0859 115.686 16.9841 115.794 17.0655 115.863Z" fill="white"/>
<path d="M42.3573 121.9C42.4346 122.399 43.1999 122.429 43.5867 122.46C44.3194 122.521 45.1193 122.661 45.6831 122.103C45.791 121.998 45.7564 121.831 45.6363 121.751C44.9809 121.322 44.0976 121.521 43.3445 121.493C43.147 121.487 42.2983 121.527 42.3573 121.9Z" fill="white"/>
<path d="M4.878 12.5615C5.45185 10.2602 5.37648 8.03106 6.93367 6.03981C8.19978 4.42275 10.237 3.51935 12.1117 2.85649C15.3825 1.70183 18.971 1.51207 22.3743 0.937412C22.5248 0.910684 22.4841 0.678144 22.3395 0.678144C14.3892 0.619341 3.77066 2.39408 4.73555 12.5428C4.74143 12.6203 4.85742 12.647 4.878 12.5615Z" fill="#554949"/>
<path d="M23.5744 0.758801C24.4984 1.17345 25.97 0.908632 26.8269 0.43245C26.9143 0.384296 26.8799 0.234471 26.7761 0.242496C26.2956 0.271923 25.8215 0.3709 25.3472 0.451155C24.7651 0.547462 24.1565 0.483257 23.5864 0.651794C23.5439 0.66517 23.5254 0.737399 23.5744 0.758801Z" fill="#554949"/>
<path d="M68.8635 99.7898C66.4 107.424 66.0572 116.227 60.3517 122.43C55.9244 127.244 48.9055 126.868 42.9522 127.485C42.8077 127.5 42.8098 127.694 42.9522 127.71C48.9613 128.352 55.8748 127.685 60.5128 123.44C66.4537 117.997 68.4236 107.374 69.0369 99.8125C69.0452 99.7093 68.8924 99.699 68.8635 99.7898Z" fill="#554949"/>
<path d="M4.98254 47.279C-1.02193 53.3587 -0.0876585 64.6467 1.55101 72.2397C1.58944 72.4187 1.88065 72.3806 1.86847 72.1992C1.60996 68.368 1.213 64.5417 1.31874 60.6986C1.45313 55.7408 2.96529 51.757 5.11287 47.3816C5.15345 47.2981 5.05176 47.2098 4.98254 47.279Z" fill="#554949"/>
<path d="M75.2739 58.6563C76.0571 65.1003 74.6552 70.819 73.6705 77.1424C73.6496 77.2768 73.835 77.3348 73.879 77.2004C75.5775 71.6902 77.5934 64.2684 75.3689 58.6424C75.3504 58.5961 75.2646 58.5961 75.2739 58.6563Z" fill="#554949"/>
</svg>
