<svg width="57" height="94" viewBox="0 0 57 94" fill="none" xmlns="http://www.w3.org/2000/svg">
<path d="M52.0901 38.6679C46.2553 38.7444 40.3806 39.9099 34.4641 39.9099C31.6084 39.9082 28.3653 39.995 25.0318 39.9412C22.2317 39.5035 19.4487 38.9476 16.6989 38.2962C13.8034 37.6118 9.70027 36.1405 6.05451 35.965C5.97252 35.9355 5.88914 35.932 5.81185 35.9529C0.952395 35.7948 2.00802 62.6881 5.14343 63.713C7.62657 64.5242 10.4314 64.8073 12.6556 65.1791C18.8234 66.2074 25.1691 66.2543 31.4051 66.4193C36.8404 66.5618 44.5808 67.2531 50.2436 64.8525C52.1353 64.05 54.5915 38.6367 52.0901 38.6679Z" fill="#DD5F63"/>
<path d="M10.2858 67.394C9.23117 67.2177 8.06206 67.0584 6.85275 66.8682C6.31923 75.1617 6.78779 85.1641 13.6632 88.7348C16.4113 90.1606 19.7253 90.3091 22.747 90.6292C27.2487 91.107 32.1632 91.455 36.6819 90.9833C43.0254 90.3215 45.7456 86.0332 46.9936 80.1289C47.8101 76.2767 48.3513 72.3905 48.7549 68.4889C43.1321 69.4477 36.852 68.9636 32.0921 68.8384C24.8393 68.6466 17.4582 68.5909 10.2858 67.394Z" fill="#3A3333"/>
<path d="M28.9699 22.0145C28.8076 21.9656 28.8611 21.7098 29.0339 21.7235C35.288 22.1746 41.6772 22.0828 47.8915 21.1083C50.4537 20.708 52.848 20.0693 55.1642 19.255C56.9121 18.6398 57.2597 9.30867 55.6056 7.99434C53.1117 6.01016 49.5808 5.05711 46.6728 4.21344C40.4332 2.40503 33.9854 1.35436 27.5108 0.909092C23.1323 0.608337 13.0997 1.02431 7.28913 4.44391C4.23728 6.24061 4.68978 16.1537 6.29626 17.1907C6.86633 17.5579 7.48112 17.8742 8.12285 18.1516C12.4834 19.5167 17.304 20.0127 21.4636 20.622C21.6928 20.6552 21.7389 21.0146 21.4858 21.0458C17.7967 21.5106 12.8691 21.0829 8.34021 19.6221C7.90412 24.4927 8.02461 29.3985 8.22557 34.3297C10.6955 34.9293 13.0716 35.6733 14.989 36.1284C18.1867 36.8841 32.3299 38.0032 35.6499 38.0032C40.8306 38.0051 45.9835 37.2357 51.1099 36.8197C51.6919 31.7616 52.3403 26.7093 52.6996 21.6376C51.1998 22.0047 37.4913 24.5728 28.9699 22.0145Z" fill="#3A3333"/>
<path d="M9.82727 8.40715C10.2426 8.03864 10.5806 7.60678 11.0154 7.25554C11.4856 6.87359 12.0276 6.58186 12.519 6.22678C12.586 6.17687 12.5441 6.08283 12.4639 6.09626C11.3904 6.26709 9.93305 7.19796 9.6962 8.33038C9.67988 8.40907 9.76777 8.46089 9.82727 8.40715Z" fill="#A49D9D"/>
<path d="M45.5121 13.2726C45.3962 13.2803 45.3885 13.1181 45.4851 13.0833C46.4159 12.7569 47.6037 12.7048 48.4438 12.1872C49.813 11.3432 46.8022 10.3873 46.4159 10.2579C43.6639 9.3444 40.8674 8.96972 38.0202 8.47339C37.9516 8.4618 37.9711 8.35558 38.0366 8.35365C40.6762 8.29764 43.5017 8.74956 46.0104 9.58C47.1054 9.94501 48.5345 10.3293 49.2954 11.266C50.5334 12.7936 46.1359 13.2301 45.5121 13.2726ZM43.324 13.317C36.2247 13.7438 28.8181 13.4638 21.7257 12.952C19.3155 12.7782 16.4393 12.7685 14.291 11.5248C13.1059 10.8392 14.0007 10.1014 14.7747 9.72678C14.8657 9.68237 14.9669 9.7963 14.8864 9.87355C12.957 11.7121 19.8634 12.3147 20.88 12.3842C23.426 12.5599 25.9761 12.5503 28.5249 12.6488C33.4572 12.8361 38.3939 12.8999 43.324 13.1297C43.4437 13.1355 43.4437 13.3093 43.324 13.317ZM16.1222 9.18603C22.4478 7.64295 29.2097 7.07322 35.659 8.14121C35.7453 8.15666 35.7229 8.28799 35.6397 8.28992C32.1694 8.30537 28.7096 7.98478 25.2362 8.21267C22.2215 8.40966 19.1458 9.3946 16.1339 9.271C16.0864 9.26906 16.0745 9.19762 16.1222 9.18603ZM42.733 11.2602C42.8315 11.266 42.8296 11.4031 42.733 11.4108C38.4369 11.7662 34.0719 11.5885 29.7694 11.3684C26.5612 11.2061 23.0002 11.5325 19.9273 10.4626C19.8574 10.4375 19.8856 10.3409 19.9586 10.3525C23.74 10.9744 27.6688 10.8276 31.4935 10.9608C35.2407 11.0902 38.9924 11.0535 42.733 11.2602ZM36.9468 9.82527C33.1951 9.90059 29.4166 9.97205 25.668 10.0068C25.6218 10.0068 25.6159 9.94115 25.6576 9.92957C29.1516 8.84806 33.4006 9.0605 36.9645 9.69782C37.0375 9.71133 37.0182 9.82334 36.9468 9.82527ZM52.4936 10.086C51.4701 7.57728 42.059 4.14157 36.0862 4.25745C35.9939 4.25938 35.9493 4.40422 36.0491 4.42353C41.2344 5.49152 47.4298 7.14855 50.2997 9.17059C51.4739 9.9991 52.09 10.8875 51.8505 11.8241C51.8331 11.7218 51.8138 11.6214 51.7791 11.5171C51.4314 10.4568 49.9868 9.80404 49.0927 9.3444C47.1614 8.3498 44.9675 7.85346 42.8547 7.42472C38.6304 6.56724 34.2432 6.49964 29.9481 6.349C25.8198 6.20416 21.6767 6.17712 17.5706 6.7005C15.1797 7.00564 13.3858 7.69316 11.6127 9.35211C10.8668 10.0532 10.453 10.899 10.5601 11.6658C9.75481 11.0478 9.34982 10.3119 9.55221 9.4255C9.6059 9.18988 9.32142 9.00641 9.1621 9.22271C6.47938 12.8284 12.1366 13.8674 14.7406 14.2904C21.0797 15.3236 27.529 15.8392 33.9365 16.1926C38.6557 16.4534 45.6975 17.5175 50.2398 15.6326C52.7737 14.582 53.326 12.1254 52.4936 10.086Z" fill="#A49D9D"/>
<path d="M26.3922 23.8557C31.9112 26.134 38.8819 25.4857 44.6121 24.4769C44.6991 24.4624 44.6791 24.3175 44.5904 24.323C41.671 24.5186 38.7552 24.7341 35.8285 24.7649C32.6284 24.7975 29.5659 24.2451 26.4233 23.7471C26.3503 23.7344 26.3251 23.8286 26.3922 23.8557Z" fill="#A49D9D"/>
<path d="M11.5274 58.9876C7.37833 63.7305 6.4195 54.2241 6.25873 51.676C6.14557 49.8805 6.17681 48.0544 6.48948 46.2828C6.93323 43.7671 8.29382 42.9001 10.6103 42.8489C10.7428 42.8455 10.7906 42.6987 10.7117 42.6048C9.17072 40.7428 7.13565 41.7771 5.99079 43.4838C3.97362 46.4859 4.73122 51.5207 5.13776 54.8266C5.47416 57.5471 6.07714 60.4963 8.7688 61.79C10.6743 62.7065 12.0484 60.911 12.0276 59.1941C12.0247 58.9517 11.7016 58.7879 11.5274 58.9876Z" fill="#A49D9D"/>
<path d="M16.4012 61.2669C14.856 61.6416 14.4123 59.4568 14.244 58.3276C14.244 58.3173 14.2484 58.3122 14.2471 58.302C13.8346 55.1916 13.9314 52.1189 13.915 49.0325C13.9598 48.6903 13.9954 48.343 14.0193 47.9888C14.0907 46.9178 14.1875 45.8862 14.4614 44.8426C14.9928 42.8135 17.2736 42.8477 17.9925 44.6749C19.5083 48.5141 18.8308 53.7921 18.5126 57.7476C18.3997 59.1505 17.9771 60.8836 16.4012 61.2669ZM17.6041 41.775C12.6689 40.0658 12.2729 46.0966 12.6272 49.9495C12.4561 52.7348 12.5961 55.5423 12.9444 58.302C12.9489 58.3413 12.9682 58.3687 12.9786 58.4046C12.9786 58.4286 12.9711 58.4491 12.9742 58.473C13.2316 60.3789 14.1577 62.9213 16.5725 62.55C18.8719 62.1959 19.6623 59.7459 19.83 57.7476C20.1277 54.0453 20.2953 50.3943 19.9805 46.6903C19.8385 45.0444 19.457 42.4165 17.6041 41.775Z" fill="#A49D9D"/>
<path d="M25.2858 50.813C24.7532 50.8791 24.1578 50.9605 23.6388 51.1709C23.6795 50.6501 23.7117 50.1294 23.7626 49.6103C23.9085 48.1482 23.9831 46.4655 24.609 45.1051C25.162 43.9041 27.6555 44.2671 28.8072 43.9092C28.9226 43.8736 28.965 43.6955 28.8429 43.6344C26.9346 42.6727 23.7253 42.4488 22.984 45.0389C21.398 50.5755 21.9815 56.6752 21.2386 62.3525C21.1097 63.3296 22.6448 63.3177 22.7703 62.3525C23.1859 59.1619 23.3012 55.9526 23.5132 52.7484C24.2647 52.8044 25.0449 52.4838 25.7404 52.2259C26.3646 51.9952 27.0262 51.8273 27.4333 51.2642C27.5113 51.1573 27.4519 51.0029 27.3484 50.9402C26.7242 50.5551 25.9728 50.7281 25.2858 50.813Z" fill="#A49D9D"/>
<path d="M32.847 52.0711C32.0812 51.584 30.9514 51.9309 30.0865 51.9993C30.107 51.8711 30.1207 51.7429 30.1412 51.6147C30.3617 50.1978 30.6506 48.7859 31.03 47.4048C31.6437 45.1811 33.0299 45.1298 34.5818 43.9898C34.6639 43.9299 34.6929 43.7847 34.5818 43.7317C27.538 40.3303 27.5261 59.7746 27.5569 62.7556C27.562 63.4769 28.7191 63.682 28.8508 62.9316C29.3875 59.8328 29.5191 56.6809 29.8831 53.5547C29.9207 53.5564 29.9481 53.5718 29.9891 53.5684C30.9155 53.4983 32.4179 53.4624 32.9837 52.5924C33.0999 52.4146 33.0162 52.1788 32.847 52.0711Z" fill="#A49D9D"/>
<path d="M36.4626 46.1751C34.9205 50.1436 34.4529 55.2155 34.3849 59.4474C34.4444 60.8382 34.7437 62.6507 36.1005 63.4056C37.3927 64.1266 38.8855 64.1011 40.0536 63.1812C41.8406 61.7751 41.8066 57.771 40.8323 55.9619C40.7235 55.7612 40.4192 55.814 40.3596 56.0231C39.9227 57.5618 40.1454 59.2043 39.7017 60.7481C39.4738 61.5388 38.9858 62.1066 38.1306 62.0879C36.7024 62.0573 36.4235 60.5594 36.3742 59.4474C36.4439 55.0811 36.8707 49.7474 38.792 45.7654C39.4619 44.3763 41.0721 49.154 41.1044 49.2934C41.7335 52.0071 39.0998 51.5548 37.2686 51.9067C36.8622 51.985 36.9591 52.6362 37.3655 52.6226C39.1117 52.5716 42.1228 53.2755 42.5921 50.873C43.0274 48.632 42.0565 45.325 40.5042 43.6979C38.6917 41.7936 36.988 44.8251 36.4626 46.1751Z" fill="#A49D9D"/>
<path d="M45.1059 51.4769C45.3328 50.0026 45.6536 48.5572 46.1075 47.187C47.186 43.9158 48.7593 47.832 48.9573 49.3985C49.2081 51.3984 46.7713 51.3301 45.1059 51.4769ZM48.0887 43.6752C43.7732 40.7913 43.0292 57.7309 43.0957 59.625C43.0957 59.6438 43.0872 59.6575 43.0889 59.6779C43.1947 60.8178 43.3568 62.4509 44.4523 63.1198C45.4386 63.7221 46.7389 63.4901 47.5751 62.7102C49.2542 61.1472 49.8446 57.6558 49.1091 55.5433C49.0409 55.3402 48.7474 55.2071 48.5836 55.4034C47.6775 56.5125 47.756 57.9681 47.4915 59.3162C47.3328 60.1318 47.0631 61.0687 46.3635 61.5857C45.0581 62.5481 44.8124 60.5038 44.7356 59.6779C44.7339 59.6677 44.7288 59.6609 44.7271 59.6506C44.6196 57.248 44.6776 54.7123 45.0001 52.238C46.8106 52.6748 49.7951 52.7072 50.3292 50.6698C50.8941 48.518 50.0067 44.9584 48.0887 43.6752Z" fill="#A49D9D"/>
<path d="M12.2479 84.5683C16.6605 88.5149 23.939 89.901 29.6885 89.1998C29.8508 89.1789 29.9193 88.9288 29.7302 88.8901C27.1175 88.3556 24.4511 88.2782 21.816 87.8539C18.4128 87.3046 15.4204 85.9156 12.3253 84.467C12.2627 84.4388 12.1883 84.5177 12.2479 84.5683Z" fill="#A49D9D"/>
<path d="M30.747 88.9839C30.8036 89.3486 31.3634 89.371 31.6462 89.3933C32.1822 89.4379 32.7672 89.5407 33.1796 89.1328C33.2585 89.0553 33.2332 88.9333 33.1454 88.8752C32.666 88.5611 32.0199 88.707 31.4691 88.6861C31.3247 88.6817 30.7038 88.7114 30.747 88.9839Z" fill="#A49D9D"/>
<path d="M3.33373 9.01071C3.75346 7.32747 3.69833 5.69702 4.8373 4.24056C5.76338 3.0578 7.25346 2.39703 8.62468 1.9122C11.017 1.06765 13.6417 0.928846 16.131 0.508526C16.2411 0.488976 16.2114 0.31889 16.1056 0.31889C10.2905 0.27588 2.52379 1.57397 3.22954 8.99702C3.23384 9.05371 3.31868 9.07327 3.33373 9.01071Z" fill="#3A3333"/>
<path d="M17.0086 0.377877C17.6844 0.681166 18.7608 0.487467 19.3875 0.139174C19.4515 0.103953 19.4263 -0.00563353 19.3503 0.00023663C18.9989 0.0217603 18.6522 0.0941546 18.3053 0.152856C17.8795 0.223297 17.4343 0.176336 17.0174 0.299608C16.9863 0.309392 16.9727 0.362223 17.0086 0.377877Z" fill="#3A3333"/>
<path d="M50.1344 72.812C48.3325 78.3959 48.0818 84.8346 43.9087 89.3718C40.6704 92.8925 35.5366 92.6176 31.1822 93.0692C31.0765 93.0797 31.078 93.2217 31.1822 93.2338C35.5774 93.7035 40.6342 93.2157 44.0265 90.1104C48.3718 86.129 49.8127 78.3596 50.2613 72.8286C50.2673 72.7531 50.1556 72.7455 50.1344 72.812Z" fill="#3A3333"/>
<path d="M3.41009 34.4041C-0.981756 38.8509 -0.298402 47.1073 0.900167 52.6611C0.928276 52.792 1.14127 52.7641 1.13237 52.6314C0.943288 49.8292 0.652938 47.0305 0.730282 44.2196C0.828576 40.5933 1.93462 37.6794 3.50541 34.4792C3.53509 34.4181 3.46072 34.3535 3.41009 34.4041Z" fill="#3A3333"/>
<path d="M54.8231 42.7258C55.3959 47.4391 54.3705 51.6219 53.6502 56.247C53.635 56.3453 53.7706 56.3877 53.8028 56.2894C55.0451 52.2591 56.5196 46.8306 54.8925 42.7156C54.879 42.6817 54.8163 42.6817 54.8231 42.7258Z" fill="#3A3333"/>
</svg>
