<svg width="42" height="38" viewBox="0 0 42 38" fill="none" xmlns="http://www.w3.org/2000/svg">
<path d="M38.2578 6.42977C32.483 -0.884106 23.5564 -0.602474 15.521 0.767887C7.87917 2.06997 -1.94355 9.77399 0.334738 20.0797C0.870325 22.5023 1.87079 24.3298 3.18055 25.7051C4.88546 28.1081 7.29115 29.5626 9.92337 30.427C10.2945 33.5968 11.6301 37.1312 12.8467 37.8237C13.2263 38.0407 13.7604 38.0761 14.137 37.8237C16.1742 36.4607 15.7651 33.6273 15.3728 31.4584C16.3783 31.5364 17.3733 31.5669 18.3327 31.562C18.4041 34.2649 18.9892 36.9252 19.8428 37.636C20.3259 38.0383 20.822 38.0944 21.3916 37.8359C23.6472 36.8118 23.5347 33.4347 23.4875 31.2475C24.4829 31.1353 25.484 30.989 26.4827 30.8049C26.0266 33.147 25.3852 36.3412 27.6004 37.8237C27.977 38.0761 28.5108 38.0407 28.8907 37.8237C30.244 37.052 31.7444 32.7666 31.9002 29.3748C33.6436 28.7542 35.3225 27.9801 36.8777 27.0157C43.3735 22.9912 42.7444 12.1124 38.2578 6.42977Z" fill="#DD5F63"/>
<path d="M17.8404 8.55725C14.4407 4.46567 8.13129 7.00644 6.23936 10.0678C5.18331 11.7771 4.53482 13.9168 4.36706 15.7821C4.03191 19.5177 6.23168 23.1948 9.4435 23.9421C10.4505 24.1774 11.4671 24.1762 12.4474 23.975C11.2634 24.559 9.98201 24.9479 8.68187 25.1333C8.64518 25.1381 8.64408 25.1918 8.672 25.2076C10.737 26.4012 14.1238 24.2274 15.654 22.9924C17.3648 21.6123 18.6969 19.408 19.1801 17.1074C19.9871 14.185 19.7145 10.814 17.8404 8.55725Z" fill="#3A3333"/>
<path d="M34.6092 8.49873C31.7663 5.3825 27.4065 4.35107 24.3326 7.59166C23.3749 8.60114 22.8057 9.76181 22.5376 10.981C22.0052 12.6513 22.0141 14.619 22.2902 16.1906C23.0208 20.3467 25.5954 24.0067 29.8354 25.0711C30.0057 25.1138 30.0768 24.8992 29.9483 24.8029C28.9345 24.0482 28.0352 23.246 27.2465 22.4072C27.6106 22.64 27.985 22.8558 28.3788 23.0387C31.3137 24.3993 34.9444 23.1106 36.4632 19.8822C38.3065 15.9613 37.3117 11.4601 34.6092 8.49873Z" fill="#3A3333"/>
<path d="M20.8103 23.2996C20.086 23.5093 19.5951 24.5883 19.2668 25.1869C18.9444 25.7758 18.2693 26.8023 18.7452 27.468C18.8657 27.6362 19.0283 27.7167 19.2075 27.7557C19.7135 27.9801 20.4867 27.8911 20.9201 27.8569C21.5034 27.8118 22.8735 28.0605 23.1178 27.2851C23.3413 26.578 22.5463 25.5015 22.2423 24.8821C22.0262 24.4432 21.5107 23.0972 20.8103 23.2996Z" fill="#3A3333"/>
<path d="M30.5417 24.9797C30.5303 24.9784 30.5278 24.9918 30.5334 24.9992C30.5762 25.054 30.5839 25.1577 30.6531 25.1942C30.7814 25.2613 30.8993 25.3076 31.0454 25.3235C31.2514 25.3454 31.7075 25.4295 31.8093 25.1747C31.9668 24.7773 30.7227 24.9882 30.5417 24.9797Z" fill="#3A3333"/>
</svg>
