<svg width="124" height="98" viewBox="0 0 124 98" fill="none" xmlns="http://www.w3.org/2000/svg">
<path d="M122.739 47.5591C116.851 41.5673 108.801 35.2542 100.092 33.945C101.389 32.3055 102.712 30.6879 104.226 29.2411C108.07 25.5599 113.222 23.8412 118.412 23.2693C119.58 23.1399 120.424 21.4063 119.084 20.7814C112.619 17.755 105.33 16.9562 98.2682 17.4583C94.2742 17.7417 89.5345 18.5623 85.6096 20.5196C85.5539 20.0554 85.5072 19.5982 85.4871 19.1455C85.2511 14.0955 86.4244 9.28558 88.6462 4.77225C89.0492 3.95854 88.388 2.83494 87.4017 3.15129C79.6298 5.64584 70.335 12.2655 67.9039 20.6803C67.2049 16.7407 63.2889 12.9701 60.4237 10.779C55.4101 6.94865 49.6373 4.58012 43.6665 2.67576C42.6446 2.34917 41.5737 3.62883 42.2238 4.55185C44.341 7.55354 46.1154 10.8003 47.5246 14.1916C48.3862 16.265 48.7669 18.312 49.0563 20.3936C40.1957 16.759 29.1956 16.2552 20.5042 19.6511C19.2264 20.15 19.3622 22.0477 20.836 22.1007C25.9208 22.2781 29.7433 24.0382 33.8486 25.9974C29.3849 27.2256 25.0904 30.2471 21.7376 32.7715C15.5486 37.432 10.1721 43.4768 5.95773 49.9673C5.02937 51.3959 6.777 52.6076 8.05043 52.0622C10.8155 50.8789 13.5494 49.9143 16.4903 49.2943C17.3674 49.1086 18.229 49.0955 19.075 49.1104C16.8131 51.6049 14.992 54.691 13.5894 57.139C10.3146 62.8554 7.46714 69.9227 7.91685 76.6221C7.97251 77.4707 8.92537 78.2132 9.73797 77.6662C11.7594 76.3055 13.7653 74.9515 15.8869 73.7497C17.8394 72.6426 19.99 72.3078 22.0337 71.6116C19.7584 76.8327 19.4423 83.595 19.587 88.6369C19.6115 89.4822 20.6712 90.3257 21.4638 89.7142C27.0473 85.4181 33.0694 83.1838 39.3942 81.1171C38.5304 85.0583 39.4966 90.2594 40.543 92.986C40.8324 93.7367 41.6717 94.229 42.4376 93.7567C45.3718 91.9451 48.1769 89.9428 51.0288 88.0086C52.251 87.18 53.5044 86.3977 54.7288 85.5806C54.7556 86.7922 54.8491 87.9556 54.8869 88.8673C55.0205 92.0777 55.891 94.955 57.928 97.4544C58.4779 98.1289 59.5844 98.0014 60.1543 97.4544C63.4937 94.2472 66.2988 90.1367 69.705 86.8817C72.4968 90.3424 76.1345 93.223 78.4676 97.0516C78.8305 97.6433 79.7745 98.0295 80.3956 97.5555C84.1847 94.6533 85.2578 88.2506 84.4296 83.1126C86.5936 83.5253 88.7642 83.9198 90.8836 84.563C95.2026 85.8738 99.2344 88.0171 103.028 90.4301C104.126 91.1312 105.228 89.9875 105.032 88.8886C104.279 84.6507 102.585 79.8043 99.7219 76.1581C105.334 75.3077 110.98 75.1652 116.811 74.6182C117.773 74.5287 118.302 73.8078 118.149 72.863C117.138 66.6842 112.915 59.5372 107.53 55.2727C112.236 53.0317 116.312 50.3916 121.847 49.717C122.891 49.5892 123.581 48.4158 122.739 47.5591Z" fill="#554949"/>
<path d="M63.075 68.1675C63.0079 68.423 62.5194 70.4699 62.5031 71.7112C60.653 71.6117 58.8091 71.3399 56.9956 70.9223C57.02 69.8068 56.8328 68.6184 56.7453 67.6323C56.6577 66.6378 55.1374 65.925 54.6347 67.0605C54.307 67.7947 53.9264 68.9715 53.8572 70.0488C52.3755 69.5682 50.9203 69.0128 49.5139 68.3766C49.3368 68.297 49.1719 68.204 48.9969 68.1179C49.005 67.6951 48.9623 67.261 48.9664 66.8533C48.9765 65.781 48.9155 64.7501 48.657 63.7074C48.4514 62.8705 47.2425 62.9153 47.0145 63.7074C46.7764 64.5229 46.3225 65.5225 46.2269 66.4687C44.0796 64.9672 42.1868 63.1837 40.1617 61.5296C37.8272 59.6268 38.566 58.3407 39.7282 57.1059C40.408 56.3799 41.0898 55.6755 41.7859 54.9927C42.0871 55.6706 42.4758 56.3219 42.8116 56.9634C43.2431 57.7855 44.6108 57.618 44.8083 56.7031C45.0668 55.5298 44.9487 54.4077 44.7716 53.2309C44.7309 52.9541 44.7045 52.6706 44.6699 52.3971C45.7628 51.5138 46.9331 50.6817 48.2377 49.911C48.4759 49.7685 48.7262 49.6492 48.9684 49.5149C49.3002 50.3817 49.7907 51.217 50.1957 51.9977C50.7412 53.0435 52.1781 52.4602 52.2554 51.4409C52.3165 50.6321 52.2778 49.8265 52.2432 49.0177C52.2289 48.6761 52.2554 48.3165 52.2717 47.9552C54.0139 47.2724 55.8233 46.7552 57.6591 46.3807C57.8138 47.2176 58.1333 48.0548 58.4488 48.8137C58.9047 49.916 60.2236 49.9061 60.6815 48.8137C61.0764 47.8807 61.2697 46.8348 61.4346 45.8155C62.3871 45.7227 63.3376 45.6515 64.286 45.625C65.3627 45.5967 66.4394 45.6431 67.5079 45.7343C67.341 46.7719 67.6036 47.9587 67.8417 48.9181C68.0961 49.9458 69.6429 49.9358 69.9034 48.9181C70.1192 48.0696 70.4754 47.1132 70.6769 46.1735C72.5371 46.5316 74.3607 47.0569 76.1274 47.7348C75.7773 48.7193 75.9157 50.0569 75.9605 50.9302C76.0113 51.8982 77.489 52.5165 77.9571 51.4706C78.238 50.8458 78.4944 50.2144 78.759 49.5829C78.8404 49.3889 78.93 49.1949 79.0256 49.0012C79.1091 49.0443 79.1966 49.0789 79.28 49.1221C80.5867 49.7833 81.7794 50.5857 82.911 51.4673C82.3045 52.4982 82.2129 54.091 82.1783 55.137C82.1355 56.3352 83.6254 56.5027 84.2319 55.6938C84.7 55.0639 85.1193 54.3827 85.5101 53.6866C86.4382 54.5337 87.3561 55.3987 88.2882 56.2458C89.8473 57.6579 90.6919 59.8955 88.3432 62.0136C86.7089 63.4888 84.985 64.8197 83.1776 65.9898C83.0718 65.761 82.966 65.5406 82.8825 65.345C82.5548 64.5793 82.046 63.9362 81.3377 63.4969C80.721 63.1125 79.9028 63.6097 79.9069 64.3174C79.911 65.0865 79.9151 65.8589 79.8906 66.6278C79.8764 67.0206 79.7929 67.4898 79.7909 67.9355C78.1077 68.7907 76.3614 69.52 74.5541 70.1003C74.3465 69.23 74.0982 68.3747 73.6077 67.6107C73.0663 66.7687 71.6009 67.0455 71.6456 68.1427C71.6701 68.7692 71.6538 69.394 71.5561 70.0156C71.5113 70.3056 71.4401 70.6256 71.4096 70.9455C69.6063 71.3416 67.7501 71.5919 65.841 71.6963C65.7759 71.4096 65.6985 71.1244 65.6232 70.8427C65.379 69.9344 65.0533 69.0511 64.7256 68.1675C64.4468 67.4151 63.3009 67.2909 63.075 68.1675ZM90.5454 62.5308C92.4504 59.6667 92.3914 57.7523 90.5291 54.885C84.9504 46.2979 74.5113 42.315 64.286 42.277C55.2534 42.2405 43.6807 46.4884 38.7309 54.7773C36.1847 59.0401 36.4045 60.1688 38.3849 63.603C42.9358 71.4975 55.2839 75.0609 63.3376 75.4189C73.9272 75.8913 84.696 71.3151 90.5454 62.5308Z" fill="white"/>
<path d="M101.976 47.2725C102.548 47.1597 103.123 47.0587 103.704 47.0056C104.15 46.9642 104.799 47.1747 105.107 46.7968C105.143 46.752 105.156 46.699 105.126 46.6459C104.888 46.2066 104.262 46.3427 103.837 46.4156C103.134 46.5365 102.525 46.7736 101.933 47.1713C101.878 47.2062 101.912 47.2839 101.976 47.2725Z" fill="white"/>
<path d="M106.013 48.5918C106.059 48.5486 106.061 48.4774 106.034 48.4227C105.877 48.1176 105.546 48.164 105.237 48.1409C104.718 48.0994 104.231 48.1756 103.735 48.3282C103.697 48.3399 103.697 48.3928 103.735 48.4045C104.178 48.5403 104.601 48.6017 105.059 48.6496C105.396 48.6846 105.744 48.8386 106.013 48.5918Z" fill="white"/>
<path d="M102.796 64.1829C103.245 64.3056 103.861 64.7182 104.31 64.5228C104.35 64.5061 104.375 64.4416 104.361 64.4018C104.169 63.9145 103.372 63.8498 102.918 63.7387C102.218 63.5681 101.508 63.457 100.797 63.5995C100.73 63.6128 100.732 63.7155 100.797 63.7304C101.459 63.893 102.134 64.0005 102.796 64.1829Z" fill="white"/>
<path d="M104.792 65.9336C104.847 65.9203 104.881 65.8573 104.864 65.8058C104.604 64.9988 103.267 65.0566 102.596 65.1164C102.524 65.1215 102.48 65.2258 102.558 65.264C102.921 65.4513 103.291 65.5887 103.681 65.7197C104.049 65.844 104.397 66.0279 104.792 65.9336Z" fill="white"/>
<path d="M96.1517 76.904C96.1846 76.8657 96.2011 76.8325 96.2196 76.7878C96.2649 76.6785 96.1908 76.5476 96.0982 76.4912C95.4353 76.0718 94.8362 75.6692 94.0745 75.4602C94.0024 75.4421 93.9633 75.5399 94.0251 75.578C94.6612 75.9691 95.2068 76.5276 95.8347 76.9453C95.9252 77.0048 96.0817 76.99 96.1517 76.904Z" fill="white"/>
<path d="M96.3503 78.5631C96.4224 78.5565 96.4677 78.4984 96.4553 78.4255C96.3379 77.8303 95.4707 77.4591 95.0484 77.078C94.9227 76.9635 94.758 77.1061 94.8239 77.2521C95.0546 77.7724 95.7261 78.616 96.3503 78.5631Z" fill="white"/>
<path d="M76.5263 80.5567C76.4602 80.4821 76.3591 80.5633 76.3747 80.6463C76.4582 81.102 76.641 81.528 76.7635 81.9755C76.884 82.4296 76.8548 82.98 77.0745 83.391C77.1328 83.502 77.3253 83.5119 77.3817 83.391C77.578 82.9701 77.3914 82.4496 77.2689 82.0235C77.1231 81.5064 76.886 80.9595 76.5263 80.5567Z" fill="white"/>
<path d="M76.0015 84.7882C76.3462 84.5662 76.3152 84.1518 76.3036 83.7822C76.292 83.328 76.232 82.7911 75.9163 82.4446C75.835 82.3584 75.7033 82.4297 75.6975 82.5341C75.6801 82.9485 75.773 83.3662 75.7672 83.7822C75.7633 84.122 75.651 84.4584 75.8679 84.7518C75.8969 84.7948 75.9531 84.8197 76.0015 84.7882Z" fill="white"/>
<path d="M61.799 81.4403C61.455 81.9691 61.2664 82.6702 61.1462 83.2818C61.1166 83.4359 61.1702 83.5454 61.2923 83.638C61.3829 83.7078 61.4236 83.7011 61.5346 83.6697C61.6363 83.6414 61.7306 83.5568 61.7565 83.4509C61.8971 82.8209 62.1652 82.125 62.069 81.4767C62.0469 81.3393 61.8601 81.346 61.799 81.4403Z" fill="white"/>
<path d="M62.7377 82.7082C62.4188 83.0662 62.3075 83.4325 62.224 83.905C62.1573 84.2944 62.0164 84.7767 62.2185 85.138C62.2519 85.201 62.3372 85.2077 62.3854 85.1595C62.6339 84.9258 62.6264 84.6143 62.6598 84.2911C62.7118 83.8021 62.7989 83.2949 62.9324 82.8209C62.9621 82.7132 62.8175 82.6188 62.7377 82.7082Z" fill="white"/>
<path d="M47.0752 79.4995C46.5494 79.7649 46.1924 80.1825 45.846 80.6499C45.5137 81.0989 45.1392 81.7156 45.0935 82.279C45.0688 82.5674 45.4381 82.589 45.5752 82.41C45.8988 81.9873 46.0782 81.4105 46.3542 80.9465C46.6215 80.5006 46.9433 80.088 47.2404 79.6636C47.3143 79.556 47.1754 79.4498 47.0752 79.4995Z" fill="white"/>
<path d="M47.3762 81.4058C47.6247 81.0279 47.8521 80.6979 47.9861 80.2637C48.009 80.1908 47.9208 80.1227 47.8574 80.1642C47.3462 80.4991 46.4984 81.2466 46.6588 81.9245C46.6694 81.9725 46.7311 82.0123 46.7804 81.9924C47.0959 81.8715 47.1911 81.6841 47.3762 81.4058Z" fill="white"/>
<path d="M31.3502 74.4327C31.2763 74.4742 31.2041 74.5736 31.2159 74.6648C31.2343 74.8039 31.2394 74.8138 31.3502 74.8985C31.4241 74.9532 31.55 74.945 31.6222 74.8985C32.512 74.3432 33.5043 73.8179 34.3135 73.1549C34.3656 73.1117 34.3219 73.0206 34.2615 73.0239C33.197 73.0968 32.24 73.9156 31.3502 74.4327Z" fill="white"/>
<path d="M34.1354 74.2833C33.5682 74.2237 32.4622 75.0623 32.6284 75.6789C32.6435 75.7336 32.7056 75.7702 32.761 75.7536C33.0748 75.6591 33.2325 75.3674 33.4574 75.1469C33.7024 74.9066 34.0498 74.7292 34.2126 74.4209C34.2496 74.3546 34.2026 74.29 34.1354 74.2833Z" fill="white"/>
<path d="M27.4183 59.6268C27.4614 59.5887 27.4232 59.5323 27.3768 59.5257C26.4023 59.3964 25.3829 60.2633 24.7316 60.8931C24.4382 61.1748 24.8874 61.624 25.1757 61.3373C25.5205 60.9975 25.8885 60.6809 26.2846 60.4025C26.6575 60.1373 27.0785 59.9367 27.4183 59.6268Z" fill="white"/>
<path d="M26.5034 61.7831C26.515 61.8461 26.5863 61.871 26.641 61.861C26.9078 61.8146 27.0868 61.5726 27.2691 61.3886C27.463 61.1947 27.7034 61.0174 27.8558 60.7903C27.894 60.7306 27.8559 60.6411 27.7879 60.6262C27.2575 60.5135 26.4122 61.2328 26.5034 61.7831Z" fill="white"/>
<path d="M28.2501 42.1406C27.8847 42.3263 28.2086 42.8848 28.5706 42.6909C29.4308 42.2268 30.5651 42.3362 31.3556 41.7809C31.3938 41.7545 31.3855 41.703 31.344 41.6864C30.4273 41.3351 29.0871 41.7113 28.2501 42.1406Z" fill="white"/>
<path d="M29.8269 44.0034C29.8053 44.0947 29.8983 44.1609 29.9798 44.1212C30.2389 43.987 30.4101 43.8345 30.6493 43.667C30.9118 43.4831 31.2142 43.3555 31.4834 43.1832C31.5166 43.1616 31.5183 43.0953 31.4718 43.0886C30.8022 42.9974 30.003 43.3124 29.8269 44.0034Z" fill="white"/>
<path d="M97.1263 51.5004C97.0847 51.5301 97.0847 51.6046 97.143 51.6163C97.5926 51.7141 98.086 51.5996 98.5439 51.5832C98.9769 51.5682 99.5744 51.7372 99.9387 51.4837C100.003 51.4373 100.009 51.3628 99.9595 51.303C99.6576 50.925 98.9769 51.0395 98.5439 51.0859C98.0776 51.134 97.5198 51.2285 97.1263 51.5004Z" fill="white"/>
<path d="M113.674 47.5522C112.795 47.3037 111.744 47.6085 110.917 47.9434C110.875 47.96 110.875 48.0328 110.93 48.0296C111.813 47.975 112.983 48.3527 113.717 47.7131C113.772 47.6633 113.739 47.5704 113.674 47.5522Z" fill="white"/>
<path d="M108.221 43.956C109.276 43.7571 110.376 43.82 111.437 43.8217C111.528 43.8217 111.553 43.7057 111.48 43.6592C110.475 43.0046 109.162 43.2814 108.181 43.8615C108.127 43.8912 108.165 43.9676 108.221 43.956Z" fill="white"/>
<path d="M106.338 59.6601C106.418 59.6501 106.488 59.5674 106.437 59.4845C106.153 59.037 105.584 58.9458 105.092 58.8364C104.475 58.7004 103.855 58.7916 103.259 58.969C103.185 58.9906 103.2 59.1015 103.278 59.1015C103.849 59.1066 104.401 59.1993 104.961 59.3154C105.427 59.4132 105.856 59.7148 106.338 59.6601Z" fill="white"/>
<path d="M109.636 70.5212C108.77 70.1979 107.937 70.0768 107.02 70.0438C106.97 70.0421 106.968 70.1083 107.007 70.1233C107.834 70.4316 108.682 70.6819 109.503 71.005C109.803 71.1243 109.938 70.6337 109.636 70.5212Z" fill="white"/>
<path d="M110.33 66.7006C109.969 66.5563 109.618 66.452 109.229 66.4105C109.119 66.3989 109.098 66.5531 109.175 66.6045C109.491 66.8035 109.803 66.9955 110.13 67.1764C110.45 67.3504 110.769 67.5923 111.136 67.5029C111.235 67.4796 111.259 67.3736 111.222 67.2923C111.074 66.9542 110.659 66.8331 110.33 66.7006Z" fill="white"/>
<path d="M99.1956 70.2575C98.62 69.5464 97.8574 69.1221 97.0075 68.8253C96.9264 68.7973 96.8911 68.9132 96.9534 68.9565C97.6205 69.4122 98.3311 69.8995 98.8257 70.5426C99.0335 70.8127 99.4096 70.5226 99.1956 70.2575Z" fill="white"/>
<path d="M90.0396 77.3597C89.6181 76.9187 89.1905 76.4995 88.6961 76.1382C88.6353 76.095 88.5502 76.1811 88.5928 76.2409C88.9494 76.7398 89.3223 77.217 89.7174 77.6813C90.0011 78.0144 90.3881 78.6874 90.8684 78.7088C90.9352 78.7105 90.994 78.6509 90.992 78.5844C90.9798 78.1155 90.3395 77.6762 90.0396 77.3597Z" fill="white"/>
<path d="M86.6984 78.5033C86.6021 78.399 86.4696 78.5298 86.5178 78.6426C86.6723 79.0006 86.8389 79.3504 87.0115 79.7016C87.1439 79.9751 87.2764 80.2868 87.5553 80.4261C87.6597 80.4772 87.8062 80.4144 87.8021 80.2834C87.7901 79.9651 87.5774 79.7315 87.4168 79.4646C87.2101 79.1216 86.9713 78.7967 86.6984 78.5033Z" fill="white"/>
<path d="M80.7236 84.8413C80.6902 84.7733 80.5958 84.823 80.6076 84.8911C80.7236 85.4861 80.6883 86.1392 80.6529 86.7407C80.6312 87.155 80.4818 87.6722 80.7669 88.0071C80.8023 88.0486 80.877 88.0468 80.9144 88.0071C81.2251 87.6539 81.0973 86.9861 81.0933 86.5401C81.0894 85.9221 81.0127 85.39 80.7236 84.8413Z" fill="white"/>
<path d="M78.8603 88.2407C78.8172 88.1776 78.7116 88.2158 78.7351 88.2921C78.8681 88.7246 78.9307 89.187 79.0012 89.633C79.054 89.9827 78.9523 90.4732 79.2497 90.7135C79.2869 90.7466 79.3339 90.7484 79.371 90.7135C79.6665 90.4617 79.5139 90.0324 79.465 89.6909C79.3847 89.1455 79.1597 88.6898 78.8603 88.2407Z" fill="white"/>
<path d="M96.5878 82.3901C96.1767 82.1663 95.751 82.0303 95.2882 81.9706C95.1084 81.9475 95.032 82.2409 95.1952 82.3122C95.6229 82.4994 96.032 82.738 96.4391 82.9668C96.7387 83.1358 97.0031 83.3994 97.3668 83.3215C97.4515 83.3017 97.4887 83.2104 97.4742 83.1341C97.3936 82.7314 96.9122 82.564 96.5878 82.3901Z" fill="white"/>
<path d="M61.3488 89.3993C61.0128 89.9131 60.8652 90.5546 60.7433 91.1479C60.6824 91.4512 60.3483 92.2519 60.7175 92.4606C61.1014 92.6794 61.1845 91.7745 61.2122 91.617C61.3377 90.9109 61.4762 90.2048 61.5814 89.4972C61.6036 89.3578 61.4337 89.2718 61.3488 89.3993Z" fill="white"/>
<path d="M59.8743 87.0259C59.4317 87.5745 58.98 88.4596 59.2095 89.1805C59.2775 89.3959 59.5584 89.3827 59.6319 89.1805C59.7457 88.8639 59.7421 88.5044 59.7935 88.1713C59.8449 87.8115 59.9294 87.4584 60.0065 87.1038C60.023 87.0325 59.9294 86.9596 59.8743 87.0259Z" fill="white"/>
<path d="M56.2997 78.5231C55.964 78.8049 55.7626 79.1828 55.5812 79.5773C55.407 79.9585 55.1838 80.5004 55.2818 80.9215C55.2981 80.9959 55.3707 81.0772 55.4505 81.0888C55.4705 81.0921 55.4941 81.0988 55.514 81.0988C55.5939 81.0921 55.6864 81.0573 55.7209 80.9794C55.886 80.6082 55.9259 80.169 56.0602 79.7795C56.1981 79.3917 56.336 79.0055 56.4449 78.6076C56.4703 78.5182 56.3632 78.4684 56.2997 78.5231Z" fill="white"/>
<path d="M68.2948 80.078C68.2589 80.0464 68.2115 80.0697 68.2059 80.1143C68.151 80.6249 68.3667 81.1966 68.4349 81.7055C68.4954 82.1631 68.3856 82.7132 68.6922 83.0778C68.7263 83.121 68.8095 83.1225 68.8436 83.0778C69.1596 82.6818 68.9742 82.1133 68.9061 81.6409C68.8323 81.1353 68.6922 80.4343 68.2948 80.078Z" fill="white"/>
<path d="M73.3894 81.5281C73.5525 80.8552 73.2128 79.8243 72.5545 79.526C72.4585 79.4811 72.376 79.5873 72.4431 79.6685C72.9172 80.2354 72.8059 80.8752 72.9882 81.5281C73.0439 81.722 73.3395 81.7304 73.3894 81.5281Z" fill="white"/>
<path d="M80.5081 76.5063C80.4647 76.4879 80.443 76.5543 80.4785 76.5792C81.1814 77.0846 81.4242 77.9995 82.0343 78.5764C82.2297 78.762 82.514 78.53 82.3975 78.2962C82.0165 77.5322 81.2978 76.8212 80.5081 76.5063Z" fill="white"/>
<path d="M92.4343 71.6713C91.9261 71.4658 91.4199 71.3332 90.8689 71.3564C90.7872 71.3615 90.7423 71.4791 90.824 71.5205C91.2852 71.7493 91.7669 71.9348 92.224 72.1703C92.5608 72.3426 92.8873 72.6377 93.2792 72.5763C93.3465 72.5647 93.369 72.4902 93.3588 72.4338C93.2914 72.0177 92.7873 71.814 92.4343 71.6713Z" fill="white"/>
<path d="M98.4634 66.2001C98.7752 66.3543 99.0911 66.6177 99.4362 66.4587C99.4902 66.4339 99.5069 66.3643 99.4944 66.3096C99.4154 65.9448 98.9706 65.8602 98.6588 65.7359C98.1766 65.5403 97.6735 65.4096 97.1705 65.2786C97.1144 65.2637 97.0936 65.335 97.1352 65.3664C97.5509 65.6862 97.9895 65.9664 98.4634 66.2001Z" fill="white"/>
<path d="M100.899 60.0311C101.009 60.0361 101.085 59.9018 101.024 59.8091C100.525 59.0417 99.0861 58.9987 98.3259 59.3334C98.2779 59.3549 98.3051 59.4195 98.3489 59.423C98.7916 59.4543 99.2176 59.4875 99.6499 59.6084C100.074 59.7279 100.46 60.0113 100.899 60.0311Z" fill="white"/>
<path d="M96.2771 47.594C96.2108 47.6222 96.2626 47.7132 96.3226 47.7033C96.9022 47.6039 97.4653 47.8757 98.0346 47.7381C98.105 47.7199 98.1236 47.6288 98.076 47.5774C97.5895 47.0703 96.8319 47.3586 96.2771 47.594Z" fill="white"/>
<path d="M98.8326 43.994C99.2529 44.0935 99.6774 43.9842 100.1 43.9196C100.564 43.8499 101.043 43.8964 101.459 43.6542C101.524 43.6178 101.528 43.5133 101.459 43.4752C101.097 43.2797 100.761 43.3328 100.361 43.3924C99.8405 43.4685 99.2466 43.5118 98.8117 43.8267C98.7511 43.8698 98.749 43.9741 98.8326 43.994Z" fill="white"/>
<path d="M48.0808 84.9208C47.8037 85.2573 47.5971 85.6285 47.403 86.0163C47.2353 86.3561 46.9864 86.7888 46.9758 87.1717C46.9669 87.4285 47.2812 87.4583 47.4118 87.291C47.6254 87.0142 47.7136 86.5981 47.8513 86.2799C48.0155 85.897 48.1673 85.5042 48.3509 85.1296C48.4303 84.9655 48.2114 84.7633 48.0808 84.9208Z" fill="white"/>
<path d="M45.3964 85.9816C44.886 86.4641 44.4734 86.9712 44.3388 87.6839C44.2654 88.0683 44.7881 88.2127 44.9209 87.8447C45.1359 87.2579 45.3702 86.6779 45.5904 86.0944C45.6341 85.9785 45.4768 85.9072 45.3964 85.9816Z" fill="white"/>
<path d="M43.547 77.4575C43.0521 77.7857 42.6248 78.2912 42.6787 78.9227C42.703 79.1896 43.1059 79.2839 43.1719 78.9906C43.2796 78.4984 43.4584 78.061 43.7172 77.6266C43.778 77.524 43.6529 77.388 43.547 77.4575Z" fill="white"/>
<path d="M36.4433 77.1278C35.8001 77.3233 34.8505 78.0327 34.9723 78.7917C34.9859 78.8913 35.1061 78.9128 35.1822 78.8781C35.5106 78.7239 35.6528 78.3924 35.8661 78.1155C36.0878 77.8289 36.3333 77.562 36.5567 77.2735C36.6109 77.2023 36.5212 77.1046 36.4433 77.1278Z" fill="white"/>
<path d="M30.1529 80.3497C29.3805 80.5652 28.4838 81.3293 28.2733 82.1281C28.2286 82.3005 28.3545 82.4348 28.502 82.4646C28.4904 82.4663 28.4805 82.4696 28.4689 82.4729C28.4921 82.4812 28.517 82.4745 28.5418 82.4745C28.5584 82.4745 28.575 82.4779 28.5916 82.4745C28.6496 82.4629 28.7059 82.4397 28.7424 82.4016C29.0241 82.1132 29.2081 81.7221 29.4567 81.4022C29.6954 81.0939 29.9656 80.7873 30.2573 80.5287C30.3401 80.4558 30.2523 80.3215 30.1529 80.3497Z" fill="white"/>
<path d="M27.7512 78.3276C27.2705 78.6707 26.4998 79.1116 26.4949 79.7729C26.4949 79.8442 26.5711 79.9121 26.6424 79.8856C27.2042 79.6701 27.5523 78.9326 27.8871 78.4635C27.9451 78.384 27.8308 78.2696 27.7512 78.3276Z" fill="white"/>
<path d="M24.1893 82.7911C23.8545 83.0993 23.528 83.3546 23.2495 83.7242C23.0357 84.0076 22.7407 84.3341 22.739 84.7037C22.739 84.8131 22.8484 84.8562 22.9379 84.8181C23.2396 84.6855 23.3771 84.3524 23.5495 84.0888C23.8014 83.7043 23.9771 83.2286 24.2738 82.8756C24.3235 82.8176 24.2456 82.7397 24.1893 82.7911Z" fill="white"/>
<path d="M28.4574 72.7189C27.9734 72.8614 27.5574 73.1233 27.153 73.4216C26.8115 73.6735 26.2729 73.9619 26.127 74.378C26.0723 74.5321 26.2132 74.6978 26.369 74.6962C26.7833 74.6912 27.1347 74.2404 27.4099 73.9719C27.7861 73.6089 28.1408 73.2012 28.5419 72.8647C28.6115 72.8067 28.5369 72.694 28.4574 72.7189Z" fill="white"/>
<path d="M31.4844 68.3165C31.3639 68.4657 31.4225 68.7625 31.6603 68.7409C32.377 68.6762 33.0368 67.9602 33.6112 67.5857C33.6581 67.5557 33.6463 67.468 33.5827 67.4747C33.2176 67.5144 32.8827 67.5807 32.5445 67.7331C32.2129 67.8823 31.7206 68.0281 31.4844 68.3165Z" fill="white"/>
<path d="M28.0147 67.2228C28.3727 66.9129 28.7954 66.6543 29.1882 66.3925C29.2363 66.361 29.218 66.2914 29.1617 66.2897C28.6611 66.2648 28.2236 66.4223 27.8009 66.6809C27.4413 66.903 26.9225 67.2411 26.9258 67.7035C26.9275 67.8344 27.0501 67.919 27.1727 67.8924C27.5225 67.8112 27.7495 67.4516 28.0147 67.2228Z" fill="white"/>
<path d="M21.6402 67.4615C21.1828 67.6571 20.7436 67.8278 20.3325 68.1162C20.006 68.3449 19.5651 68.6035 19.5071 69.0278C19.4955 69.1074 19.5419 69.2151 19.6414 69.2035C20.0226 69.1604 20.2463 68.8836 20.5215 68.6366C20.9043 68.2902 21.2855 67.8809 21.7231 67.6074C21.8176 67.5477 21.7364 67.4201 21.6402 67.4615Z" fill="white"/>
<path d="M14.9261 69.2565C14.4985 69.5714 13.756 69.8747 13.5753 70.3935C13.5504 70.4698 13.6184 70.541 13.6913 70.5443C14.1919 70.5675 14.6559 70.0322 15.0305 69.7322C15.6023 69.2764 16.1294 68.7958 16.6349 68.267C16.6946 68.2057 16.6183 68.1029 16.5438 68.1477C15.9819 68.4908 15.4548 68.8654 14.9261 69.2565Z" fill="white"/>
<path d="M15.6638 64.4085C15.6041 64.6041 15.8461 64.8162 16.0267 64.6869C16.5505 64.309 16.9035 63.6875 17.4621 63.3361C17.5218 63.2997 17.4803 63.2168 17.4157 63.2267C16.7345 63.3345 15.8859 63.6792 15.6638 64.4085Z" fill="white"/>
<path d="M21.821 63.4025C21.3055 63.661 20.452 63.855 20.1536 64.3754C20.0857 64.4931 20.1686 64.687 20.321 64.6688C20.9045 64.6058 21.6055 63.9793 21.9022 63.4837C21.9354 63.4307 21.8724 63.3776 21.821 63.4025Z" fill="white"/>
<path d="M20.7951 57.3164C20.2846 57.5965 19.6879 57.9131 19.3018 58.3539C19.1228 58.5595 19.3465 58.8561 19.5918 58.7302C20.1006 58.4683 20.5713 58.0655 21.0387 57.7357C21.5128 57.3993 21.9636 57.0794 22.3945 56.6899C22.4293 56.6567 22.3945 56.5937 22.3481 56.6103C21.8028 56.8042 21.3039 57.0379 20.7951 57.3164Z" fill="white"/>
<path d="M21.5922 53.544C21.554 53.6103 21.6021 53.6998 21.6817 53.6998C22.1176 53.6915 22.5071 53.3915 22.8816 53.1927C23.4286 52.9009 24.0137 52.6954 24.5888 52.4667C24.6518 52.4402 24.6485 52.3407 24.5706 52.3407C23.9871 52.3358 23.4485 52.5015 22.9098 52.7137C22.4524 52.8943 21.8458 53.0982 21.5922 53.544Z" fill="white"/>
<path d="M26.9507 55.775C27.2473 55.8131 27.5009 55.5976 27.7678 55.4849C28.086 55.3507 28.3877 55.1849 28.6827 55.0092C28.7341 54.9794 28.7175 54.8833 28.6512 54.8899C28.1125 54.9446 27.0186 54.9877 26.8164 55.5993C26.7849 55.6937 26.8678 55.7634 26.9507 55.775Z" fill="white"/>
<path d="M27.8358 49.2016C28.1938 49.1087 28.58 48.9844 28.8833 48.7723C28.9811 48.7027 28.9512 48.5419 28.8219 48.5419C28.386 48.5369 26.9374 48.5087 26.8032 49.0524C26.7767 49.1634 26.8214 49.2712 26.9176 49.3325C27.1728 49.4933 27.5722 49.2679 27.8358 49.2016Z" fill="white"/>
<path d="M24.1081 45.5005C24.6351 45.3696 25.2302 45.1541 25.6594 44.8226C25.729 44.7679 25.6661 44.6602 25.5915 44.6586C25.0561 44.6453 24.4644 44.7795 23.9556 44.9469C23.6042 45.063 23.7468 45.59 24.1081 45.5005Z" fill="white"/>
<path d="M16.5088 44.7962C16.1043 45.0133 15.259 45.3332 15.1148 45.8188C15.0602 46.0094 15.2425 46.1702 15.4248 46.1287C15.8839 46.0293 16.3115 45.6332 16.7076 45.3846C17.4485 44.9205 18.2424 44.5757 19.0148 44.1647C19.106 44.1166 19.0629 43.9708 18.9618 43.9724C18.0734 43.984 17.2745 44.3868 16.5088 44.7962Z" fill="white"/>
<path d="M22.1575 40.1403C22.5818 40.0707 23.0161 40.0558 23.4155 39.8851C23.4603 39.8652 23.4603 39.7856 23.4155 39.7674C22.8752 39.5387 21.5625 39.3365 21.2045 39.9149C21.1564 39.9912 21.1896 40.0873 21.2609 40.132C21.5526 40.3193 21.831 40.195 22.1575 40.1403Z" fill="white"/>
<path d="M29.1802 37.0045C29.2481 36.9764 29.2481 36.857 29.1619 36.8637C28.6431 36.9067 28.1293 36.9432 27.6122 37.0078C27.2724 37.0493 26.6874 37.041 26.525 37.3957C26.5067 37.4355 26.5051 37.4835 26.5399 37.5167C26.8299 37.7885 27.3354 37.5614 27.6785 37.4918C28.1973 37.3891 28.6929 37.2051 29.1802 37.0045Z" fill="white"/>
<path d="M28.8402 33.7725C28.9081 33.7477 28.9015 33.6349 28.8219 33.6383C27.9484 33.6863 26.9424 33.7642 26.228 34.3095C26.165 34.3559 26.1733 34.4819 26.2711 34.4736C27.1396 34.3974 28.0197 34.0593 28.8402 33.7725Z" fill="white"/>
<path d="M31.5691 49.6226C32.0055 49.4784 32.2707 49.0558 32.6097 48.7574C33.0713 48.348 33.6235 48.0645 34.1505 47.748C34.2764 47.6735 34.1874 47.511 34.0598 47.5293C33.4506 47.6154 32.9252 47.9155 32.4419 48.28C32.029 48.5917 31.4969 48.9712 31.4281 49.5148C31.4214 49.5862 31.507 49.6441 31.5691 49.6226Z" fill="white"/>
<path d="M31.5901 59.8177C31.9238 59.5126 32.2859 59.2293 32.6297 58.9357C32.7098 58.8678 32.6247 58.7452 32.5329 58.7685C31.7019 58.9871 30.6555 59.6635 30.4236 60.5369C30.4002 60.623 30.4937 60.6926 30.5704 60.6496C30.9626 60.4341 31.2613 60.1176 31.5901 59.8177Z" fill="white"/>
<path d="M40.2316 73.9123C40.0488 74.0996 39.3657 74.6052 39.5554 74.9283C39.7728 75.3012 40.2903 74.5836 40.4059 74.4543C40.875 73.9273 41.3546 73.4119 41.8013 72.8649C41.8652 72.7869 41.7875 72.6841 41.6961 72.7272C41.1234 72.9941 40.6629 73.4648 40.2316 73.9123Z" fill="white"/>
<path d="M37.6123 71.1926C37.3923 71.4611 37.1108 71.7992 37.208 72.1556C37.2234 72.2119 37.2916 72.2583 37.3496 72.2351C37.6464 72.1274 37.713 71.8854 37.8784 71.6252C38.1326 71.2289 38.3971 70.8081 38.7195 70.465C38.7638 70.4152 38.7075 70.3505 38.6512 70.3771C38.2213 70.5694 37.9092 70.8278 37.6123 71.1926Z" fill="white"/>
<path d="M99.7934 39.421C100.357 39.3813 100.918 39.3731 101.482 39.383C102.121 39.3928 102.765 39.5602 103.394 39.421C103.493 39.3994 103.495 39.2685 103.421 39.2172C102.445 38.5708 100.797 38.8027 99.766 39.2105C99.6588 39.2519 99.663 39.4309 99.7934 39.421Z" fill="white"/>
<path d="M97.0191 42.2186C97.1161 42.1887 97.1161 42.0479 97.0191 42.0197C96.0841 41.7412 95.1285 41.9402 94.1832 42.0628C94.1131 42.0727 94.1131 42.1656 94.1832 42.1738C95.1285 42.2964 96.0841 42.4954 97.0191 42.2186Z" fill="white"/>
<path d="M35.8136 37.9513C35.2615 37.8552 34.76 37.8435 34.1961 37.8966C33.769 37.9379 33.2169 38.0176 32.8961 38.3259C32.8319 38.3887 32.8049 38.4899 32.8302 38.5744C32.9349 38.9175 33.4279 38.7153 33.6491 38.6474C34.3498 38.4335 35.096 38.2727 35.8136 38.1285C35.8997 38.1103 35.9031 37.9661 35.8136 37.9513Z" fill="white"/>
<path d="M39.0591 42.2916C38.5772 42.5253 38.1038 42.7441 37.6527 43.0324C37.2117 43.3125 36.6854 43.6126 36.47 44.1097C36.4393 44.1778 36.4888 44.2904 36.5828 44.254C37.0631 44.0667 37.4424 43.6839 37.868 43.4005C38.3226 43.0987 38.7601 42.7955 39.1754 42.4407C39.2608 42.3661 39.1497 42.2468 39.0591 42.2916Z" fill="white"/>
<path d="M33.8865 30.1859C33.6589 30.3004 33.7931 30.6054 34.0053 30.6252C34.5504 30.675 35.1023 30.5159 35.6508 30.4926C36.2027 30.4711 36.7665 30.4843 37.3201 30.5093C37.4338 30.5142 37.4916 30.3352 37.3812 30.2854C36.3623 29.8429 34.9104 29.6723 33.8865 30.1859Z" fill="white"/>
<path d="M41.8717 27.2172C42.0099 27.2719 42.1221 27.0647 42.0168 26.9703C41.176 26.2293 39.6687 25.7868 38.5654 25.9427C38.4567 25.9592 38.467 26.1034 38.5395 26.1549C39.4719 26.8227 40.8151 26.788 41.8717 27.2172Z" fill="white"/>
<path d="M93.1276 37.2115C93.0495 37.2446 93.1091 37.3589 93.1831 37.3425C94.0219 37.17 94.9224 37.3507 95.7366 37.1005C95.8168 37.074 95.8168 36.9627 95.7366 36.9381C94.9039 36.6811 93.9171 36.8766 93.1276 37.2115Z" fill="white"/>
<path d="M94.0228 29.7085C93.2958 29.9721 92.6966 30.3798 92.1097 30.8654C92.0664 30.9002 92.12 30.9682 92.1673 30.94C92.8407 30.5357 93.6521 30.3333 94.3996 30.1014C95.0009 29.914 95.8226 29.8825 96.2983 29.4451C96.3621 29.387 96.323 29.2909 96.253 29.266C95.5755 29.0322 94.655 29.4797 94.0228 29.7085Z" fill="white"/>
<path d="M89.8877 28.1641C90.9404 27.5525 92.0584 27.0967 93.1806 26.6344C93.2499 26.606 93.2499 26.4901 93.1622 26.4934C91.8381 26.5332 90.7466 27.1614 89.7918 28.038C89.7224 28.1011 89.8102 28.2088 89.8877 28.1641Z" fill="white"/>
<path d="M79.4467 25.565C79.2896 25.7358 79.1108 25.9694 79.0519 26.1931C78.9635 26.5114 79.0538 26.5297 79.0715 26.8196C79.0754 26.8925 79.1894 26.9159 79.2051 26.8379C79.2228 26.7385 79.3544 26.5959 79.3957 26.4998C79.49 26.2811 79.6314 26.0821 79.7886 25.9065C80.0754 25.5766 80.5017 25.4639 80.8043 25.1706C80.9281 25.048 80.8298 24.8523 80.6687 24.844C80.1894 24.8159 79.7513 25.2352 79.4467 25.565Z" fill="white"/>
<path d="M104.55 71.1079C104.171 70.8493 103.782 70.6092 103.412 70.3372C103.312 70.2628 103.228 70.4134 103.291 70.493C103.549 70.8195 103.843 71.1261 104.175 71.3747C104.533 71.6401 104.918 72.0229 105.363 72.099C105.483 72.1206 105.61 71.9979 105.532 71.8754C105.308 71.519 104.893 71.34 104.55 71.1079Z" fill="white"/>
<path d="M51.0361 27.1673C51.1234 27.2253 51.2482 27.1076 51.184 27.0199C50.5566 26.1463 49.496 25.49 48.5958 24.9415C48.5049 24.8868 48.389 24.9978 48.4479 25.0889C49.0611 26.0287 50.1145 26.5624 51.0361 27.1673Z" fill="white"/>
<path d="M55.5569 23.7007C55.9892 24.0653 56.4142 24.5459 56.6449 25.0665C56.6685 25.1244 56.7703 25.0963 56.7612 25.0349C56.6849 24.4019 56.5087 23.8813 56.0709 23.389C55.7567 23.0361 55.0992 22.3864 54.5924 22.6267C54.5361 22.6532 54.5234 22.7195 54.5325 22.7742C54.6087 23.2034 55.2518 23.4437 55.5569 23.7007Z" fill="white"/>
<path d="M56.4898 17.6391C56.5044 18.7215 57.1186 19.8335 57.6673 20.7303C57.7019 20.785 57.8021 20.7502 57.7766 20.6838C57.4084 19.6777 57.372 18.4827 56.8817 17.5331C56.7851 17.344 56.4861 17.4352 56.4898 17.6391Z" fill="white"/>
<path d="M60.4102 21.9747C60.4083 22.5961 60.6373 23.1331 60.844 23.7099C61.0397 24.252 61.2151 24.8171 61.4736 25.3309C61.5123 25.4071 61.6305 25.3708 61.6305 25.2895C61.612 24.2121 61.5031 22.6177 60.6077 21.8934C60.5338 21.8321 60.4102 21.8652 60.4102 21.9747Z" fill="white"/>
<path d="M60.5818 16.6898C60.8567 16.9383 61.0911 17.3063 61.1778 17.671C61.2018 17.7755 61.3845 17.7869 61.4011 17.671C61.4656 17.1904 61.4232 16.8422 61.139 16.4296C60.9287 16.1262 60.6076 15.8528 60.2386 16.0037C60.1795 16.0268 60.1482 16.075 60.1611 16.1412C60.2183 16.4396 60.3604 16.4892 60.5818 16.6898Z" fill="white"/>
<path d="M67.9812 26.3274C68.3368 25.4721 68.995 24.4313 68.785 23.4765C68.768 23.4037 68.6621 23.3738 68.611 23.4318C67.9755 24.1661 67.9509 25.3826 67.8563 26.309C67.8488 26.387 67.9566 26.387 67.9812 26.3274Z" fill="white"/>
<path d="M73.0699 22.5155C73.7799 20.9061 74.9761 19.1561 75.1613 17.3859C75.1709 17.2964 75.0416 17.2467 74.9838 17.3113C73.8358 18.6456 73.2397 20.7653 72.96 22.4692C72.9503 22.5306 73.039 22.5819 73.0699 22.5155Z" fill="white"/>
<path d="M77.1322 22.0083C77.5724 21.4928 78.0829 21.042 78.5113 20.515C78.9886 19.9248 79.2663 19.4027 79.505 18.6917C79.5422 18.579 79.3915 18.4961 79.3113 18.579C78.8164 19.0929 78.4448 19.5569 78.0712 20.1768C77.723 20.7603 77.4315 21.3835 77.0579 21.9502C77.0286 21.9967 77.097 22.0513 77.1322 22.0083Z" fill="white"/>
<path d="M78.1622 13.6053C78.5704 13.1875 79.063 12.8097 79.5026 12.4253C79.8009 12.1666 80.5958 11.7109 80.5643 11.265C80.5604 11.2153 80.5369 11.1572 80.4898 11.1357C80.0227 10.9186 79.4712 11.5882 79.1729 11.8698C78.6705 12.3422 78.3427 12.9175 78.064 13.529C78.0346 13.592 78.1092 13.6599 78.1622 13.6053Z" fill="white"/>
<path d="M81.7421 15.3945C82.237 14.758 82.9259 14.3304 83.3258 13.6226C83.3892 13.5134 83.2664 13.3906 83.1575 13.4538C82.4528 13.8531 81.8905 14.5491 81.6213 15.325C81.5995 15.3911 81.6965 15.4527 81.7421 15.3945Z" fill="white"/>
<path d="M89.6337 23.578C89.7165 23.5233 89.664 23.409 89.5711 23.424C88.2026 23.6642 86.9895 24.2941 85.9721 25.2388C85.9116 25.2967 85.9883 25.3912 86.0589 25.3514C87.2297 24.7051 88.5175 24.3238 89.6337 23.578Z" fill="white"/>
<path d="M95.2316 22.8403C96.5708 22.5021 97.9932 22.1458 99.0895 21.2723C99.1476 21.2243 99.0999 21.1165 99.0272 21.1215C97.636 21.2442 96.3507 21.9735 95.1506 22.6497C95.0447 22.7093 95.1174 22.8684 95.2316 22.8403Z" fill="white"/>
<path d="M98.2872 26.1399C99.5329 25.6592 100.758 25.3525 101.876 24.5967C101.957 24.5421 101.905 24.4278 101.811 24.4443C100.458 24.6746 99.3822 25.2713 98.2223 25.9791C98.1385 26.0287 98.1909 26.1763 98.2872 26.1399Z" fill="white"/>
<path d="M108.773 21.8088C108.844 21.7642 108.837 21.6382 108.746 21.62C107.387 21.3266 105.755 21.9846 104.606 22.6807C104.54 22.7189 104.583 22.83 104.658 22.805C105.963 22.3558 107.579 22.5299 108.773 21.8088Z" fill="white"/>
<path d="M42.1349 22.5886C42.2472 22.6052 42.3353 22.456 42.2196 22.393C41.8152 22.1709 41.3833 21.9985 40.9669 21.8062C40.6006 21.6389 40.2757 21.4152 39.8697 21.3654C39.7937 21.3571 39.7488 21.4567 39.7833 21.5145C40.2066 22.2122 41.3833 22.4807 42.1349 22.5886Z" fill="white"/>
<path d="M33.6384 22.3035C34.2692 22.4494 34.8966 22.4759 35.5358 22.5405C35.6032 22.5471 35.6032 22.4526 35.5509 22.4312C34.9607 22.1957 34.3906 21.9804 33.7767 21.8063C33.3888 21.6969 32.7935 21.4068 32.4106 21.609C32.3465 21.6439 32.3347 21.7233 32.3651 21.7847C32.5691 22.1892 33.2488 22.214 33.6384 22.3035Z" fill="white"/>
<path d="M29.9665 20.1778C30.3814 20.1049 30.8064 20.0784 31.2147 19.9756C31.2562 19.9657 31.2562 19.9028 31.2147 19.8928C30.657 19.7535 29.4436 19.5646 29.0552 20.1265C28.9955 20.2127 29.0785 20.3021 29.1631 20.3121C29.427 20.3486 29.7026 20.2226 29.9665 20.1778Z" fill="white"/>
<path d="M51.5156 16.9245C51.571 17.0305 51.7156 16.9525 51.6978 16.8482C51.6031 16.3244 51.446 15.8222 51.2871 15.3133C51.1443 14.8475 51.1032 14.2542 50.7515 13.9013C50.6247 13.7736 50.398 13.8333 50.3516 14.0055C50.223 14.4731 50.5016 14.9322 50.6962 15.3515C50.9443 15.8902 51.2389 16.4022 51.5156 16.9245Z" fill="white"/>
<path d="M54.3784 14.3521C54.4018 14.3769 54.4469 14.3587 54.4451 14.324C54.4235 13.6644 54.0468 13.099 53.6449 12.5968C53.1151 11.9372 52.4519 11.0024 51.6572 10.6577C51.5671 10.6197 51.4733 10.6826 51.4932 10.7853C51.6409 11.4865 52.2591 11.9853 52.7276 12.4892C53.2899 13.0958 53.7945 13.7703 54.3784 14.3521Z" fill="white"/>
<path d="M57.1492 12.3465C57.2202 12.4028 57.3512 12.3281 57.2857 12.2404C56.6942 11.4398 56.3084 10.4802 55.4839 9.8934C55.3966 9.8337 55.2983 9.93161 55.3183 10.0193C55.5476 10.9974 56.3775 11.7465 57.1492 12.3465Z" fill="white"/>
<path d="M49.5092 9.02059C49.5801 9.08033 49.6705 8.9908 49.6102 8.91953C49.0855 8.30454 48.7008 7.46758 47.8073 7.32504C47.708 7.31015 47.6158 7.40287 47.6708 7.50073C48.0874 8.21501 48.91 8.50842 49.5092 9.02059Z" fill="white"/>
<path d="M82.7771 10.2454C82.8347 9.78792 83.1686 9.29231 83.4687 8.96242C83.7966 8.59796 84.2854 8.39406 84.5756 7.9978C84.6213 7.93997 84.5597 7.85372 84.4941 7.85531C83.9218 7.86365 83.411 8.33762 83.0613 8.74859C82.6618 9.22096 82.6082 9.66014 82.64 10.2454C82.6459 10.3348 82.7672 10.3298 82.7771 10.2454Z" fill="white"/>
<path d="M72.0419 29.4118C72.2915 29.1001 72.5393 28.8001 72.7717 28.4736C72.8984 28.2896 73.0175 28.0974 73.1423 27.9119C73.3171 27.6482 73.5476 27.4477 73.6782 27.1609C73.7473 27.0052 73.6052 26.8461 73.4439 26.9257C72.5835 27.3549 72.3492 28.5581 71.9497 29.3388C71.919 29.3968 71.9996 29.4664 72.0419 29.4118Z" fill="white"/>
<path d="M60.7547 29.9238C60.797 29.9538 60.8523 29.8956 60.8265 29.8541C60.5411 29.4133 60.263 28.9741 59.9573 28.5499C59.74 28.2482 59.4031 27.7461 58.9961 27.7194C58.9316 27.7162 58.8727 27.7774 58.8746 27.8387C58.8911 28.235 59.3184 28.578 59.5577 28.8598C59.8984 29.2642 60.3146 29.6254 60.7547 29.9238Z" fill="white"/>
<path d="M40.6137 31.3242C40.5461 31.3459 40.5322 31.4204 40.5738 31.4717C40.8147 31.7668 41.2239 31.7617 41.5792 31.8032C42.1305 31.8663 42.6437 31.79 43.1863 31.7271C43.2677 31.7187 43.2677 31.6109 43.1863 31.601C42.7615 31.5513 42.3385 31.4851 41.9121 31.4402C41.503 31.3972 41.0176 31.2015 40.6137 31.3242Z" fill="white"/>
<path d="M39.872 34.0822C39.9953 34.0656 40.0553 33.8652 39.9045 33.8402C38.9739 33.6846 38.0073 33.3231 37.0664 33.3447C36.9567 33.348 36.9361 33.4789 37.0132 33.5386C37.7879 34.1271 38.9345 34.2066 39.872 34.0822Z" fill="white"/>
<path d="M35.9221 50.6669C36.3737 50.2311 36.7077 49.6577 37.1082 49.1737C37.507 48.6863 37.9484 48.2289 38.4034 47.793C38.4801 47.7217 38.383 47.5958 38.2926 47.6505C37.7354 47.9935 37.2718 48.4162 36.8304 48.8968C36.4027 49.3642 35.9221 49.878 35.6273 50.4399C35.5301 50.6272 35.7653 50.8162 35.9221 50.6669Z" fill="white"/>
<path d="M41.2275 44.2954C41.7956 43.9059 42.3897 43.5743 42.9665 43.1981C43.0272 43.1567 42.9891 43.0473 42.9128 43.0738C42.2616 43.291 41.4804 43.4815 41.0335 44.0467C40.9313 44.1761 41.0647 44.4064 41.2275 44.2954Z" fill="white"/>
<path d="M40.6257 38.763C39.8338 38.9485 39.0453 39.0547 38.2826 39.3579C38.0266 39.4591 38.1211 39.8552 38.4011 39.7806C39.2016 39.5618 39.9059 39.1691 40.6583 38.8425C40.7064 38.8209 40.6721 38.7513 40.6257 38.763Z" fill="white"/>
<path d="M94.9481 68.2323C95.0343 68.2274 95.0897 68.1197 95.0199 68.0551C94.4783 67.548 93.6639 67.1584 92.9336 67.0125C92.8248 66.991 92.753 67.1368 92.8577 67.1932C93.5141 67.5562 94.1562 68.2721 94.9481 68.2323Z" fill="white"/>
<path d="M101.561 56.2123C102.448 56.3516 103.241 56.6798 104.151 56.4825C104.237 56.4644 104.233 56.335 104.151 56.3135C103.302 56.1029 102.448 55.9704 101.58 56.0715C101.506 56.0798 101.472 56.1991 101.561 56.2123Z" fill="white"/>
<path d="M91.6976 45.29C91.7808 45.2518 91.7829 45.1044 91.6976 45.0678C90.7693 44.6685 89.7029 45.0646 88.8133 45.3761C88.7422 45.4011 88.7706 45.512 88.8437 45.4923C89.77 45.2502 90.8038 45.6761 91.6976 45.29Z" fill="white"/>
<path d="M89.9029 40.9341C89.9999 40.8844 89.9454 40.7452 89.8484 40.7402C88.7736 40.6788 87.7251 41.1281 86.7614 41.5606C86.7089 41.5822 86.7352 41.6685 86.7897 41.6651C87.8342 41.5871 88.9575 41.4016 89.9029 40.9341Z" fill="white"/>
<path d="M85.0864 29.7066C85.7183 29.0288 86.7956 28.8398 87.602 28.432C87.6903 28.3888 87.6482 28.2514 87.5539 28.253C86.4867 28.2795 85.4535 28.5746 84.9059 29.5656C84.8437 29.6783 84.9961 29.8043 85.0864 29.7066Z" fill="white"/>
<path d="M117.72 46.8848C117.372 46.6063 116.916 46.5632 116.489 46.4571C115.945 46.3211 115.404 46.2365 114.857 46.1257C114.778 46.1108 114.716 46.2267 114.797 46.2648C115.258 46.4768 115.691 46.6709 116.184 46.8068C116.66 46.9378 117.177 47.1647 117.672 47.0718C117.748 47.0569 117.783 46.936 117.72 46.8848Z" fill="white"/>
<path d="M107.187 40.6576C106.947 40.6841 106.947 41.0023 107.187 41.0306C107.627 41.0835 108.064 41.1283 108.506 41.1665C108.999 41.2096 109.475 41.3753 109.966 41.4499C110.041 41.4615 110.135 41.3834 110.079 41.3041C109.46 40.4355 108.122 40.5465 107.187 40.6576Z" fill="white"/>
<path d="M95.4012 33.9247C95.3701 33.9909 95.4508 34.0656 95.5067 34.0058C95.8252 33.6778 96.1583 33.3729 96.5016 33.071C96.8905 32.7264 97.3787 32.544 97.8007 32.2523C97.8752 32.201 97.8483 32.0866 97.7552 32.0816C96.7002 32.0221 95.8025 33.0578 95.4012 33.9247Z" fill="white"/>
<path d="M52.5657 76.9985C51.824 77.5901 51.2955 78.6393 51.4012 79.6024C51.4227 79.8079 51.7523 79.8957 51.7917 79.6554C51.9458 78.7406 52.1375 77.8669 52.684 77.0913C52.7395 77.015 52.6267 76.9505 52.5657 76.9985Z" fill="white"/>
<path d="M46.3266 77.3547C46.476 77.0381 46.4918 76.6785 46.5639 76.3388C46.6641 75.8747 46.8733 75.4736 47.137 75.0874C47.2389 74.9383 47.0245 74.8091 46.9049 74.9084C46.3336 75.3758 45.8537 76.6238 46.1508 77.3333C46.1807 77.3996 46.2879 77.4393 46.3266 77.3547Z" fill="white"/>
<path d="M86.5751 74.4294C85.9672 73.9769 85.2113 73.9141 84.5075 73.6885C84.4475 73.6687 84.4195 73.7515 84.4675 73.7831C85.0914 74.1958 85.7652 74.5869 86.5331 74.5869C86.6231 74.5869 86.6391 74.4776 86.5751 74.4294Z" fill="white"/>
<path d="M89.5942 35.1251C90.152 35.0521 90.8254 35.0786 91.2696 34.7024C91.3183 34.6626 91.296 34.5963 91.2513 34.5649C90.6895 34.1438 89.9775 34.6079 89.5536 35.0223C89.5191 35.0553 89.5394 35.1316 89.5942 35.1251Z" fill="white"/>
<path d="M22.741 49.4568C22.9067 49.2811 23.1189 49.1617 23.273 48.9811C23.3028 48.9479 23.3111 48.8916 23.273 48.8584C22.9614 48.5866 22.5653 48.764 22.3084 49.0242C22.0299 49.3059 22.4725 49.7452 22.741 49.4568Z" fill="white"/>
<path d="M17.5747 40.9194C17.8714 40.7818 18.2742 40.621 18.4979 40.379C18.5211 40.3542 18.5245 40.3127 18.4979 40.2895C18.1316 39.9481 17.5466 40.1752 17.2317 40.4752C16.9864 40.7089 17.298 41.0486 17.5747 40.9194Z" fill="white"/>
<path d="M21.4862 36.857C21.8773 37.0095 22.3066 36.7509 22.6 36.4924C22.648 36.4509 22.6298 36.373 22.5801 36.3432C22.1773 36.0863 21.5525 36.2603 21.4199 36.7377C21.4049 36.7924 21.4381 36.8371 21.4862 36.857Z" fill="white"/>
<path d="M16.7327 58.1285C16.7559 58.1848 16.804 58.2163 16.8653 58.2031C17.1421 58.1417 17.2382 57.8981 17.389 57.6777C17.5912 57.3843 17.8614 57.1407 18.0719 56.8506C18.0951 56.8191 18.0636 56.771 18.0271 56.7727C17.5034 56.8075 16.499 57.5235 16.7327 58.1285Z" fill="white"/>
<path d="M32.1819 55.8062C32.4357 55.5461 32.7013 55.3091 32.8716 54.9858C32.8933 54.9461 32.8683 54.8865 32.8165 54.8898C32.3356 54.9195 31.3904 55.4532 31.4922 56.0101C31.5006 56.0549 31.5457 56.0996 31.5908 56.108C31.8863 56.1626 31.9799 56.0135 32.1819 55.8062Z" fill="white"/>
<path d="M32.2427 52.1584C31.7611 51.9661 31.0945 52.1667 30.6712 52.4287C30.3713 52.6125 30.5696 53.0584 30.9062 52.9838C31.3678 52.8828 31.9344 52.6208 32.2794 52.291C32.326 52.2462 32.296 52.1784 32.2427 52.1584Z" fill="white"/>
<path d="M33.9826 34.7869C34.0363 34.7388 34.0027 34.661 33.944 34.6394C33.5382 34.492 33.0251 34.525 32.6109 34.6278C32.2856 34.7075 32.3946 35.1334 32.683 35.1681C33.119 35.2179 33.6539 35.0819 33.9826 34.7869Z" fill="white"/>
<path d="M31.0545 30.3897C31.1292 30.3714 31.1425 30.2671 31.0761 30.2306C30.5369 29.9289 29.8881 29.9903 29.412 30.3864C29.2178 30.5455 29.4252 30.8703 29.6525 30.799C30.1204 30.6515 30.5784 30.5123 31.0545 30.3897Z" fill="white"/>
<path d="M45.3115 26.0308C45.3447 26.029 45.3691 26.0042 45.3709 25.971C45.3831 25.603 45.067 25.2053 44.805 24.9766C44.4679 24.6833 44.026 25.1274 44.3177 25.4638C44.5465 25.7258 44.9447 26.044 45.3115 26.0308Z" fill="white"/>
<path d="M46.1162 22.3049C46.1688 22.3431 46.2528 22.2934 46.2476 22.2303C46.2108 21.7762 46.0234 21.5276 45.6782 21.2342C45.4452 21.0354 45.0703 20.6259 44.7357 20.8448C44.1891 21.206 45.9025 22.1541 46.1162 22.3049Z" fill="white"/>
<path d="M36.8765 20.6888C36.9358 20.7054 36.9782 20.6506 36.9697 20.5961C36.8629 20.0127 36.1866 19.7077 35.6781 19.5054C35.3628 19.3794 35.1611 19.8286 35.3662 20.044C35.7357 20.4369 36.3798 20.5528 36.8765 20.6888Z" fill="white"/>
<path d="M24.7233 20.5777C25.0133 20.5827 25.3017 20.586 25.5918 20.5943C25.6399 20.596 25.673 20.5379 25.6465 20.4982C25.4377 20.1716 25.1028 20.049 24.7233 20.0904C24.5808 20.107 24.4929 20.1915 24.4796 20.3341C24.4747 20.3855 24.4912 20.412 24.5128 20.4584C24.5493 20.533 24.6421 20.5761 24.7233 20.5777Z" fill="white"/>
<path d="M53.4531 19.9748C53.7014 19.6201 53.9658 19.2025 53.8345 18.7533C53.7499 18.4633 53.3703 18.4913 53.2731 18.7533C53.1364 19.1245 53.2552 19.5555 53.3037 19.935C53.3163 20.0129 53.4063 20.0444 53.4531 19.9748Z" fill="white"/>
<path d="M74.451 15.3001C74.704 14.9387 74.982 14.5923 75.3083 14.289C75.3797 14.2228 75.4087 14.1085 75.3797 14.0156C75.3546 13.9245 75.3372 13.8862 75.2504 13.8465C75.1345 13.7934 75.0052 13.7934 74.9106 13.8895C74.5244 14.2824 74.3391 14.7134 74.3024 15.2603C74.2947 15.3464 74.4086 15.3598 74.451 15.3001Z" fill="white"/>
<path d="M83.3062 21.4033C82.9216 21.637 82.7353 21.8939 82.5707 22.3001C82.5509 22.3447 82.6124 22.3913 82.652 22.363C82.9355 22.1675 83.2586 22.0083 83.556 21.8311C83.8296 21.6685 83.5818 21.2393 83.3062 21.4033Z" fill="white"/>
<path d="M81.6452 29.1034C82.2405 28.7522 83.0078 28.2517 83.0474 27.5008C83.0513 27.4361 82.9742 27.3997 82.9228 27.428C82.3354 27.761 81.7856 28.381 81.5226 29.0091C81.4929 29.0803 81.5899 29.1367 81.6452 29.1034Z" fill="white"/>
<path d="M90.3112 31.5285C89.7384 31.5135 89.1333 31.4655 88.6253 31.7754C88.5666 31.8102 88.5908 31.9013 88.6576 31.9013C89.2102 31.9013 89.7607 31.9527 90.3112 31.9677C90.5945 31.976 90.5945 31.5368 90.3112 31.5285Z" fill="white"/>
<path d="M92.7631 22.5068C93.0271 22.235 93.2297 21.9134 93.4794 21.63C93.7578 21.3166 94.0668 21.035 94.2776 20.667C94.3145 20.6039 94.2695 20.4963 94.1855 20.5063C93.3402 20.6039 92.4745 21.6232 92.7078 22.4919C92.716 22.5166 92.7467 22.525 92.7631 22.5068Z" fill="white"/>
<path d="M102.224 20.6656C102.588 20.3591 103.04 20.1519 103.425 19.8751C103.573 19.7724 103.6 19.5951 103.478 19.4707C103.413 19.406 103.314 19.3794 103.228 19.4045C102.632 19.5717 102.275 20.0259 102.104 20.596C102.081 20.669 102.174 20.7071 102.224 20.6656Z" fill="white"/>
<path d="M105.512 43.8232C105.593 43.8067 105.599 43.6939 105.533 43.6559C105.134 43.4187 104.63 43.4502 104.196 43.5879C104.135 43.6078 104.135 43.6906 104.196 43.7104C104.609 43.8431 105.087 43.9045 105.512 43.8232Z" fill="white"/>
<path d="M106.49 52.248C105.974 52.1005 105.441 51.8468 104.894 51.8982C104.828 51.9048 104.783 51.9827 104.836 52.0341C105.246 52.4219 105.819 52.6059 106.341 52.7932C106.43 52.8248 106.551 52.7883 106.615 52.7204C106.715 52.6125 106.713 52.5894 106.689 52.4452C106.672 52.3508 106.579 52.2729 106.49 52.248Z" fill="white"/>
<path d="M100.899 82.728C100.972 82.7316 101.02 82.6783 101.045 82.6171C101.177 82.2823 100.876 81.9924 100.702 81.7204C100.519 81.4288 100.255 81.1121 99.8982 81.0591C99.8439 81.0526 99.7896 81.0923 99.8063 81.152C99.9003 81.5017 100.128 81.8315 100.306 82.1448C100.466 82.4298 100.544 82.7132 100.899 82.728Z" fill="white"/>
<path d="M92.5243 82.1846C92.2386 81.911 91.9714 81.6227 91.6082 81.4568C91.5082 81.4121 91.3838 81.5082 91.449 81.616C91.8 82.1746 92.4284 83.1955 93.1853 83.0878C93.2486 83.0778 93.2608 83.0033 93.2384 82.9587C93.0833 82.6171 92.7895 82.4382 92.5243 82.1846Z" fill="white"/>
<path d="M99.8967 84.6342C99.8403 84.6208 99.7798 84.6806 99.8153 84.7386C100.089 85.1497 100.363 85.5823 100.697 85.9468C100.759 86.0165 100.864 86.038 100.952 86.0148C101.043 85.9917 101.064 85.9768 101.108 85.8939C101.152 85.8143 101.16 85.7099 101.108 85.6286C100.824 85.1911 100.434 84.7386 99.8967 84.6342Z" fill="white"/>
<path d="M72.8797 84.8562C72.7645 85.4529 72.897 86.2617 73.1907 86.792C73.2234 86.8535 73.3309 86.8617 73.3616 86.792C73.6419 86.1871 73.2963 85.3832 72.9892 84.8412C72.9642 84.7982 72.8893 84.8032 72.8797 84.8562Z" fill="white"/>
<path d="M76.0698 87.4651C76.0272 87.397 75.905 87.422 75.9108 87.5064C75.9535 88.0103 76.0155 88.5109 76.0718 89.0115C76.1164 89.401 76.0621 89.8285 76.3451 90.1302C76.3936 90.1798 76.475 90.1651 76.5099 90.1087C76.7271 89.7606 76.5894 89.3329 76.5351 88.95C76.4576 88.4215 76.3393 87.9275 76.0698 87.4651Z" fill="white"/>
<path d="M65.2366 85.8922C64.9226 86.101 64.7862 86.4358 64.646 86.7755C64.5188 87.0822 64.231 87.4933 64.4385 87.8098C64.4646 87.8479 64.502 87.8645 64.5469 87.8546C64.8535 87.7883 64.9077 87.4817 64.9936 87.2131C65.1226 86.8153 65.3245 86.4175 65.3825 86.0033C65.3937 85.927 65.317 85.8358 65.2366 85.8922Z" fill="white"/>
<path d="M58.0051 83.93C57.6948 84.1488 57.0578 85.0288 57.4849 85.3636C57.8335 85.637 58.1219 84.2216 58.162 84.0526C58.1857 83.9663 58.0872 83.8719 58.0051 83.93Z" fill="white"/>
<path d="M51.6972 82.5872C51.3382 82.8888 50.8219 83.6977 51.0863 84.1584C51.1184 84.2115 51.1774 84.2181 51.2292 84.1967C51.6615 84.0076 51.8062 83.1142 51.8759 82.6915C51.8938 82.5838 51.7812 82.5143 51.6972 82.5872Z" fill="white"/>
<path d="M42.9041 84.2944C42.9163 84.2414 42.8609 84.2016 42.8176 84.2265C42.1891 84.5629 41.7493 85.7249 42.0662 86.3762C42.1042 86.4541 42.2254 86.4491 42.267 86.3762C42.4453 86.053 42.4436 85.6967 42.5319 85.3419C42.6219 84.979 42.8141 84.6557 42.9041 84.2944Z" fill="white"/>
<path d="M42.9638 89.4955C42.6727 89.7623 42.1546 90.49 42.3886 90.8909C42.4215 90.9457 42.4804 90.9623 42.541 90.9525C43.0192 90.8727 43.1215 89.938 43.0868 89.5469C43.0816 89.4838 43.014 89.4525 42.9638 89.4955Z" fill="white"/>
<path d="M24.5724 77.8834C24.0089 77.9 23.6409 78.5348 23.3973 78.9724C23.3509 79.0552 23.3459 79.163 23.3973 79.2458C23.4139 79.2724 23.4304 79.2972 23.4454 79.3237C23.4686 79.3585 23.5083 79.3884 23.5531 79.3851C23.8481 79.3652 23.8929 79.1878 24.0387 78.9458C24.226 78.6342 24.5127 78.3707 24.6619 78.0392C24.6917 77.9713 24.6586 77.8801 24.5724 77.8834Z" fill="white"/>
<path d="M26.2383 70.73C26.2267 70.7714 26.2383 70.8228 26.2698 70.851C26.6361 71.1791 27.4797 70.6421 27.7167 70.3388C27.7847 70.251 27.7399 70.1482 27.6322 70.1333C27.2642 70.0869 26.356 70.314 26.2383 70.73Z" fill="white"/>
<path d="M32.3374 63.7406C31.8973 63.4506 31.2623 63.6246 30.7706 63.661C30.3939 63.6891 30.3873 64.2777 30.7706 64.2543C31.2956 64.2262 31.909 64.1682 32.3374 63.845C32.374 63.8168 32.3774 63.7688 32.3374 63.7406Z" fill="white"/>
<path d="M13.5918 67.7317C13.0681 67.8245 12.2427 68.3234 12.178 68.8935C12.1648 68.9946 12.2841 69.0675 12.3736 69.0427C12.6471 68.9631 12.7813 68.7659 12.9719 68.5604C13.199 68.3134 13.4625 68.0913 13.6598 67.8195C13.6929 67.7714 13.6382 67.7234 13.5918 67.7317Z" fill="white"/>
<path d="M12.319 72.0741C11.8499 72.2282 10.9798 72.8746 11.1008 73.4332C11.1124 73.4895 11.172 73.531 11.2267 73.531C11.5135 73.5227 11.5963 73.347 11.7604 73.1315C11.9958 72.8249 12.1996 72.4934 12.377 72.1503C12.3969 72.1122 12.3654 72.0592 12.319 72.0741Z" fill="white"/>
<path d="M14.8434 61.8113C15.2428 61.8892 15.5345 61.508 15.8577 61.3058C16.2157 61.0804 16.6748 60.9163 16.9632 60.603C16.9914 60.5715 16.9781 60.5235 16.9383 60.5102C16.524 60.3842 16.1146 60.5997 15.74 60.7654C15.3804 60.9262 14.7307 61.2146 14.7356 61.6687C14.7356 61.7317 14.7787 61.7997 14.8434 61.8113Z" fill="white"/>
<path d="M12.1831 46.3773C12.4798 46.1784 12.6025 45.8304 12.798 45.5403C13.045 45.1724 13.3814 44.8923 13.6649 44.5558C13.703 44.5094 13.6848 44.41 13.6085 44.4199C13.1925 44.4729 12.8908 44.7083 12.5875 44.9834C12.2726 45.2685 11.8583 45.7591 11.8699 46.1983C11.8748 46.3475 12.0472 46.4685 12.1831 46.3773Z" fill="white"/>
<path d="M32.9329 45.4723C32.943 45.5321 33.0135 45.5801 33.0723 45.5769C33.3577 45.5601 33.4567 45.3995 33.6296 45.1723C33.8596 44.8724 34.0896 44.5791 34.3028 44.269C34.3279 44.2309 34.286 44.1911 34.249 44.1995C33.732 44.3006 32.8423 44.874 32.9329 45.4723Z" fill="white"/>
<path d="M75.7741 29.09C76.0691 28.9408 76.3505 28.7783 76.6261 28.5994C76.8454 28.4585 77.0026 28.4504 77.0336 28.1802C77.0375 28.142 77.0104 28.1105 76.9832 28.0906C76.958 28.0723 76.9327 28.0558 76.9075 28.0376C76.8396 27.9879 76.7387 27.9993 76.6688 28.0376C76.238 28.2745 75.9158 28.5596 75.681 28.9973C75.6499 29.0586 75.714 29.1199 75.7741 29.09Z" fill="white"/>
<path d="M53.2975 27.531C53.525 27.7447 53.812 27.874 54.0575 28.0711C54.2633 28.237 54.4727 28.4258 54.72 28.5237C54.7634 28.5403 54.8265 28.5055 54.832 28.4591C54.9439 27.8292 54.1406 27.1712 53.5972 27.0171C53.3048 26.9342 53.0701 27.3187 53.2975 27.531Z" fill="white"/>
<path d="M45.833 28.9177C46.2258 29.2558 47.1433 29.3668 47.6435 29.2492C47.751 29.2243 47.7738 29.0901 47.7052 29.0154C47.5079 28.8034 47.2367 28.7072 46.9602 28.6426C46.6625 28.573 46.3262 28.4288 46.0197 28.4652C45.8172 28.4901 45.6357 28.7502 45.833 28.9177Z" fill="white"/>
<path d="M76.1095 24.9648C76.5443 24.8089 77.0413 24.436 77.1229 23.9604C77.1403 23.8724 77.0743 23.8078 76.987 23.8227C76.5113 23.9056 76.1366 24.403 75.9813 24.8371C75.9561 24.9101 76.0357 24.9912 76.1095 24.9648Z" fill="white"/>
<path d="M63.5586 20.9891C63.8417 20.5035 64.3185 19.5652 63.8547 19.0714C63.7895 19.0051 63.6796 19.0249 63.6349 19.0996C63.4803 19.3482 63.5306 19.5969 63.5101 19.8836C63.4803 20.2431 63.4412 20.5962 63.4319 20.9543C63.43 21.0221 63.525 21.047 63.5586 20.9891Z" fill="white"/>
<path d="M65.3282 27.6271C65.3506 27.6568 65.4049 27.6469 65.4217 27.6154C65.7062 27.0452 65.7286 25.5502 64.982 25.3165C64.8809 25.285 64.8079 25.368 64.7967 25.4591C64.7481 25.8502 64.9801 26.2597 65.0269 26.6508C65.0699 27.0005 65.098 27.3435 65.3282 27.6271Z" fill="white"/>
<path d="M100.995 28.9327C101.288 28.8316 101.501 28.8034 101.721 28.5747C101.763 28.5332 101.744 28.4587 101.685 28.442C101.089 28.283 100.239 28.6376 100.068 29.2658C100.053 29.3221 100.116 29.3735 100.168 29.342C100.434 29.1829 100.702 29.0337 100.995 28.9327Z" fill="white"/>
<path d="M98.634 62.2804C98.7398 62.2472 98.7315 62.1113 98.634 62.0732C97.9932 61.8312 97.0558 61.6223 96.4378 62.0217C96.3839 62.0582 96.3818 62.1609 96.4585 62.1742C97.1388 62.2953 97.96 62.4925 98.634 62.2804Z" fill="white"/>
<path d="M108.602 63.6527C108.551 63.686 108.566 63.7705 108.632 63.7705C109.395 63.7705 110.096 64.1831 110.842 64.1351C110.917 64.1302 110.962 64.0423 110.904 63.986C110.347 63.429 109.273 63.1952 108.602 63.6527Z" fill="white"/>
<path d="M114.198 70.9321C113.855 70.778 113.489 70.7099 113.116 70.7665C113.042 70.778 113.037 70.8856 113.096 70.9188C113.422 71.1045 113.748 71.2918 114.081 71.4642C114.389 71.6266 114.581 71.8072 114.918 71.6631C114.978 71.6366 115.009 71.547 114.989 71.4873C114.872 71.1343 114.518 71.0747 114.198 70.9321Z" fill="white"/>
<path d="M100.498 73.1036C100.038 73.0622 99.5765 72.9661 99.1126 72.9907C99.0478 72.9943 99.0206 73.0821 99.0791 73.1168C99.4386 73.3339 99.8482 73.4633 100.258 73.5511C100.605 73.6257 101.052 73.7615 101.313 73.4731C101.355 73.4267 101.353 73.3671 101.313 73.3224C101.1 73.0687 100.814 73.1335 100.498 73.1036Z" fill="white"/>
<path d="M104.757 68.7561C104.723 68.7926 104.734 68.8655 104.789 68.8755C105.122 68.9434 105.461 68.9517 105.794 69.0212C106.053 69.0743 106.212 69.1572 106.42 68.975C106.45 68.9483 106.458 68.9003 106.45 68.8621C106.301 68.272 105.088 68.3931 104.757 68.7561Z" fill="white"/>
<path d="M79.4428 79.385C79.4036 79.3421 79.3252 79.3752 79.3272 79.4332C79.335 79.7928 79.4389 80.1326 79.5114 80.4839C79.5859 80.8586 79.5212 81.2763 79.7524 81.5961C79.7877 81.6457 79.8543 81.6492 79.8896 81.5961C80.1012 81.2795 79.9973 80.915 79.9346 80.5586C79.8602 80.131 79.7446 79.7083 79.4428 79.385Z" fill="white"/>
<path d="M64.9619 78.9872C64.8274 79.3667 64.8535 79.7563 64.8423 80.154C64.8292 80.5501 64.6965 80.9762 64.8722 81.3441C64.8984 81.3955 64.9675 81.3938 65.0049 81.3606C65.2908 81.1021 65.2702 80.7127 65.2684 80.3448C65.2684 79.8939 65.259 79.4132 65.1002 78.9872C65.0759 78.9193 64.9862 78.9193 64.9619 78.9872Z" fill="white"/>
<path d="M59.3077 81.4434C59.7608 81.0539 59.6801 80.1407 59.6489 79.6021C59.6434 79.5441 59.5774 79.529 59.5444 79.5738C59.2196 80.0163 58.9811 80.88 59.1756 81.4086C59.1957 81.4667 59.26 81.4849 59.3077 81.4434Z" fill="white"/>
<path d="M77.8331 39.2254C75.978 38.8872 75.9938 37.0956 76.6801 35.6437C76.7453 35.5476 76.8086 35.4448 76.8739 35.3619C78.0704 33.8254 80.4378 34.094 81.0469 36.0747C81.5592 37.7485 79.3698 39.5055 77.8331 39.2254ZM82.9614 36.2454C82.8665 34.4618 81.3891 33.1791 79.8346 32.5658C78.3809 31.9924 76.7987 32.632 75.7466 33.6614C74.9574 34.432 74.4986 35.6287 74.463 36.7774C74.3364 37.7933 74.643 38.7945 75.2442 39.5933C75.4993 40.0391 75.8395 40.4518 76.2469 40.8049C77.7263 42.0861 80.4358 42.5552 82.1881 41.5424C82.2494 41.5076 82.2197 41.4182 82.1545 41.4164C81.1775 41.375 80.3053 41.2259 79.4627 40.9475C81.4267 40.316 83.0702 38.2906 82.9614 36.2454Z" fill="white"/>
<path d="M53.0288 36.8804C53.1154 37.7289 52.3413 38.5014 51.5816 38.9439C50.9626 39.1776 50.3364 39.3268 49.6237 39.0235C49.6182 39.0218 49.6146 39.0168 49.6092 39.0152C49.3728 38.8675 49.1563 38.677 48.9632 38.4666C48.3984 37.8484 48.1855 37.1174 48.2414 36.4214C48.7088 33.9252 52.796 34.5865 53.0288 36.8804ZM46.242 40.2218C46.1572 40.1854 46.0778 40.2781 46.1409 40.3527C47.774 42.262 50.9139 41.7515 52.7761 40.5169C53.3391 40.1439 53.904 39.4196 54.2522 38.6174C54.6546 37.9063 54.8333 37.0694 54.6564 36.181C54.3046 34.4059 52.3485 32.9821 50.6234 32.8513C48.6438 32.7021 46.8357 34.028 46.4062 35.9738C46.0182 37.7439 47.0053 39.5489 48.5121 40.4456C48.6853 40.5483 48.8748 40.6295 49.0697 40.6991C48.1115 40.7621 47.137 40.6013 46.242 40.2218Z" fill="white"/>
<path d="M55.6512 40.8133C58.5156 40.3725 61.24 39.6913 64.1657 39.5886C67.1125 39.4858 70.159 40.0974 72.9851 40.8829C73.125 40.9211 73.2094 40.7222 73.0829 40.6492C68.1613 37.8266 60.5287 37.661 55.6071 40.7123C55.5496 40.747 55.5899 40.8233 55.6512 40.8133Z" fill="white"/>
<path d="M59.4368 35.6172C59.4955 35.6337 59.5432 35.5889 59.5487 35.5326C59.5743 35.2094 59.4552 34.8496 59.3305 34.5564C59.1838 34.2115 58.597 34.4602 58.7235 34.8115C58.8427 35.138 59.0848 35.516 59.4368 35.6172Z" fill="white"/>
<path d="M63.0611 33.7396C63.0908 33.7594 63.1298 33.7446 63.1484 33.7164C63.3619 33.3998 63.2802 32.9307 63.2097 32.5744C63.1317 32.1817 63.0481 31.6727 62.6118 31.5418C62.5653 31.527 62.5152 31.5502 62.4892 31.5916C62.2701 31.9479 62.4651 32.3822 62.5616 32.7551C62.6489 33.0915 62.7547 33.5357 63.0611 33.7396Z" fill="white"/>
<path d="M57.4753 32.7284C57.4225 32.3075 57.184 31.9892 56.909 31.6777C56.6724 31.4058 56.4193 30.9053 56.0169 30.8986C55.9841 30.8986 55.9386 30.9202 55.924 30.9532C55.7729 31.3081 56.0715 31.5865 56.3046 31.8317C56.6341 32.1782 56.9837 32.5245 57.3934 32.7765C57.4243 32.7964 57.4808 32.7716 57.4753 32.7284Z" fill="white"/>
<path d="M66.5836 35.2426C66.83 34.7354 66.7698 34.1122 66.8432 33.5652C66.9353 32.9121 67.2117 32.2393 67.1534 31.5813C67.1478 31.5066 67.0651 31.4354 66.9936 31.4884C66.484 31.8496 66.3975 32.4465 66.3204 33.0332C66.232 33.6978 66.1154 34.6425 66.4896 35.2426C66.5084 35.2756 66.5648 35.2822 66.5836 35.2426Z" fill="white"/>
<path d="M70.3495 33.905C70.5895 33.5918 70.7324 33.3365 70.8677 32.9636C70.9934 32.6173 71.1915 32.2129 71.1229 31.8483C71.1001 31.7204 70.94 31.6725 70.8372 31.7306C70.1991 32.0902 70.2733 33.247 70.239 33.8752C70.2333 33.9415 70.3171 33.9482 70.3495 33.905Z" fill="white"/>
<path d="M71.4047 36.4031C71.9924 35.9555 72.5686 35.1318 72.7314 34.4075C72.7448 34.3495 72.695 34.2915 72.6337 34.3097C71.822 34.54 71.5291 35.6289 71.3338 36.3484C71.3243 36.3865 71.3683 36.4295 71.4047 36.4031Z" fill="white"/>
<path d="M69.1647 29.1083C69.3544 28.921 69.9539 28.1304 69.381 28.0822C69.2918 28.0756 69.2045 28.1353 69.1628 28.2082C68.9901 28.4951 68.9161 28.8214 69.1343 29.1048C69.14 29.1149 69.1552 29.1181 69.1647 29.1083Z" fill="white"/>
<path d="M88.4938 38.4549C88.5139 38.4135 88.5139 38.3604 88.4757 38.3256C88.0654 37.9312 87.09 38.2327 86.6536 38.4847C86.6113 38.5078 86.6254 38.5643 86.6656 38.5792C87.1342 38.7465 88.2162 39.045 88.4938 38.4549Z" fill="white"/>
<path d="M87.7805 33.7463C87.074 33.5127 86.3956 33.4464 85.7995 33.9518C85.7393 34.0016 85.8056 34.0845 85.8698 34.0728C86.506 33.9436 87.1463 34.0678 87.7805 33.8774C87.8467 33.8575 87.8447 33.768 87.7805 33.7463Z" fill="white"/>
<path d="M93.7754 50.4597C93.8408 50.4383 93.8469 50.3586 93.7918 50.3205C93.3605 50.0205 92.6533 49.7853 92.1935 50.1648C92.173 50.183 92.1791 50.2194 92.2037 50.2327C92.6676 50.5061 93.2604 50.6271 93.7754 50.4597Z" fill="white"/>
<path d="M98.0205 56.5623C98.0536 56.5339 98.0495 56.4776 98.0205 56.4495C97.5921 56.0384 96.7042 56.0765 96.1598 56.1777C96.0833 56.1926 96.0915 56.3052 96.1598 56.3236C96.7104 56.471 97.501 56.9965 98.0205 56.5623Z" fill="white"/>
<path d="M108.577 49.8179C108.532 49.8428 108.532 49.9108 108.577 49.9356C109.017 50.1792 109.834 50.2822 110.205 49.8775C110.246 49.8312 110.235 49.7684 110.186 49.7334C109.776 49.445 108.994 49.5844 108.577 49.8179Z" fill="white"/>
<path d="M112.766 21.4707C112.972 21.5256 113.64 21.7709 113.739 21.4062C113.904 20.8046 111.869 20.6753 111.518 20.7812C111.449 20.8046 111.434 20.8842 111.477 20.9355C111.793 21.2985 112.326 21.3531 112.766 21.4707Z" fill="white"/>
<path d="M41.772 36.1954C42.1181 36.0812 42.421 35.9734 42.722 35.7696C42.7567 35.7446 42.7549 35.6867 42.7082 35.6735C42.3933 35.5872 42.1302 35.6121 41.8153 35.69C41.5229 35.7613 41.2148 35.7613 41.1179 36.0762C41.1058 36.1125 41.1179 36.1641 41.1474 36.1888C41.3654 36.3712 41.5107 36.2833 41.772 36.1954Z" fill="white"/>
<path d="M18.2327 5.57295C15.8924 5.43373 13.6632 6.19449 11.487 7.10111C12.1698 5.6177 12.7516 4.09121 12.9455 2.53488C12.9704 2.33267 12.6919 2.18351 12.5311 2.29787C11.1638 3.26581 10.3533 4.72766 9.69527 6.27736C9.00577 4.23375 8.20689 1.34319 6.62073 0.299007C6.54946 0.254255 6.44671 0.299004 6.42682 0.378561C5.94119 2.36582 7.46272 5.28953 8.22514 7.26685C6.68041 6.49117 4.39149 5.29119 3.17162 5.86135C3.1219 5.88621 3.09538 5.95748 3.11196 6.01052C3.51637 7.27348 5.85003 8.17512 7.39475 8.80826C5.34782 9.53256 2.1208 10.3298 1.00535 12.0253C0.958943 12.0966 1.0037 12.201 1.08325 12.2193C3.07217 12.7049 5.99589 11.1817 7.9732 10.4193C7.19753 11.964 5.99754 14.2529 6.56604 15.4728C6.5909 15.5225 6.66383 15.549 6.71521 15.5325C8.02126 15.1148 8.94279 12.6303 9.57925 11.0922C10.3947 13.3778 11.2997 15.6518 12.5593 17.6656C12.7101 17.9042 13.0565 17.7998 13.0715 17.528C13.2107 15.1861 12.4499 12.9568 11.5433 10.7806C13.0267 11.4651 14.5549 12.0485 16.1112 12.2408C16.3134 12.2657 16.4626 11.9856 16.3482 11.8264C15.3471 10.411 13.819 9.59057 12.2096 8.92096C14.356 8.14197 16.4791 7.27182 18.3703 6.0851C18.6106 5.93594 18.5045 5.58787 18.2327 5.57295Z" fill="#554949"/>
</svg>
