<svg width="90" height="72" viewBox="0 0 90 72" fill="none" xmlns="http://www.w3.org/2000/svg">
<path d="M89.0609 34.5803C84.7539 30.1978 78.8657 25.5802 72.4956 24.6226C73.4449 23.4234 74.4121 22.2403 75.5194 21.182C78.3316 18.4895 82.0996 17.2324 85.8954 16.8141C86.7502 16.7195 87.3674 15.4515 86.3871 14.9944C81.6584 12.7808 76.3271 12.1965 71.1619 12.5637C68.2406 12.771 64.7738 13.3712 61.903 14.8029C61.8623 14.4634 61.8281 14.1289 61.8135 13.7979C61.6409 10.1041 62.499 6.586 64.1241 3.28482C64.4189 2.68965 63.9352 1.86781 63.2139 2.09921C57.5293 3.92379 50.7308 8.76556 48.9526 14.9205C48.4413 12.0389 45.577 9.28094 43.4813 7.6783C39.8143 4.8767 35.5919 3.14429 31.2247 1.75139C30.4772 1.5125 29.694 2.44849 30.1695 3.12361C31.718 5.31914 33.0159 7.69394 34.0466 10.1744C34.6768 11.6909 34.9552 13.1882 35.1669 14.7107C28.686 12.0523 20.6403 11.6838 14.2831 14.1677C13.3485 14.5326 13.4478 15.9206 14.5258 15.9594C18.245 16.0891 21.0409 17.3765 24.0436 18.8095C20.7787 19.7078 17.6376 21.9179 15.1853 23.7643C10.6584 27.1731 6.7259 31.5944 3.64341 36.3417C2.96438 37.3867 4.24264 38.273 5.17407 37.874C7.1965 37.0086 9.19614 36.303 11.3472 35.8495C11.9888 35.7137 12.619 35.7041 13.2377 35.715C11.5833 37.5396 10.2513 39.7968 9.22545 41.5874C6.83013 45.7685 4.74744 50.9378 5.07637 55.8378C5.11708 56.4586 5.81403 57.0016 6.40838 56.6015C7.88694 55.6063 9.35408 54.6159 10.9059 53.7369C12.334 52.9271 13.907 52.6822 15.4018 52.173C13.7376 55.9919 13.5064 60.938 13.6123 64.6258C13.6302 65.2441 14.4053 65.8611 14.985 65.4138C19.0689 62.2715 23.4736 60.6373 28.0998 59.1257C27.468 62.0084 28.1747 65.8125 28.94 67.8068C29.1517 68.356 29.7656 68.7161 30.3258 68.3706C32.472 67.0455 34.5237 65.581 36.6096 64.1663C37.5036 63.5602 38.4204 62.988 39.316 62.3904C39.3355 63.2765 39.4039 64.1275 39.4316 64.7943C39.5293 67.1425 40.166 69.2471 41.6559 71.0752C42.0582 71.5685 42.8675 71.4753 43.2843 71.0752C45.7269 68.7294 47.7786 65.7228 50.27 63.342C52.312 65.8733 54.9727 67.9802 56.6792 70.7806C56.9447 71.2134 57.6351 71.4959 58.0894 71.1491C60.8609 69.0264 61.6458 64.3433 61.04 60.5852C62.6228 60.8871 64.2104 61.1756 65.7606 61.646C68.9197 62.6048 71.8686 64.1724 74.6434 65.9374C75.4461 66.4503 76.2522 65.6137 76.1089 64.81C75.5585 61.7102 74.3193 58.1654 72.2252 55.4985C76.3303 54.8764 80.4599 54.7722 84.7246 54.3721C85.428 54.3067 85.8156 53.7794 85.7032 53.0883C84.9639 48.569 81.8749 43.3414 77.9359 40.2223C81.3783 38.5832 84.3598 36.6521 88.4079 36.1587C89.1716 36.0653 89.6764 35.2069 89.0609 34.5803Z" fill="#3A3333"/>
<path d="M45.4205 49.6539C45.3714 49.8408 45.0141 51.3379 45.0022 52.2459C43.649 52.1731 42.3002 51.9743 40.9738 51.6689C40.9917 50.8529 40.8547 49.9837 40.7907 49.2624C40.7267 48.5351 39.6147 48.0137 39.247 48.8442C39.0073 49.3812 38.7289 50.242 38.6783 51.0299C37.5945 50.6784 36.5302 50.2722 35.5015 49.8068C35.372 49.7486 35.2514 49.6806 35.1234 49.6176C35.1293 49.3084 35.098 48.9909 35.101 48.6927C35.1085 47.9083 35.0638 47.1543 34.8747 46.3917C34.7244 45.7795 33.8401 45.8123 33.6734 46.3917C33.4992 46.9882 33.1672 47.7193 33.0973 48.4113C31.5267 47.3131 30.1423 46.0086 28.661 44.7988C26.9535 43.407 27.4939 42.4663 28.3439 41.5632C28.8412 41.0321 29.3399 40.5169 29.849 40.0175C30.0693 40.5133 30.3536 40.9897 30.5993 41.4589C30.9149 42.0602 31.9153 41.9377 32.0597 41.2685C32.2487 40.4103 32.1624 39.5896 32.0329 38.7289C32.0031 38.5264 31.9837 38.319 31.9584 38.119C32.7579 37.4729 33.6138 36.8643 34.5681 36.3006C34.7423 36.1963 34.9254 36.1091 35.1025 36.0109C35.3452 36.6449 35.7039 37.2558 36.0002 37.8269C36.3991 38.5918 37.4501 38.1651 37.5067 37.4196C37.5514 36.828 37.5231 36.2388 37.4978 35.6472C37.4874 35.3974 37.5067 35.1343 37.5186 34.8701C38.7929 34.3706 40.1164 33.9924 41.4591 33.7184C41.5723 34.3306 41.806 34.9429 42.0368 35.498C42.3702 36.3043 43.3349 36.297 43.6698 35.498C43.9586 34.8156 44.1 34.0506 44.2206 33.305C44.9173 33.2372 45.6125 33.1851 46.3063 33.1657C47.0938 33.145 47.8813 33.179 48.6628 33.2456C48.5408 34.0046 48.7328 34.8726 48.907 35.5744C49.0931 36.326 50.2244 36.3187 50.415 35.5744C50.5728 34.9538 50.8333 34.2542 50.9807 33.5669C52.3413 33.8288 53.6752 34.213 54.9673 34.7089C54.7113 35.4289 54.8125 36.4073 54.8453 37.0461C54.8825 37.7541 55.9633 38.2063 56.3057 37.4413C56.5111 36.9843 56.6987 36.5225 56.8922 36.0606C56.9517 35.9187 57.0173 35.7768 57.0872 35.6351C57.1483 35.6667 57.2123 35.692 57.2733 35.7235C58.229 36.2072 59.1014 36.794 59.9291 37.4389C59.4855 38.193 59.4185 39.358 59.3932 40.123C59.3619 40.9994 60.4516 41.1219 60.8952 40.5303C61.2376 40.0696 61.5443 39.5713 61.8301 39.0622C62.509 39.6818 63.1804 40.3145 63.8622 40.934C65.0025 41.9669 65.6203 43.6035 63.9024 45.1528C62.707 46.2318 61.4461 47.2052 60.1241 48.0611C60.0467 47.8937 59.9693 47.7325 59.9083 47.5894C59.6686 47.0294 59.2964 46.559 58.7783 46.2377C58.3273 45.9565 57.7288 46.3202 57.7318 46.8378C57.7348 47.4004 57.7378 47.9653 57.7199 48.5278C57.7095 48.8151 57.6484 49.1582 57.647 49.4842C56.4158 50.1098 55.1385 50.6432 53.8166 51.0676C53.6648 50.431 53.4831 49.8055 53.1244 49.2466C52.7284 48.6308 51.6565 48.8332 51.6893 49.6358C51.7072 50.094 51.6953 50.551 51.6238 51.0056C51.591 51.2178 51.5389 51.4518 51.5166 51.6858C50.1976 51.9755 48.84 52.1586 47.4436 52.235C47.396 52.0252 47.3394 51.8167 47.2843 51.6106C47.1057 50.9463 46.8675 50.3002 46.6278 49.6539C46.4239 49.1036 45.5857 49.0128 45.4205 49.6539ZM65.5131 45.5311C66.9065 43.4362 66.8633 42.036 65.5012 39.9387C61.4207 33.6579 53.7853 30.7447 46.3063 30.7168C39.6995 30.6902 31.2349 33.7972 27.6145 39.86C25.7522 42.9778 25.9129 43.8035 27.3614 46.3153C30.6901 52.0896 39.7219 54.6959 45.6125 54.9578C53.3581 55.3033 61.2347 51.9562 65.5131 45.5311Z" fill="#A49D9D"/>
<path d="M73.8735 34.3707C74.2924 34.2882 74.7128 34.2143 75.1379 34.1755C75.464 34.1452 75.9386 34.2992 76.1642 34.0228C76.1905 33.99 76.1998 33.9512 76.1781 33.9124C76.0035 33.5911 75.546 33.6906 75.2353 33.7439C74.7206 33.8324 74.2754 34.0058 73.8426 34.2967C73.8024 34.3222 73.8272 34.3791 73.8735 34.3707Z" fill="#A49D9D"/>
<path d="M76.8262 35.3357C76.8603 35.3041 76.8618 35.252 76.8417 35.212C76.727 34.9888 76.4852 35.0228 76.259 35.0059C75.8793 34.9755 75.5228 35.0313 75.1602 35.1429C75.1323 35.1514 75.1323 35.1902 75.1602 35.1987C75.4841 35.298 75.7941 35.343 76.1288 35.378C76.3752 35.4036 76.6294 35.5162 76.8262 35.3357Z" fill="#A49D9D"/>
<path d="M74.4736 46.7395C74.8021 46.8292 75.2525 47.131 75.5809 46.9881C75.6102 46.9759 75.6287 46.9287 75.6179 46.8996C75.4776 46.5432 74.8947 46.4958 74.5631 46.4145C74.0511 46.2898 73.5314 46.2085 73.0117 46.3128C72.9623 46.3225 72.9638 46.3976 73.0117 46.4085C73.4959 46.5274 73.9894 46.6061 74.4736 46.7395Z" fill="#A49D9D"/>
<path d="M75.9334 48.0199C75.9736 48.0102 75.9983 47.9642 75.9859 47.9265C75.796 47.3362 74.8183 47.3785 74.3272 47.4222C74.2747 47.4259 74.2422 47.5022 74.2994 47.5302C74.565 47.6672 74.8353 47.7677 75.121 47.8635C75.3898 47.9545 75.6446 48.089 75.9334 48.0199Z" fill="#A49D9D"/>
<path d="M69.6138 56.044C69.6379 56.016 69.65 55.9918 69.6635 55.9591C69.6967 55.8791 69.6425 55.7834 69.5747 55.7421C69.0898 55.4354 68.6516 55.1408 68.0945 54.988C68.0418 54.9748 68.0132 55.0463 68.0584 55.0741C68.5237 55.3602 68.9227 55.7688 69.382 56.0743C69.4482 56.1178 69.5627 56.107 69.6138 56.044Z" fill="#A49D9D"/>
<path d="M69.759 57.2575C69.8117 57.2527 69.8449 57.2102 69.8358 57.1569C69.75 56.7216 69.1156 56.4501 68.8067 56.1713C68.7148 56.0876 68.5943 56.1918 68.6425 56.2986C68.8113 56.6792 69.3025 57.2962 69.759 57.2575Z" fill="#A49D9D"/>
<path d="M55.2592 58.7157C55.2108 58.6611 55.1369 58.7206 55.1483 58.7813C55.2094 59.1146 55.3431 59.4261 55.4327 59.7535C55.5208 60.0856 55.4995 60.4882 55.6602 60.7888C55.7028 60.87 55.8436 60.8772 55.8848 60.7888C56.0285 60.4809 55.8919 60.1003 55.8024 59.7886C55.6957 59.4104 55.5222 59.0104 55.2592 58.7157Z" fill="#A49D9D"/>
<path d="M54.8753 61.8107C55.1274 61.6484 55.1047 61.3453 55.0962 61.0749C55.0877 60.7428 55.0438 60.35 54.813 60.0966C54.7535 60.0336 54.6572 60.0857 54.6529 60.1621C54.6402 60.4652 54.7081 60.7707 54.7039 61.0749C54.7011 61.3235 54.6189 61.5695 54.7775 61.7841C54.7988 61.8156 54.8399 61.8338 54.8753 61.8107Z" fill="#A49D9D"/>
<path d="M44.4873 59.362C44.2357 59.7488 44.0977 60.2616 44.0097 60.709C43.9881 60.8217 44.0273 60.9018 44.1166 60.9695C44.1829 61.0205 44.2127 61.0157 44.2938 60.9927C44.3682 60.972 44.4372 60.9101 44.4562 60.8326C44.559 60.3719 44.7551 59.8628 44.6848 59.3887C44.6685 59.2882 44.5319 59.293 44.4873 59.362Z" fill="#A49D9D"/>
<path d="M45.174 60.2894C44.9407 60.5513 44.8593 60.8192 44.7983 61.1648C44.7494 61.4496 44.6463 61.8024 44.7942 62.0666C44.8186 62.1127 44.881 62.1176 44.9163 62.0823C45.098 61.9114 45.0926 61.6836 45.117 61.4471C45.155 61.0895 45.2187 60.7185 45.3164 60.3718C45.3381 60.293 45.2323 60.224 45.174 60.2894Z" fill="#A49D9D"/>
<path d="M33.7179 57.9425C33.3334 58.1365 33.0723 58.442 32.8189 58.7838C32.5759 59.1123 32.3019 59.5634 32.2685 59.9755C32.2505 60.1864 32.5205 60.2022 32.6209 60.0713C32.8575 59.7621 32.9887 59.3402 33.1906 59.0008C33.3861 58.6747 33.6215 58.3729 33.8388 58.0625C33.8928 57.9837 33.7913 57.9061 33.7179 57.9425Z" fill="#A49D9D"/>
<path d="M33.9378 59.3368C34.1196 59.0603 34.2859 58.819 34.3839 58.5014C34.4007 58.4481 34.3362 58.3983 34.2898 58.4286C33.9159 58.6736 33.2958 59.2203 33.4131 59.7162C33.4209 59.7512 33.466 59.7804 33.5021 59.7658C33.7329 59.6774 33.8025 59.5403 33.9378 59.3368Z" fill="#A49D9D"/>
<path d="M22.2161 54.2365C22.1621 54.2668 22.1093 54.3395 22.1179 54.4062C22.1314 54.508 22.1351 54.5152 22.2161 54.5771C22.2702 54.6172 22.3623 54.6112 22.4151 54.5771C23.0659 54.171 23.7917 53.7868 24.3836 53.3018C24.4217 53.2703 24.3897 53.2036 24.3455 53.206C23.567 53.2593 22.867 53.8582 22.2161 54.2365Z" fill="#A49D9D"/>
<path d="M24.2532 54.1272C23.8383 54.0836 23.0294 54.697 23.1509 55.148C23.162 55.188 23.2074 55.2147 23.2479 55.2026C23.4775 55.1335 23.5928 54.9201 23.7573 54.7588C23.9365 54.5831 24.1906 54.4533 24.3097 54.2278C24.3367 54.1793 24.3023 54.1321 24.2532 54.1272Z" fill="#A49D9D"/>
<path d="M19.3401 43.407C19.3716 43.3791 19.3437 43.3379 19.3098 43.3331C18.5969 43.2385 17.8514 43.8725 17.3749 44.3332C17.1604 44.5393 17.4889 44.8678 17.6998 44.6581C17.952 44.4096 18.2211 44.178 18.5108 43.9744C18.7836 43.7804 19.0915 43.6337 19.3401 43.407Z" fill="#A49D9D"/>
<path d="M18.6709 44.9842C18.6794 45.0303 18.7315 45.0484 18.7715 45.0412C18.9667 45.0072 19.0976 44.8302 19.231 44.6957C19.3728 44.5538 19.5486 44.4241 19.6601 44.258C19.688 44.2144 19.6601 44.1489 19.6104 44.138C19.2225 44.0556 18.6042 44.5817 18.6709 44.9842Z" fill="#A49D9D"/>
<path d="M19.9486 30.6171C19.6814 30.7529 19.9183 31.1614 20.1831 31.0196C20.8123 30.6801 21.6419 30.7602 22.2201 30.354C22.2481 30.3347 22.242 30.297 22.2116 30.2849C21.5411 30.028 20.5609 30.3031 19.9486 30.6171Z" fill="#A49D9D"/>
<path d="M21.1018 31.9796C21.086 32.0464 21.1541 32.0948 21.2136 32.0658C21.4032 31.9676 21.5284 31.8561 21.7034 31.7336C21.8954 31.599 22.1166 31.5057 22.3134 31.3797C22.3377 31.3639 22.339 31.3154 22.3049 31.3105C21.8152 31.2438 21.2307 31.4742 21.1018 31.9796Z" fill="#A49D9D"/>
<path d="M70.3267 37.4631C70.2962 37.4849 70.2962 37.5394 70.3388 37.5479C70.6677 37.6195 71.0286 37.5357 71.3635 37.5237C71.6802 37.5127 72.1172 37.6364 72.3837 37.4509C72.4309 37.4169 72.4354 37.3624 72.3989 37.3187C72.1781 37.0422 71.6802 37.126 71.3635 37.1599C71.0225 37.1951 70.6144 37.2642 70.3267 37.4631Z" fill="#A49D9D"/>
<path d="M82.4301 34.5753C81.7869 34.3935 81.0185 34.6164 80.4132 34.8614C80.3831 34.8736 80.3831 34.9268 80.4227 34.9244C81.0691 34.8845 81.9247 35.1608 82.4618 34.693C82.5014 34.6565 82.4776 34.5886 82.4301 34.5753Z" fill="#A49D9D"/>
<path d="M78.4419 31.945C79.2134 31.7995 80.0179 31.8455 80.794 31.8467C80.8602 31.8467 80.8791 31.7619 80.8255 31.7278C80.0903 31.2491 79.1299 31.4515 78.412 31.8758C78.3726 31.8976 78.401 31.9535 78.4419 31.945Z" fill="#A49D9D"/>
<path d="M77.0638 43.4314C77.1228 43.4241 77.174 43.3636 77.1367 43.3029C76.9288 42.9757 76.513 42.9089 76.153 42.8289C75.7014 42.7294 75.2484 42.7961 74.8123 42.9258C74.758 42.9417 74.7689 43.0228 74.8263 43.0228C75.2437 43.0265 75.6471 43.0944 76.0568 43.1792C76.3981 43.2508 76.7116 43.4714 77.0638 43.4314Z" fill="#A49D9D"/>
<path d="M79.4764 51.3754C78.8433 51.139 78.2337 51.0504 77.5629 51.0263C77.5269 51.025 77.5253 51.0735 77.5535 51.0844C78.1585 51.3099 78.779 51.493 79.3793 51.7293C79.5987 51.8166 79.6974 51.4577 79.4764 51.3754Z" fill="#A49D9D"/>
<path d="M79.9841 48.581C79.7198 48.4755 79.4634 48.3992 79.1787 48.3688C79.0985 48.3603 79.0827 48.4731 79.1394 48.5107C79.3706 48.6562 79.5987 48.7967 79.8378 48.929C80.0722 49.0563 80.305 49.2332 80.574 49.1678C80.6464 49.1508 80.6637 49.0732 80.6369 49.0138C80.5284 48.7665 80.2248 48.6779 79.9841 48.581Z" fill="#A49D9D"/>
<path d="M71.8403 51.1826C71.4193 50.6625 70.8614 50.3521 70.2398 50.1351C70.1805 50.1146 70.1547 50.1994 70.2003 50.231C70.6882 50.5643 71.208 50.9207 71.5697 51.3911C71.7217 51.5887 71.9968 51.3765 71.8403 51.1826Z" fill="#A49D9D"/>
<path d="M65.1434 56.3773C64.8351 56.0548 64.5223 55.7482 64.1607 55.4839C64.1162 55.4523 64.054 55.5153 64.0851 55.559C64.346 55.9239 64.6187 56.273 64.9077 56.6126C65.1152 56.8562 65.3983 57.3484 65.7496 57.3641C65.7985 57.3653 65.8415 57.3218 65.84 57.2731C65.8311 56.9302 65.3627 56.6088 65.1434 56.3773Z" fill="#A49D9D"/>
<path d="M62.6995 57.2139C62.629 57.1375 62.5321 57.2332 62.5674 57.3157C62.6804 57.5776 62.8022 57.8334 62.9284 58.0903C63.0253 58.2904 63.1222 58.5183 63.3262 58.6202C63.4026 58.6576 63.5097 58.6117 63.5068 58.5158C63.498 58.283 63.3424 58.1122 63.2249 57.917C63.0738 57.6661 62.8991 57.4285 62.6995 57.2139Z" fill="#A49D9D"/>
<path d="M58.3293 61.8496C58.3048 61.7999 58.2358 61.8363 58.2444 61.886C58.3293 62.3213 58.3034 62.7989 58.2775 63.2389C58.2617 63.5419 58.1524 63.9202 58.3609 64.1652C58.3868 64.1955 58.4415 64.1942 58.4688 64.1652C58.696 63.9068 58.6026 63.4184 58.5997 63.0922C58.5968 62.6401 58.5407 62.2509 58.3293 61.8496Z" fill="#A49D9D"/>
<path d="M56.9662 64.336C56.9347 64.2899 56.8574 64.3178 56.8746 64.3736C56.9719 64.69 57.0177 65.0282 57.0692 65.3544C57.1079 65.6101 57.0335 65.969 57.251 66.1447C57.2782 66.1689 57.3126 66.1702 57.3398 66.1447C57.5559 65.9605 57.4442 65.6465 57.4085 65.3967C57.3498 64.9978 57.1852 64.6645 56.9662 64.336Z" fill="#A49D9D"/>
<path d="M69.9329 60.0567C69.6322 59.8931 69.3208 59.7936 68.9823 59.7499C68.8508 59.733 68.7949 59.9476 68.9143 59.9998C69.2271 60.1367 69.5264 60.3112 69.8241 60.4785C70.0432 60.6021 70.2367 60.795 70.5027 60.738C70.5646 60.7235 70.5918 60.6567 70.5812 60.6009C70.5223 60.3064 70.1702 60.184 69.9329 60.0567Z" fill="#A49D9D"/>
<path d="M44.1578 65.1835C43.9121 65.5593 43.8041 66.0285 43.7149 66.4624C43.6704 66.6843 43.426 67.2699 43.696 67.4226C43.9769 67.5826 44.0376 66.9207 44.0579 66.8055C44.1497 66.2891 44.251 65.7726 44.3279 65.2551C44.3441 65.1531 44.2199 65.0902 44.1578 65.1835Z" fill="#A49D9D"/>
<path d="M43.0794 63.4475C42.7557 63.8487 42.4252 64.4961 42.5931 65.0234C42.6428 65.181 42.8483 65.1713 42.9021 65.0234C42.9853 64.7919 42.9826 64.5289 43.0203 64.2852C43.0579 64.0221 43.1196 63.7638 43.1761 63.5045C43.1881 63.4523 43.1197 63.399 43.0794 63.4475Z" fill="#A49D9D"/>
<path d="M40.4649 57.2283C40.2193 57.4344 40.072 57.7108 39.9393 57.9994C39.8119 58.2782 39.6486 58.6745 39.7203 58.9826C39.7322 59.037 39.7853 59.0964 39.8437 59.1049C39.8583 59.1073 39.8756 59.1122 39.8902 59.1122C39.9486 59.1073 40.0163 59.0818 40.0415 59.0249C40.1623 58.7534 40.1915 58.4322 40.2897 58.1472C40.3906 57.8636 40.4914 57.5812 40.571 57.2901C40.5896 57.2247 40.5113 57.1883 40.4649 57.2283Z" fill="#A49D9D"/>
<path d="M49.2385 58.3656C49.2122 58.3425 49.1776 58.3595 49.1735 58.3922C49.1333 58.7656 49.2911 59.1838 49.341 59.556C49.3852 59.8907 49.305 60.293 49.5292 60.5598C49.5541 60.5913 49.615 60.5924 49.6399 60.5598C49.8711 60.2701 49.7354 59.8543 49.6856 59.5088C49.6316 59.1389 49.5292 58.6262 49.2385 58.3656Z" fill="#A49D9D"/>
<path d="M52.9648 59.4263C53.0841 58.9341 52.8357 58.1801 52.3541 57.9619C52.2839 57.929 52.2236 58.0067 52.2727 58.0661C52.6195 58.4808 52.538 58.9487 52.6714 59.4263C52.7121 59.5681 52.9283 59.5742 52.9648 59.4263Z" fill="#A49D9D"/>
<path d="M58.1715 55.7532C58.1397 55.7397 58.1238 55.7883 58.1498 55.8064C58.6639 56.1761 58.8415 56.8453 59.2877 57.2673C59.4307 57.403 59.6386 57.2333 59.5534 57.0624C59.2747 56.5035 58.7491 55.9835 58.1715 55.7532Z" fill="#A49D9D"/>
<path d="M66.8947 52.2167C66.523 52.0664 66.1527 51.9694 65.7497 51.9864C65.69 51.9901 65.6571 52.0761 65.7168 52.1064C66.0542 52.2737 66.4065 52.4094 66.7409 52.5817C66.9872 52.7077 67.226 52.9236 67.5127 52.8786C67.5619 52.8701 67.5784 52.8156 67.5709 52.7744C67.5216 52.47 67.1529 52.3211 66.8947 52.2167Z" fill="#A49D9D"/>
<path d="M71.3047 48.2149C71.5327 48.3277 71.7638 48.5203 72.0162 48.404C72.0557 48.3859 72.0679 48.335 72.0588 48.295C72.001 48.0282 71.6757 47.9663 71.4476 47.8754C71.0949 47.7323 70.727 47.6367 70.359 47.5409C70.318 47.53 70.3028 47.5821 70.3332 47.6051C70.6373 47.8391 70.9581 48.044 71.3047 48.2149Z" fill="#A49D9D"/>
<path d="M73.086 43.7027C73.1669 43.7064 73.2219 43.6082 73.1776 43.5404C72.8125 42.979 71.7602 42.9476 71.2042 43.1924C71.1691 43.2081 71.1889 43.2553 71.221 43.2579C71.5448 43.2808 71.8564 43.3051 72.1726 43.3936C72.4826 43.4809 72.7652 43.6882 73.086 43.7027Z" fill="#A49D9D"/>
<path d="M69.7055 34.6059C69.6571 34.6265 69.695 34.6931 69.7389 34.6858C70.1628 34.6131 70.5747 34.8119 70.991 34.7113C71.0425 34.6979 71.0562 34.6313 71.0213 34.5938C70.6655 34.2228 70.1113 34.4337 69.7055 34.6059Z" fill="#A49D9D"/>
<path d="M71.5746 31.9727C71.882 32.0455 72.1924 31.9655 72.5014 31.9183C72.8409 31.8674 73.1911 31.9013 73.4955 31.7242C73.5429 31.6976 73.546 31.6211 73.4955 31.5933C73.2309 31.4503 72.9847 31.4891 72.6926 31.5327C72.3117 31.5884 71.8774 31.6201 71.5593 31.8504C71.5149 31.8819 71.5134 31.9582 71.5746 31.9727Z" fill="#A49D9D"/>
<path d="M34.4533 61.9078C34.2506 62.1539 34.0995 62.4254 33.9575 62.7091C33.8348 62.9576 33.6528 63.2741 33.645 63.5541C33.6386 63.742 33.8684 63.7638 33.9639 63.6414C34.1202 63.4389 34.1847 63.1346 34.2854 62.9018C34.4055 62.6218 34.5166 62.3345 34.6508 62.0605C34.7089 61.9404 34.5488 61.7926 34.4533 61.9078Z" fill="#A49D9D"/>
<path d="M32.4898 62.6837C32.1165 63.0366 31.8147 63.4075 31.7163 63.9288C31.6626 64.21 32.0449 64.3156 32.1421 64.0464C32.2993 63.6172 32.4707 63.193 32.6318 62.7662C32.6637 62.6814 32.5487 62.6292 32.4898 62.6837Z" fill="#A49D9D"/>
<path d="M31.1373 56.4489C30.7752 56.6889 30.4628 57.0587 30.5021 57.5206C30.5199 57.7158 30.8146 57.7848 30.8629 57.5702C30.9416 57.2102 31.0725 56.8903 31.2618 56.5726C31.3062 56.4975 31.2148 56.398 31.1373 56.4489Z" fill="#A49D9D"/>
<path d="M25.9412 56.2077C25.4707 56.3507 24.7762 56.8696 24.8653 57.4248C24.8752 57.4976 24.9631 57.5133 25.0188 57.4879C25.259 57.3752 25.363 57.1327 25.519 56.9302C25.6812 56.7206 25.8607 56.5253 26.0242 56.3143C26.0638 56.2622 25.9982 56.1908 25.9412 56.2077Z" fill="#A49D9D"/>
<path d="M21.3404 58.5643C20.7754 58.7219 20.1196 59.2808 19.9656 59.8651C19.9329 59.9912 20.025 60.0894 20.1329 60.1112C20.1244 60.1124 20.1172 60.1149 20.1087 60.1173C20.1256 60.1233 20.1438 60.1185 20.162 60.1185C20.1741 60.1185 20.1863 60.1209 20.1984 60.1185C20.2408 60.11 20.282 60.093 20.3087 60.0652C20.5148 59.8542 20.6494 59.5681 20.8312 59.3341C21.0058 59.1087 21.2034 58.8844 21.4167 58.6953C21.4774 58.6419 21.4131 58.5437 21.3404 58.5643Z" fill="#A49D9D"/>
<path d="M19.5837 57.0853C19.2322 57.3363 18.6685 57.6588 18.6648 58.1425C18.6648 58.1946 18.7206 58.2443 18.7727 58.2249C19.1837 58.0673 19.4383 57.5278 19.6832 57.1848C19.7256 57.1266 19.6419 57.0429 19.5837 57.0853Z" fill="#A49D9D"/>
<path d="M16.9785 60.35C16.7336 60.5755 16.4948 60.7622 16.2912 61.0325C16.1348 61.2398 15.919 61.4787 15.9178 61.749C15.9178 61.829 15.9978 61.8605 16.0632 61.8327C16.2839 61.7357 16.3845 61.492 16.5106 61.2993C16.6948 61.018 16.8233 60.6701 17.0403 60.4119C17.0767 60.3694 17.0197 60.3124 16.9785 60.35Z" fill="#A49D9D"/>
<path d="M20.1002 52.9829C19.7462 53.0872 19.4419 53.2787 19.1461 53.4969C18.8964 53.6812 18.5024 53.8921 18.3957 54.1964C18.3557 54.3092 18.4587 54.4304 18.5727 54.4292C18.8758 54.4256 19.1328 54.0958 19.334 53.8994C19.6092 53.6339 19.8686 53.3357 20.162 53.0896C20.2129 53.0472 20.1584 52.9647 20.1002 52.9829Z" fill="#A49D9D"/>
<path d="M22.3141 49.7629C22.2259 49.872 22.2688 50.0891 22.4427 50.0733C22.967 50.026 23.4496 49.5023 23.8697 49.2284C23.904 49.2065 23.8954 49.1423 23.8489 49.1472C23.5818 49.1762 23.3369 49.2247 23.0895 49.3362C22.8469 49.4453 22.4868 49.552 22.3141 49.7629Z" fill="#A49D9D"/>
<path d="M19.7765 48.963C20.0384 48.7363 20.3475 48.5472 20.6348 48.3556C20.67 48.3326 20.6566 48.2817 20.6154 48.2805C20.2493 48.2623 19.9293 48.3774 19.6201 48.5666C19.3571 48.729 18.9776 48.9763 18.9801 49.3145C18.9813 49.4103 19.071 49.4721 19.1607 49.4527C19.4165 49.3933 19.5826 49.1303 19.7765 48.963Z" fill="#A49D9D"/>
<path d="M15.114 49.1375C14.7794 49.2806 14.4582 49.4055 14.1575 49.6164C13.9187 49.7837 13.5962 49.9728 13.5538 50.2832C13.5453 50.3413 13.5793 50.4201 13.652 50.4117C13.9308 50.3801 14.0945 50.1777 14.2957 49.9971C14.5758 49.7437 14.8546 49.4443 15.1746 49.2442C15.2437 49.2006 15.1843 49.1072 15.114 49.1375Z" fill="#A49D9D"/>
<path d="M10.203 50.4505C9.89022 50.6808 9.34712 50.9026 9.21498 51.2821C9.19679 51.3379 9.2465 51.39 9.29984 51.3924C9.66595 51.4094 10.0054 51.0178 10.2794 50.7984C10.6976 50.465 11.0831 50.1134 11.4529 49.7267C11.4965 49.6819 11.4407 49.6067 11.3862 49.6394C10.9752 49.8904 10.5897 50.1644 10.203 50.4505Z" fill="#A49D9D"/>
<path d="M10.7425 46.9045C10.6989 47.0475 10.8759 47.2027 11.008 47.1081C11.3911 46.8317 11.6493 46.3771 12.0578 46.1201C12.1015 46.0934 12.0712 46.0328 12.0239 46.0401C11.5256 46.1189 10.905 46.371 10.7425 46.9045Z" fill="#A49D9D"/>
<path d="M15.2462 46.1686C14.8692 46.3578 14.2448 46.4996 14.0266 46.8803C13.9769 46.9663 14.0375 47.1082 14.1491 47.0948C14.5758 47.0488 15.0886 46.5905 15.3056 46.228C15.3298 46.1892 15.2838 46.1504 15.2462 46.1686Z" fill="#A49D9D"/>
<path d="M14.4957 41.7171C14.1223 41.922 13.6859 42.1535 13.4035 42.476C13.2725 42.6263 13.4362 42.8433 13.6156 42.7512C13.9878 42.5596 14.3321 42.265 14.6739 42.0238C15.0207 41.7777 15.3504 41.5437 15.6656 41.2588C15.6911 41.2346 15.6656 41.1885 15.6317 41.2007C15.2328 41.3425 14.8679 41.5134 14.4957 41.7171Z" fill="#A49D9D"/>
<path d="M15.0789 38.9579C15.051 39.0064 15.0862 39.0718 15.1443 39.0718C15.4632 39.0658 15.7481 38.8464 16.0221 38.7009C16.4221 38.4875 16.85 38.3372 17.2707 38.1699C17.3168 38.1505 17.3143 38.0778 17.2574 38.0778C16.8306 38.0741 16.4367 38.1954 16.0427 38.3505C15.7081 38.4827 15.2644 38.6318 15.0789 38.9579Z" fill="#A49D9D"/>
<path d="M18.9982 40.5897C19.2152 40.6175 19.4007 40.4599 19.5959 40.3775C19.8286 40.2793 20.0493 40.1581 20.2651 40.0296C20.3027 40.0078 20.2905 39.9374 20.242 39.9423C19.848 39.9823 19.0479 40.0138 18.9 40.4612C18.877 40.5303 18.9376 40.5812 18.9982 40.5897Z" fill="#A49D9D"/>
<path d="M19.6456 35.7817C19.9074 35.7138 20.1899 35.6229 20.4118 35.4677C20.4833 35.4168 20.4615 35.2992 20.3669 35.2992C20.0481 35.2955 18.9885 35.2749 18.8903 35.6726C18.8709 35.7538 18.9037 35.8326 18.974 35.8774C19.1607 35.995 19.4528 35.8302 19.6456 35.7817Z" fill="#A49D9D"/>
<path d="M16.9191 33.0746C17.3046 32.9789 17.7398 32.8213 18.0538 32.5788C18.1047 32.5388 18.0587 32.46 18.0041 32.4588C17.6125 32.4491 17.1798 32.5473 16.8076 32.6697C16.5506 32.7546 16.6548 33.1401 16.9191 33.0746Z" fill="#A49D9D"/>
<path d="M11.3608 32.5595C11.065 32.7183 10.4467 32.9522 10.3412 33.3074C10.3012 33.4469 10.4346 33.5644 10.5679 33.5341C10.9037 33.4614 11.2165 33.1717 11.5063 32.9898C12.0481 32.6504 12.6288 32.3982 13.1938 32.0976C13.2604 32.0624 13.2289 31.9557 13.155 31.9569C12.5052 31.9654 11.9209 32.26 11.3608 32.5595Z" fill="#A49D9D"/>
<path d="M15.4922 29.154C15.8026 29.1031 16.1202 29.0922 16.4124 28.9674C16.4451 28.9528 16.4451 28.8946 16.4124 28.8813C16.0172 28.714 15.057 28.5661 14.7952 28.9892C14.76 29.0449 14.7843 29.1153 14.8364 29.148C15.0497 29.285 15.2534 29.1941 15.4922 29.154Z" fill="#A49D9D"/>
<path d="M20.6288 26.8604C20.6785 26.8398 20.6785 26.7525 20.6154 26.7574C20.236 26.7889 19.8602 26.8156 19.4819 26.8629C19.2334 26.8932 18.8055 26.8871 18.6867 27.1465C18.6733 27.1756 18.6721 27.2108 18.6976 27.235C18.9097 27.4339 19.2795 27.2678 19.5304 27.2168C19.9099 27.1417 20.2723 27.0071 20.6288 26.8604Z" fill="#A49D9D"/>
<path d="M20.3802 24.4964C20.4299 24.4783 20.4251 24.3958 20.3669 24.3982C19.728 24.4334 18.9922 24.4904 18.4697 24.8892C18.4236 24.9232 18.4297 25.0153 18.5012 25.0092C19.1364 24.9535 19.7801 24.7062 20.3802 24.4964Z" fill="#A49D9D"/>
<path d="M22.3763 36.0896C22.6955 35.9842 22.8895 35.6751 23.1375 35.4568C23.4751 35.1574 23.879 34.95 24.2644 34.7185C24.3565 34.664 24.2914 34.5452 24.1981 34.5585C23.7525 34.6215 23.3683 34.841 23.0147 35.1077C22.7127 35.3356 22.3236 35.6132 22.2732 36.0108C22.2683 36.063 22.3309 36.1054 22.3763 36.0896Z" fill="#A49D9D"/>
<path d="M22.3914 43.5466C22.6355 43.3235 22.9004 43.1162 23.1518 42.9015C23.2104 42.8519 23.1481 42.7621 23.081 42.7792C22.4731 42.9391 21.7078 43.4338 21.5382 44.0727C21.5211 44.1357 21.5894 44.1866 21.6456 44.1551C21.9324 43.9975 22.1509 43.766 22.3914 43.5466Z" fill="#A49D9D"/>
<path d="M28.7124 53.8558C28.5786 53.9928 28.079 54.3626 28.2178 54.5989C28.3768 54.8717 28.7553 54.3469 28.8398 54.2522C29.183 53.8668 29.5337 53.4898 29.8605 53.0897C29.9072 53.0327 29.8504 52.9575 29.7835 52.989C29.3647 53.1842 29.0278 53.5285 28.7124 53.8558Z" fill="#A49D9D"/>
<path d="M26.7965 51.8665C26.6355 52.0629 26.4296 52.3102 26.5007 52.5709C26.512 52.6121 26.5619 52.646 26.6043 52.629C26.8214 52.5503 26.8701 52.3733 26.9911 52.183C27.177 51.8931 27.3704 51.5853 27.6063 51.3344C27.6387 51.2979 27.5975 51.2506 27.5564 51.2701C27.2419 51.4107 27.0136 51.5998 26.7965 51.8665Z" fill="#A49D9D"/>
<path d="M72.2773 28.6279C72.6895 28.5989 73.1002 28.5929 73.5125 28.6001C73.9801 28.6073 74.4508 28.7298 74.9107 28.6279C74.983 28.6121 74.9846 28.5164 74.9307 28.4789C74.217 28.006 73.011 28.1757 72.2573 28.4739C72.1788 28.5043 72.1819 28.6352 72.2773 28.6279Z" fill="#A49D9D"/>
<path d="M70.2482 30.6742C70.3191 30.6523 70.3191 30.5493 70.2482 30.5286C69.5643 30.325 68.8654 30.4705 68.174 30.5602C68.1227 30.5674 68.1227 30.6354 68.174 30.6414C68.8654 30.7311 69.5643 30.8766 70.2482 30.6742Z" fill="#A49D9D"/>
<path d="M25.4806 27.5529C25.0768 27.4826 24.71 27.4741 24.2976 27.5129C23.9851 27.5431 23.5813 27.6014 23.3467 27.8269C23.2998 27.8729 23.28 27.9468 23.2985 28.0087C23.3751 28.2597 23.7357 28.1117 23.8975 28.0621C24.4099 27.9056 24.9558 27.788 25.4806 27.6826C25.5436 27.6692 25.5461 27.5638 25.4806 27.5529Z" fill="#A49D9D"/>
<path d="M27.8548 30.7275C27.5023 30.8985 27.1561 31.0585 26.8261 31.2694C26.5036 31.4743 26.1186 31.6938 25.9611 32.0574C25.9386 32.1071 25.9748 32.1895 26.0436 32.1629C26.3948 32.0259 26.6723 31.7459 26.9836 31.5386C27.3161 31.3179 27.6361 31.0961 27.9398 30.8366C28.0023 30.782 27.9211 30.6948 27.8548 30.7275Z" fill="#A49D9D"/>
<path d="M24.0711 21.8731C23.9046 21.9568 24.0028 22.1799 24.158 22.1944C24.5567 22.2308 24.9604 22.1145 25.3616 22.0974C25.7652 22.0817 26.1776 22.0913 26.5825 22.1096C26.6657 22.1132 26.7079 21.9823 26.6272 21.9459C25.882 21.6222 24.82 21.4974 24.0711 21.8731Z" fill="#A49D9D"/>
<path d="M29.9118 19.7017C30.0128 19.7417 30.0949 19.5902 30.0179 19.5211C29.4029 18.9791 28.3004 18.6554 27.4935 18.7695C27.4139 18.7816 27.4215 18.887 27.4745 18.9247C28.1564 19.4131 29.1389 19.3877 29.9118 19.7017Z" fill="#A49D9D"/>
<path d="M67.4017 27.0118C67.3446 27.036 67.3882 27.1196 67.4423 27.1076C68.0559 26.9815 68.7145 27.1136 69.31 26.9306C69.3686 26.9112 69.3686 26.8299 69.31 26.8118C68.701 26.6239 67.9792 26.7669 67.4017 27.0118Z" fill="#A49D9D"/>
<path d="M68.0567 21.5239C67.525 21.7167 67.0867 22.0149 66.6575 22.3701C66.6258 22.3956 66.665 22.4453 66.6996 22.4246C67.1922 22.129 67.7856 21.9809 68.3324 21.8113C68.7722 21.6742 69.3732 21.6512 69.7211 21.3313C69.7678 21.2888 69.7392 21.2185 69.688 21.2002C69.1924 21.0293 68.5192 21.3566 68.0567 21.5239Z" fill="#A49D9D"/>
<path d="M65.0322 20.3943C65.8022 19.9469 66.6199 19.6136 67.4407 19.2754C67.4914 19.2547 67.4914 19.1699 67.4272 19.1723C66.4588 19.2014 65.6604 19.6609 64.962 20.3021C64.9113 20.3482 64.9755 20.427 65.0322 20.3943Z" fill="#A49D9D"/>
<path d="M57.3952 18.4933C57.2803 18.6181 57.1495 18.789 57.1064 18.9527C57.0418 19.1854 57.1079 19.1988 57.1208 19.4109C57.1237 19.4642 57.207 19.4813 57.2185 19.4243C57.2314 19.3516 57.3277 19.2472 57.3579 19.177C57.4269 19.017 57.5303 18.8715 57.6453 18.743C57.8551 18.5017 58.1669 18.4193 58.3882 18.2047C58.4787 18.1151 58.4069 17.9719 58.289 17.9659C57.9384 17.9453 57.618 18.252 57.3952 18.4933Z" fill="#A49D9D"/>
<path d="M75.7564 51.8046C75.4793 51.6155 75.1945 51.4398 74.9237 51.2409C74.8509 51.1864 74.789 51.2966 74.8355 51.3548C75.0243 51.5936 75.2394 51.8179 75.4824 51.9998C75.744 52.1939 76.0256 52.4738 76.3507 52.5296C76.4389 52.5453 76.5318 52.4556 76.4745 52.366C76.3104 52.1053 76.0071 51.9744 75.7564 51.8046Z" fill="#A49D9D"/>
<path d="M36.6148 19.6652C36.6787 19.7076 36.77 19.6216 36.723 19.5574C36.2641 18.9184 35.4883 18.4384 34.8299 18.0372C34.7634 17.9972 34.6787 18.0784 34.7217 18.145C35.1702 18.8324 35.9407 19.2227 36.6148 19.6652Z" fill="#A49D9D"/>
<path d="M39.9215 17.1297C40.2377 17.3963 40.5486 17.7478 40.7173 18.1286C40.7346 18.171 40.809 18.1504 40.8023 18.1055C40.7465 17.6425 40.6177 17.2617 40.2975 16.9017C40.0676 16.6435 39.5867 16.1683 39.216 16.3441C39.1748 16.3635 39.1655 16.412 39.1722 16.452C39.228 16.7659 39.6983 16.9417 39.9215 17.1297Z" fill="#A49D9D"/>
<path d="M40.6039 12.696C40.6146 13.4877 41.0639 14.3011 41.4651 14.957C41.4905 14.997 41.5638 14.9715 41.5451 14.923C41.2758 14.1871 41.2492 13.313 40.8905 12.6184C40.8199 12.4802 40.6012 12.5468 40.6039 12.696Z" fill="#A49D9D"/>
<path d="M43.4713 15.8671C43.4699 16.3217 43.6374 16.7145 43.7886 17.1364C43.9317 17.5328 44.06 17.9462 44.2491 18.322C44.2774 18.3778 44.3639 18.3512 44.3639 18.2917C44.3503 17.5037 44.2707 16.3375 43.6157 15.8077C43.5617 15.7629 43.4713 15.7871 43.4713 15.8671Z" fill="#A49D9D"/>
<path d="M43.5968 12.0016C43.7979 12.1834 43.9693 12.4526 44.0328 12.7194C44.0503 12.7958 44.1839 12.8041 44.1961 12.7194C44.2433 12.3678 44.2123 12.1131 44.0044 11.8113C43.8506 11.5895 43.6157 11.3894 43.3458 11.4998C43.3026 11.5167 43.2797 11.5519 43.2891 11.6004C43.331 11.8186 43.4349 11.8549 43.5968 12.0016Z" fill="#A49D9D"/>
<path d="M49.009 19.0509C49.2691 18.4253 49.7505 17.664 49.597 16.9656C49.5845 16.9124 49.507 16.8905 49.4697 16.933C49.0049 17.47 48.9869 18.3598 48.9177 19.0374C48.9122 19.0944 48.991 19.0944 49.009 19.0509Z" fill="#A49D9D"/>
<path d="M52.731 16.2628C53.2503 15.0856 54.1252 13.8055 54.2607 12.5108C54.2678 12.4454 54.1732 12.409 54.1309 12.4562C53.2913 13.4322 52.8552 14.9826 52.6506 16.2289C52.6436 16.2738 52.7085 16.3113 52.731 16.2628Z" fill="#A49D9D"/>
<path d="M55.7023 15.8917C56.0242 15.5147 56.3977 15.1849 56.711 14.7995C57.0601 14.3678 57.2633 13.986 57.4378 13.4659C57.465 13.3835 57.3548 13.3228 57.2962 13.3835C56.9342 13.7593 56.6623 14.0987 56.3891 14.5521C56.1344 14.9789 55.9212 15.4348 55.6479 15.8492C55.6265 15.8833 55.6766 15.9232 55.7023 15.8917Z" fill="#A49D9D"/>
<path d="M56.4556 9.74559C56.7542 9.43998 57.1145 9.16365 57.4361 8.88244C57.6543 8.69325 58.2356 8.35993 58.2127 8.03379C58.2098 7.99747 58.1926 7.95498 58.1581 7.93919C57.8165 7.78043 57.4131 8.27021 57.1949 8.4762C56.8274 8.82172 56.5877 9.24246 56.3839 9.68975C56.3623 9.73583 56.4169 9.7855 56.4556 9.74559Z" fill="#A49D9D"/>
<path d="M59.0741 11.0542C59.4361 10.5887 59.94 10.2759 60.2325 9.75825C60.2789 9.67832 60.1891 9.58855 60.1094 9.63474C59.5939 9.9268 59.1827 10.4359 58.9858 11.0034C58.9699 11.0518 59.0408 11.0968 59.0741 11.0542Z" fill="#A49D9D"/>
<path d="M64.8462 17.0399C64.9068 16.9998 64.8684 16.9163 64.8005 16.9272C63.7995 17.1029 62.9122 17.5637 62.168 18.2546C62.1238 18.297 62.1799 18.3661 62.2315 18.337C63.0878 17.8643 64.0298 17.5854 64.8462 17.0399Z" fill="#A49D9D"/>
<path d="M68.9408 16.5003C69.9204 16.2529 70.9607 15.9923 71.7626 15.3534C71.8051 15.3183 71.7702 15.2395 71.717 15.2431C70.6995 15.3329 69.7594 15.8663 68.8815 16.3609C68.8041 16.4045 68.8573 16.5208 68.9408 16.5003Z" fill="#A49D9D"/>
<path d="M71.1758 18.9137C72.0869 18.5621 72.9827 18.3378 73.8005 17.785C73.8602 17.745 73.8219 17.6614 73.753 17.6735C72.7637 17.8419 71.9766 18.2784 71.1283 18.7961C71.067 18.8324 71.1053 18.9404 71.1758 18.9137Z" fill="#A49D9D"/>
<path d="M78.8456 15.7459C78.8971 15.7132 78.8924 15.621 78.8253 15.6078C77.8317 15.3931 76.6381 15.8744 75.7976 16.3836C75.7492 16.4115 75.7805 16.4928 75.8351 16.4745C76.7897 16.146 77.9723 16.2733 78.8456 15.7459Z" fill="#A49D9D"/>
<path d="M30.1044 16.3162C30.1866 16.3283 30.251 16.2192 30.1663 16.1731C29.8706 16.0107 29.5547 15.8846 29.2501 15.7439C28.9822 15.6216 28.7446 15.4579 28.4476 15.4215C28.392 15.4155 28.3591 15.4883 28.3844 15.5306C28.694 16.0409 29.5547 16.2373 30.1044 16.3162Z" fill="#A49D9D"/>
<path d="M23.8896 16.1077C24.351 16.2144 24.8099 16.2338 25.2774 16.281C25.3267 16.2858 25.3267 16.2167 25.2885 16.2011C24.8567 16.0289 24.4398 15.8713 23.9908 15.744C23.707 15.664 23.2716 15.4518 22.9916 15.5997C22.9447 15.6252 22.9361 15.6833 22.9583 15.7282C23.1075 16.0241 23.6047 16.0422 23.8896 16.1077Z" fill="#A49D9D"/>
<path d="M21.2039 14.5529C21.5074 14.4996 21.8183 14.4801 22.1169 14.405C22.1473 14.3977 22.1473 14.3517 22.1169 14.3444C21.709 14.2426 20.8215 14.1044 20.5374 14.5154C20.4937 14.5784 20.5544 14.6438 20.6163 14.6511C20.8094 14.6778 21.0109 14.5857 21.2039 14.5529Z" fill="#A49D9D"/>
<path d="M36.9656 12.1733C37.0061 12.2509 37.1118 12.1938 37.0988 12.1175C37.0296 11.7344 36.9147 11.367 36.7984 10.9949C36.694 10.6542 36.6639 10.2202 36.4067 9.96205C36.3139 9.86868 36.1481 9.9123 36.1141 10.0383C36.0201 10.3803 36.2238 10.7161 36.3662 11.0228C36.5477 11.4168 36.7632 11.7913 36.9656 12.1733Z" fill="#A49D9D"/>
<path d="M39.0595 10.2918C39.0766 10.31 39.1096 10.2967 39.1083 10.2712C39.0925 9.78878 38.817 9.37528 38.523 9.00792C38.1355 8.52548 37.6504 7.84176 37.0691 7.5896C37.0032 7.56178 36.9347 7.60779 36.9492 7.68292C37.0573 8.19581 37.5094 8.56067 37.8521 8.92922C38.2633 9.37291 38.6324 9.86629 39.0595 10.2918Z" fill="#A49D9D"/>
<path d="M41.0861 8.82484C41.138 8.86598 41.2338 8.8114 41.1859 8.74724C40.7533 8.16165 40.471 7.45973 39.868 7.03056C39.8041 6.9869 39.7322 7.05851 39.7469 7.12267C39.9146 7.83805 40.5216 8.38596 41.0861 8.82484Z" fill="#A49D9D"/>
<path d="M35.498 6.39218C35.5498 6.43588 35.6159 6.37039 35.5719 6.31826C35.188 5.86844 34.9067 5.25626 34.2531 5.15201C34.1805 5.14112 34.1131 5.20894 34.1533 5.28051C34.458 5.80296 35.0597 6.01756 35.498 6.39218Z" fill="#A49D9D"/>
<path d="M59.8311 7.28802C59.8732 6.95342 60.1174 6.59091 60.3369 6.34962C60.5767 6.08304 60.9343 5.93391 61.1465 5.64407C61.1799 5.60177 61.1349 5.53868 61.0869 5.53985C60.6683 5.54595 60.2947 5.89262 60.0389 6.19322C59.7468 6.53872 59.7075 6.85995 59.7308 7.28802C59.7351 7.35343 59.8238 7.3498 59.8311 7.28802Z" fill="#A49D9D"/>
<path d="M51.979 21.3069C52.1616 21.0789 52.3428 20.8595 52.5128 20.6207C52.6055 20.4861 52.6926 20.3455 52.7839 20.2098C52.9117 20.0169 53.0803 19.8703 53.1758 19.6605C53.2264 19.5466 53.1225 19.4303 53.0045 19.4884C52.3751 19.8024 52.2038 20.6825 51.9116 21.2535C51.8891 21.2959 51.9481 21.3468 51.979 21.3069Z" fill="#A49D9D"/>
<path d="M43.7234 21.6814C43.7544 21.7033 43.7948 21.6607 43.7759 21.6304C43.5672 21.308 43.3638 20.9868 43.1402 20.6764C42.9813 20.4558 42.7348 20.0885 42.4371 20.069C42.39 20.0667 42.3469 20.1114 42.3482 20.1563C42.3604 20.4461 42.6728 20.697 42.8479 20.9031C43.0971 21.1989 43.4015 21.4632 43.7234 21.6814Z" fill="#A49D9D"/>
<path d="M28.9915 22.7057C28.942 22.7215 28.9319 22.776 28.9623 22.8136C29.1386 23.0294 29.4378 23.0257 29.6977 23.056C30.101 23.1022 30.4763 23.0464 30.8732 23.0003C30.9327 22.9943 30.9327 22.9154 30.8732 22.9082C30.5625 22.8718 30.2531 22.8233 29.9412 22.7905C29.6419 22.759 29.2869 22.6159 28.9915 22.7057Z" fill="#A49D9D"/>
<path d="M28.4491 24.7229C28.5394 24.7108 28.5833 24.5642 28.473 24.5459C27.7923 24.4321 27.0853 24.1677 26.3971 24.1835C26.3168 24.1859 26.3018 24.2817 26.3582 24.3253C26.9248 24.7558 27.7634 24.814 28.4491 24.7229Z" fill="#A49D9D"/>
<path d="M25.5602 36.8535C25.8905 36.5348 26.1348 36.1153 26.4278 35.7613C26.7194 35.4048 27.0423 35.0703 27.3751 34.7514C27.4312 34.6993 27.3601 34.6072 27.2941 34.6472C26.8865 34.8981 26.5474 35.2072 26.2246 35.5588C25.9117 35.9007 25.5602 36.2765 25.3446 36.6875C25.2735 36.8244 25.4455 36.9627 25.5602 36.8535Z" fill="#A49D9D"/>
<path d="M29.4406 32.1932C29.8561 31.9083 30.2907 31.6658 30.7125 31.3906C30.7569 31.3603 30.729 31.2803 30.6733 31.2996C30.1969 31.4585 29.6255 31.5979 29.2987 32.0113C29.2239 32.1059 29.3215 32.2744 29.4406 32.1932Z" fill="#A49D9D"/>
<path d="M29.0004 28.1466C28.4212 28.2823 27.8444 28.36 27.2866 28.5817C27.0994 28.6557 27.1685 28.9455 27.3733 28.8909C27.9588 28.7309 28.4739 28.4436 29.0243 28.2048C29.0595 28.189 29.0343 28.1381 29.0004 28.1466Z" fill="#A49D9D"/>
<path d="M68.7336 49.7013C68.7966 49.6977 68.8371 49.6189 68.7861 49.5717C68.39 49.2007 67.7943 48.9158 67.2601 48.8091C67.1805 48.7934 67.128 48.9 67.2046 48.9413C67.6847 49.2068 68.1544 49.7304 68.7336 49.7013Z" fill="#A49D9D"/>
<path d="M73.5702 40.9096C74.2192 41.0115 74.7988 41.2515 75.4648 41.1072C75.528 41.0939 75.5249 40.9993 75.4648 40.9836C74.8435 40.8296 74.2192 40.7326 73.5841 40.8066C73.5301 40.8126 73.5054 40.8999 73.5702 40.9096Z" fill="#A49D9D"/>
<path d="M66.356 32.9207C66.4169 32.8927 66.4184 32.7849 66.356 32.7581C65.6771 32.466 64.8971 32.7558 64.2464 32.9837C64.1944 33.0019 64.2152 33.083 64.2686 33.0686C64.9461 32.8915 65.7023 33.2031 66.356 32.9207Z" fill="#A49D9D"/>
<path d="M65.0433 29.7347C65.1142 29.6983 65.0743 29.5965 65.0034 29.5928C64.2173 29.5479 63.4504 29.8765 62.7455 30.1929C62.7071 30.2087 62.7263 30.2718 62.7662 30.2693C63.5302 30.2122 64.3518 30.0766 65.0433 29.7347Z" fill="#A49D9D"/>
<path d="M61.5202 21.5225C61.9824 21.0267 62.7703 20.8885 63.3602 20.5902C63.4248 20.5587 63.394 20.4581 63.325 20.4593C62.5444 20.4787 61.7887 20.6945 61.3881 21.4194C61.3427 21.5018 61.4542 21.594 61.5202 21.5225Z" fill="#A49D9D"/>
<path d="M85.3894 34.0871C85.1346 33.8834 84.8013 33.8519 84.4888 33.7743C84.0915 33.6748 83.6957 33.613 83.2951 33.5319C83.2374 33.521 83.1925 33.6058 83.2518 33.6336C83.5883 33.7887 83.9056 33.9307 84.2661 34.0301C84.6138 34.1259 84.992 34.2919 85.3541 34.2239C85.4102 34.213 85.4358 34.1246 85.3894 34.0871Z" fill="#A49D9D"/>
<path d="M77.6856 29.5324C77.51 29.5518 77.51 29.7845 77.6856 29.8052C78.0071 29.8439 78.3269 29.8767 78.6499 29.9046C79.0106 29.9361 79.3587 30.0573 79.7178 30.1119C79.7726 30.1204 79.8417 30.0633 79.8009 30.0053C79.3477 29.3699 78.3693 29.4511 77.6856 29.5324Z" fill="#A49D9D"/>
<path d="M69.0649 24.6078C69.0422 24.6562 69.1012 24.7108 69.142 24.6671C69.375 24.4271 69.6186 24.2041 69.8698 23.9834C70.1542 23.7313 70.5113 23.5979 70.8199 23.3845C70.8744 23.347 70.8547 23.2633 70.7867 23.2597C70.015 23.2161 69.3584 23.9737 69.0649 24.6078Z" fill="#A49D9D"/>
<path d="M37.7336 56.1132C37.1911 56.5459 36.8045 57.3133 36.8818 58.0177C36.8975 58.168 37.1386 58.2322 37.1675 58.0565C37.2802 57.3873 37.4204 56.7484 37.8201 56.181C37.8607 56.1252 37.7782 56.078 37.7336 56.1132Z" fill="#A49D9D"/>
<path d="M33.1702 56.3737C33.2795 56.1421 33.2911 55.8791 33.3438 55.6307C33.4171 55.2912 33.5701 54.9978 33.763 54.7153C33.8375 54.6063 33.6807 54.5118 33.5932 54.5844C33.1754 54.9263 32.8243 55.8391 33.0416 56.358C33.0635 56.4065 33.1419 56.4356 33.1702 56.3737Z" fill="#A49D9D"/>
<path d="M62.6092 54.234C62.1646 53.903 61.6117 53.8571 61.0969 53.6921C61.053 53.6776 61.0325 53.7382 61.0676 53.7613C61.524 54.0632 62.0169 54.3493 62.5785 54.3493C62.6443 54.3493 62.656 54.2693 62.6092 54.234Z" fill="#A49D9D"/>
<path d="M64.8175 25.4858C65.2255 25.4324 65.718 25.4518 66.043 25.1766C66.0786 25.1475 66.0622 25.099 66.0296 25.076C65.6187 24.768 65.0979 25.1075 64.7878 25.4105C64.7626 25.4347 64.7775 25.4905 64.8175 25.4858Z" fill="#A49D9D"/>
<path d="M15.919 35.9684C16.0402 35.8399 16.1954 35.7526 16.3081 35.6204C16.33 35.5962 16.336 35.555 16.3081 35.5307C16.0802 35.3319 15.7905 35.4616 15.6026 35.6519C15.3989 35.858 15.7226 36.1793 15.919 35.9684Z" fill="#A49D9D"/>
<path d="M12.1403 29.7238C12.3573 29.6232 12.6519 29.5056 12.8155 29.3286C12.8325 29.3104 12.8349 29.2801 12.8155 29.2632C12.5476 29.0134 12.1197 29.1795 11.8893 29.399C11.7099 29.5699 11.9378 29.8184 12.1403 29.7238Z" fill="#A49D9D"/>
<path d="M15.0013 26.7525C15.2874 26.864 15.6014 26.6749 15.816 26.4858C15.8511 26.4555 15.8378 26.3985 15.8014 26.3767C15.5068 26.1888 15.0498 26.3161 14.9528 26.6652C14.9419 26.7052 14.9661 26.738 15.0013 26.7525Z" fill="#A49D9D"/>
<path d="M11.5244 42.3111C11.5414 42.3523 11.5765 42.3754 11.6214 42.3657C11.8238 42.3208 11.8941 42.1426 12.0045 41.9814C12.1524 41.7668 12.35 41.5886 12.5039 41.3764C12.5209 41.3534 12.4979 41.3182 12.4712 41.3194C12.0881 41.3449 11.3535 41.8686 11.5244 42.3111Z" fill="#A49D9D"/>
<path d="M22.8245 40.6125C23.0101 40.4222 23.2043 40.2489 23.3289 40.0125C23.3448 39.9834 23.3265 39.9398 23.2886 39.9422C22.9368 39.964 22.2455 40.3543 22.32 40.7617C22.3261 40.7944 22.3591 40.8271 22.3921 40.8332C22.6083 40.8732 22.6767 40.7641 22.8245 40.6125Z" fill="#A49D9D"/>
<path d="M22.8689 37.9444C22.5166 37.8037 22.0291 37.9505 21.7195 38.1421C21.5001 38.2765 21.6451 38.6027 21.8913 38.5481C22.229 38.4742 22.6434 38.2826 22.8957 38.0414C22.9298 38.0086 22.9079 37.959 22.8689 37.9444Z" fill="#A49D9D"/>
<path d="M24.1414 25.2384C24.1806 25.2032 24.1561 25.1463 24.1132 25.1305C23.8163 25.0227 23.441 25.0468 23.1381 25.122C22.9001 25.1803 22.9798 25.4918 23.1908 25.5172C23.5097 25.5537 23.901 25.4542 24.1414 25.2384Z" fill="#A49D9D"/>
<path d="M21.9999 22.0221C22.0546 22.0088 22.0643 21.9324 22.0157 21.9057C21.6213 21.6851 21.1468 21.73 20.7985 22.0197C20.6565 22.1361 20.8082 22.3737 20.9745 22.3215C21.3167 22.2136 21.6516 22.1118 21.9999 22.0221Z" fill="#A49D9D"/>
<path d="M32.4277 18.8339C32.4519 18.8326 32.4698 18.8145 32.4711 18.7902C32.48 18.5211 32.2488 18.2302 32.0572 18.0628C31.8106 17.8483 31.4874 18.1732 31.7008 18.4192C31.8681 18.6109 32.1594 18.8436 32.4277 18.8339Z" fill="#A49D9D"/>
<path d="M33.0163 16.1087C33.0548 16.1367 33.1163 16.1003 33.1124 16.0541C33.0855 15.722 32.9484 15.5402 32.696 15.3255C32.5255 15.1801 32.2513 14.8807 32.0066 15.0407C31.6068 15.3049 32.86 15.9984 33.0163 16.1087Z" fill="#A49D9D"/>
<path d="M26.2581 14.9266C26.3015 14.9388 26.3325 14.8987 26.3263 14.8588C26.2482 14.4321 25.7535 14.2091 25.3816 14.061C25.151 13.9689 25.0035 14.2974 25.1535 14.455C25.4238 14.7424 25.8949 14.8272 26.2581 14.9266Z" fill="#A49D9D"/>
<path d="M17.3689 14.8454C17.581 14.849 17.792 14.8515 18.0041 14.8575C18.0393 14.8587 18.0635 14.8163 18.0441 14.7872C17.8914 14.5484 17.6465 14.4587 17.3689 14.489C17.2646 14.5011 17.2004 14.5629 17.1907 14.6672C17.187 14.7048 17.1991 14.7242 17.2149 14.7581C17.2416 14.8127 17.3095 14.8442 17.3689 14.8454Z" fill="#A49D9D"/>
<path d="M38.3828 14.4044C38.5644 14.145 38.7578 13.8395 38.6618 13.5109C38.5999 13.2988 38.3223 13.3193 38.2512 13.5109C38.1512 13.7824 38.238 14.0977 38.2736 14.3753C38.2828 14.4323 38.3486 14.4553 38.3828 14.4044Z" fill="#A49D9D"/>
<path d="M53.7412 10.9852C53.9262 10.7208 54.1296 10.4675 54.3683 10.2456C54.4205 10.1972 54.4417 10.1136 54.4205 10.0457C54.4022 9.97901 54.3894 9.95104 54.3259 9.92195C54.2412 9.88312 54.1465 9.88312 54.0773 9.95345C53.7949 10.2408 53.6593 10.556 53.6325 10.9561C53.6269 11.0191 53.7102 11.0288 53.7412 10.9852Z" fill="#A49D9D"/>
<path d="M60.2182 15.4492C59.9369 15.6202 59.8006 15.8081 59.6802 16.1052C59.6657 16.1378 59.7107 16.1719 59.7397 16.1512C59.947 16.0082 60.1834 15.8918 60.4009 15.7621C60.601 15.6432 60.4197 15.3293 60.2182 15.4492Z" fill="#A49D9D"/>
<path d="M59.0034 21.0813C59.4388 20.8244 60.0001 20.4583 60.029 19.9091C60.0319 19.8618 59.9755 19.8352 59.9379 19.8559C59.5082 20.0995 59.1061 20.5529 58.9137 21.0123C58.892 21.0644 58.9629 21.1056 59.0034 21.0813Z" fill="#A49D9D"/>
<path d="M65.3417 22.8551C64.9228 22.8441 64.4802 22.809 64.1086 23.0357C64.0657 23.0611 64.0834 23.1278 64.1323 23.1278C64.5364 23.1278 64.9391 23.1654 65.3417 23.1763C65.549 23.1824 65.549 22.8611 65.3417 22.8551Z" fill="#A49D9D"/>
<path d="M67.1352 16.2564C67.3283 16.0576 67.4765 15.8224 67.6592 15.615C67.8628 15.3858 68.0888 15.1799 68.243 14.9107C68.2699 14.8646 68.237 14.7858 68.1756 14.7932C67.5574 14.8646 66.9241 15.6101 67.0948 16.2454C67.1008 16.2636 67.1232 16.2697 67.1352 16.2564Z" fill="#A49D9D"/>
<path d="M74.0553 14.9097C74.3215 14.6855 74.6523 14.534 74.9339 14.3315C75.0416 14.2564 75.0616 14.1267 74.9724 14.0357C74.9247 13.9883 74.8523 13.9689 74.7893 13.9873C74.3538 14.1096 74.0922 14.4418 73.9676 14.8588C73.9507 14.9122 74.0184 14.94 74.0553 14.9097Z" fill="#A49D9D"/>
<path d="M76.4604 31.8478C76.5192 31.8357 76.5239 31.7533 76.4759 31.7254C76.1834 31.5519 75.815 31.575 75.4978 31.6757C75.4529 31.6903 75.4529 31.7508 75.4978 31.7653C75.7996 31.8624 76.1493 31.9073 76.4604 31.8478Z" fill="#A49D9D"/>
<path d="M77.1754 38.01C76.7981 37.902 76.4084 37.7165 76.0078 37.7541C75.9597 37.7589 75.9271 37.8159 75.9659 37.8534C76.2655 38.1371 76.6848 38.2717 77.0667 38.4087C77.1319 38.4318 77.2204 38.4051 77.267 38.3554C77.34 38.2766 77.3384 38.2596 77.3214 38.1542C77.3089 38.0851 77.2406 38.0281 77.1754 38.01Z" fill="#A49D9D"/>
<path d="M73.0859 60.3039C73.1394 60.3065 73.1745 60.2676 73.1929 60.2228C73.2891 59.9779 73.0691 59.7658 72.9423 59.5669C72.8078 59.3536 72.6153 59.122 72.3541 59.0832C72.3143 59.0785 72.2746 59.1075 72.2869 59.1512C72.3556 59.4069 72.5221 59.6482 72.652 59.8774C72.7696 60.0857 72.8262 60.2931 73.0859 60.3039Z" fill="#A49D9D"/>
<path d="M66.9606 59.9064C66.7517 59.7063 66.5562 59.4954 66.2906 59.3741C66.2174 59.3414 66.1264 59.4117 66.1742 59.4905C66.4308 59.8991 66.8905 60.6458 67.4441 60.567C67.4904 60.5597 67.4993 60.5053 67.4829 60.4726C67.3695 60.2228 67.1546 60.0919 66.9606 59.9064Z" fill="#A49D9D"/>
<path d="M72.353 61.6981C72.3117 61.6884 72.2674 61.7321 72.2934 61.7745C72.4935 62.0752 72.6937 62.3916 72.9381 62.6582C72.9839 62.7092 73.0603 62.7249 73.1245 62.708C73.1917 62.691 73.207 62.6802 73.2391 62.6195C73.2712 62.5613 73.2773 62.4849 73.2391 62.4255C73.0313 62.1054 72.7456 61.7745 72.353 61.6981Z" fill="#A49D9D"/>
<path d="M52.5918 61.8605C52.5076 62.2969 52.6045 62.8885 52.8193 63.2764C52.8432 63.3213 52.9218 63.3274 52.9443 63.2764C53.1493 62.8339 52.8966 62.246 52.6719 61.8495C52.6536 61.8181 52.5988 61.8217 52.5918 61.8605Z" fill="#A49D9D"/>
<path d="M54.9252 63.7687C54.894 63.7189 54.8047 63.7372 54.809 63.7989C54.8402 64.1675 54.8855 64.5336 54.9267 64.8998C54.9593 65.1847 54.9196 65.4974 55.1266 65.7181C55.1621 65.7544 55.2216 65.7436 55.2471 65.7023C55.406 65.4478 55.3053 65.1349 55.2656 64.8548C55.2089 64.4683 55.1223 64.1069 54.9252 63.7687Z" fill="#A49D9D"/>
<path d="M47.0016 62.6183C46.7719 62.771 46.6721 63.0159 46.5696 63.2643C46.4766 63.4887 46.2661 63.7893 46.4178 64.0208C46.437 64.0487 46.4643 64.0609 46.4971 64.0536C46.7214 64.0051 46.761 63.7808 46.8239 63.5844C46.9182 63.2934 47.0659 63.0025 47.1083 62.6995C47.1165 62.6437 47.0604 62.577 47.0016 62.6183Z" fill="#A49D9D"/>
<path d="M41.7122 61.183C41.4853 61.3431 41.0194 61.9868 41.3318 62.2316C41.5868 62.4316 41.7977 61.3963 41.8271 61.2727C41.8444 61.2096 41.7723 61.1406 41.7122 61.183Z" fill="#A49D9D"/>
<path d="M37.0985 60.2009C36.8359 60.4215 36.4582 61.0131 36.6516 61.3501C36.6751 61.3889 36.7182 61.3938 36.7561 61.3781C37.0724 61.2398 37.1782 60.5864 37.2292 60.2772C37.2422 60.1984 37.1599 60.1476 37.0985 60.2009Z" fill="#A49D9D"/>
<path d="M30.667 61.4496C30.6758 61.4108 30.6353 61.3817 30.6036 61.3999C30.1439 61.646 29.8223 62.4959 30.054 62.9723C30.0819 63.0293 30.1705 63.0256 30.2009 62.9723C30.3314 62.7359 30.3301 62.4752 30.3947 62.2158C30.4605 61.9503 30.6011 61.7139 30.667 61.4496Z" fill="#A49D9D"/>
<path d="M30.7107 65.2538C30.4978 65.449 30.1189 65.9812 30.29 66.2745C30.314 66.3145 30.3571 66.3267 30.4015 66.3195C30.7513 66.2612 30.826 65.5775 30.8007 65.2914C30.7969 65.2453 30.7475 65.2224 30.7107 65.2538Z" fill="#A49D9D"/>
<path d="M17.2586 56.7604C16.8464 56.7726 16.5772 57.2369 16.399 57.5569C16.3651 57.6175 16.3615 57.6963 16.399 57.7569C16.4112 57.7763 16.4233 57.7945 16.4342 57.8139C16.4512 57.8394 16.4803 57.8612 16.513 57.8588C16.7288 57.8442 16.7615 57.7145 16.8682 57.5375C17.0052 57.3096 17.2149 57.1168 17.324 56.8744C17.3458 56.8247 17.3216 56.758 17.2586 56.7604Z" fill="#A49D9D"/>
<path d="M18.4769 51.5282C18.4684 51.5585 18.4769 51.5961 18.4999 51.6167C18.7679 51.8567 19.3849 51.4639 19.5583 51.2421C19.608 51.1778 19.5752 51.1027 19.4965 51.0918C19.2273 51.0578 18.563 51.2239 18.4769 51.5282Z" fill="#A49D9D"/>
<path d="M22.9381 46.416C22.6162 46.2039 22.1518 46.3311 21.7921 46.3577C21.5166 46.3783 21.5117 46.8088 21.7921 46.7917C22.1761 46.7711 22.6248 46.7287 22.9381 46.4923C22.9649 46.4717 22.9673 46.4366 22.9381 46.416Z" fill="#A49D9D"/>
<path d="M9.22712 49.3351C8.84403 49.403 8.24031 49.7679 8.19303 50.185C8.18334 50.2589 8.27062 50.3122 8.33608 50.2941C8.53611 50.2359 8.6343 50.0916 8.77372 49.9413C8.9398 49.7607 9.13255 49.5982 9.27682 49.3994C9.30106 49.3642 9.26106 49.3291 9.22712 49.3351Z" fill="#A49D9D"/>
<path d="M8.29611 52.5113C7.95304 52.624 7.31658 53.0968 7.40508 53.5054C7.41356 53.5466 7.4572 53.5769 7.49721 53.5769C7.70694 53.5708 7.76755 53.4423 7.88757 53.2847C8.05971 53.0605 8.20883 52.818 8.33854 52.5671C8.35309 52.5392 8.33006 52.5004 8.29611 52.5113Z" fill="#A49D9D"/>
<path d="M10.1424 45.0048C10.4346 45.0618 10.6479 44.7829 10.8843 44.635C11.1462 44.4702 11.482 44.3502 11.6929 44.121C11.7135 44.098 11.7038 44.0628 11.6747 44.0531C11.3717 43.961 11.0722 44.1186 10.7983 44.2398C10.5352 44.3574 10.06 44.5684 10.0636 44.9005C10.0636 44.9466 10.0951 44.9963 10.1424 45.0048Z" fill="#A49D9D"/>
<path d="M8.19668 33.716C8.41368 33.5705 8.50338 33.3159 8.64644 33.1038C8.82707 32.8346 9.07316 32.6297 9.28046 32.3836C9.30834 32.3497 9.29502 32.277 9.23925 32.2842C8.93497 32.323 8.71432 32.4952 8.49247 32.6964C8.26214 32.9049 7.95906 33.2638 7.96755 33.585C7.97119 33.6941 8.09727 33.7826 8.19668 33.716Z" fill="#A49D9D"/>
<path d="M23.3737 33.054C23.3811 33.0977 23.4326 33.1328 23.4756 33.1305C23.6843 33.1182 23.7568 33.0007 23.8833 32.8346C24.0515 32.6152 24.2197 32.4007 24.3756 32.1739C24.394 32.146 24.3633 32.1169 24.3363 32.123C23.9581 32.197 23.3074 32.6164 23.3737 33.054Z" fill="#A49D9D"/>
<path d="M54.7091 21.0715C54.9249 20.9624 55.1307 20.8436 55.3323 20.7127C55.4927 20.6096 55.6077 20.6037 55.6304 20.4061C55.6332 20.3781 55.6133 20.3551 55.5935 20.3405C55.575 20.3271 55.5566 20.3151 55.5381 20.3017C55.4884 20.2654 55.4146 20.2738 55.3635 20.3017C55.0484 20.4751 54.8127 20.6836 54.641 21.0037C54.6183 21.0485 54.6651 21.0934 54.7091 21.0715Z" fill="#A49D9D"/>
<path d="M38.2689 19.9312C38.4353 20.0876 38.6453 20.1821 38.8248 20.3263C38.9754 20.4476 39.1285 20.5857 39.3094 20.6573C39.3411 20.6694 39.3873 20.644 39.3913 20.61C39.4731 20.1493 38.8856 19.6681 38.4881 19.5553C38.2742 19.4947 38.1026 19.7759 38.2689 19.9312Z" fill="#A49D9D"/>
<path d="M32.8092 20.9455C33.0964 21.1928 33.7676 21.274 34.1334 21.1879C34.212 21.1698 34.2288 21.0716 34.1785 21.017C34.0342 20.8619 33.8359 20.7916 33.6336 20.7443C33.4159 20.6934 33.1699 20.5879 32.9457 20.6146C32.7976 20.6327 32.6649 20.823 32.8092 20.9455Z" fill="#A49D9D"/>
<path d="M54.9543 18.0542C55.2723 17.9402 55.6358 17.6674 55.6955 17.3195C55.7083 17.2552 55.66 17.2079 55.5961 17.2189C55.2482 17.2795 54.9741 17.6433 54.8605 17.9608C54.8421 18.0142 54.9003 18.0735 54.9543 18.0542Z" fill="#A49D9D"/>
<path d="M45.7742 15.1463C45.9813 14.7911 46.3301 14.1048 45.9908 13.7436C45.9431 13.6951 45.8628 13.7096 45.8301 13.7642C45.717 13.9461 45.7538 14.128 45.7388 14.3377C45.717 14.6006 45.6884 14.8589 45.6816 15.1208C45.6802 15.1704 45.7497 15.1886 45.7742 15.1463Z" fill="#A49D9D"/>
<path d="M47.0686 20.0015C47.085 20.0232 47.1247 20.016 47.1371 19.993C47.3451 19.5759 47.3615 18.4824 46.8154 18.3115C46.7415 18.2885 46.6881 18.3491 46.6799 18.4158C46.6443 18.7018 46.814 19.0013 46.8483 19.2874C46.8797 19.5432 46.9003 19.7941 47.0686 20.0015Z" fill="#A49D9D"/>
<path d="M73.1562 20.9564C73.3705 20.8825 73.5266 20.8619 73.6873 20.6946C73.7179 20.6643 73.7041 20.6098 73.6612 20.5975C73.2251 20.4812 72.6037 20.7406 72.4782 21.2001C72.4675 21.2413 72.5134 21.2789 72.5517 21.2558C72.746 21.1395 72.9419 21.0304 73.1562 20.9564Z" fill="#A49D9D"/>
<path d="M71.4294 45.3479C71.5067 45.3236 71.5007 45.2243 71.4294 45.1963C70.9607 45.0193 70.275 44.8666 69.823 45.1587C69.7836 45.1854 69.782 45.2605 69.8382 45.2702C70.3357 45.3588 70.9364 45.5031 71.4294 45.3479Z" fill="#A49D9D"/>
<path d="M78.7205 46.3517C78.6828 46.376 78.6938 46.4378 78.7425 46.4378C79.3005 46.4378 79.8129 46.7396 80.3583 46.7045C80.4133 46.7009 80.4463 46.6366 80.4039 46.5955C79.9968 46.1881 79.2109 46.0171 78.7205 46.3517Z" fill="#A49D9D"/>
<path d="M82.8134 51.676C82.5622 51.5633 82.2951 51.5135 82.0217 51.5549C81.9676 51.5633 81.9644 51.642 82.0074 51.6663C82.2458 51.8021 82.4843 51.9392 82.7276 52.0652C82.9533 52.184 83.0932 52.3161 83.3397 52.2107C83.3842 52.1913 83.4065 52.1258 83.3921 52.0821C83.3063 51.8239 83.0471 51.7803 82.8134 51.676Z" fill="#A49D9D"/>
<path d="M72.7928 53.2643C72.4565 53.234 72.1187 53.1637 71.7793 53.1818C71.7319 53.1844 71.712 53.2486 71.7548 53.2739C72.0178 53.4328 72.3174 53.5274 72.617 53.5916C72.8707 53.6462 73.1979 53.7455 73.3889 53.5346C73.4195 53.5006 73.418 53.4571 73.3889 53.4244C73.233 53.2388 73.0236 53.2862 72.7928 53.2643Z" fill="#A49D9D"/>
<path d="M75.9079 50.0844C75.8831 50.1111 75.8909 50.1645 75.9312 50.1718C76.1748 50.2214 76.423 50.2275 76.6666 50.2784C76.8559 50.3171 76.9723 50.3778 77.1243 50.2445C77.146 50.225 77.1522 50.1899 77.146 50.162C77.0374 49.7304 76.15 49.819 75.9079 50.0844Z" fill="#A49D9D"/>
<path d="M57.3925 57.8587C57.3638 57.8273 57.3065 57.8516 57.3079 57.894C57.3136 58.157 57.3896 58.4055 57.4426 58.6625C57.4971 58.9365 57.4498 59.2421 57.6189 59.476C57.6447 59.5123 57.6934 59.5149 57.7192 59.476C57.874 59.2444 57.7981 58.9778 57.7522 58.7171C57.6977 58.4044 57.6132 58.0952 57.3925 57.8587Z" fill="#A49D9D"/>
<path d="M46.8008 57.5677C46.7024 57.8453 46.7216 58.1303 46.7134 58.4212C46.7038 58.7109 46.6068 59.0225 46.7352 59.2917C46.7544 59.3293 46.8049 59.328 46.8323 59.3037C47.0414 59.1147 47.0264 58.8298 47.025 58.5607C47.025 58.2309 47.0182 57.8794 46.902 57.5677C46.8842 57.5181 46.8186 57.5181 46.8008 57.5677Z" fill="#A49D9D"/>
<path d="M42.665 59.3643C42.9965 59.0794 42.9374 58.4115 42.9146 58.0175C42.9106 57.9751 42.8623 57.9641 42.8381 57.9968C42.6006 58.3205 42.4261 58.9522 42.5684 59.3388C42.5831 59.3814 42.6301 59.3946 42.665 59.3643Z" fill="#A49D9D"/>
<path d="M56.2152 28.4849C54.8583 28.2375 54.8698 26.927 55.3718 25.8651C55.4195 25.7948 55.4658 25.7196 55.5136 25.659C56.3887 24.5351 58.1203 24.7316 58.5658 26.1803C58.9405 27.4045 57.3391 28.6897 56.2152 28.4849ZM59.9661 26.3051C59.8967 25.0006 58.8161 24.0624 57.6791 23.6138C56.6159 23.1944 55.4586 23.6622 54.689 24.4152C54.1118 24.9788 53.7762 25.8541 53.7502 26.6943C53.6576 27.4374 53.8818 28.1696 54.3216 28.7539C54.5082 29.08 54.757 29.3819 55.055 29.6401C56.137 30.5772 58.1189 30.9203 59.4005 30.1795C59.4454 30.1541 59.4237 30.0887 59.3759 30.0874C58.6613 30.0571 58.0234 29.9481 57.4071 29.7444C58.8436 29.2825 60.0457 27.8011 59.9661 26.3051Z" fill="#A49D9D"/>
<path d="M38.0723 26.7696C38.1356 27.3903 37.5694 27.9553 37.0137 28.2789C36.561 28.4498 36.103 28.559 35.5817 28.3371C35.5777 28.3359 35.5751 28.3322 35.5711 28.3311C35.3982 28.2231 35.2398 28.0837 35.0986 27.9298C34.6855 27.4776 34.5298 26.9429 34.5707 26.4339C34.9125 24.6081 37.902 25.0918 38.0723 26.7696ZM33.1083 29.2137C33.0462 29.187 32.9881 29.2548 33.0343 29.3093C34.2288 30.7059 36.5254 30.3325 37.8875 29.4295C38.2993 29.1566 38.7124 28.6268 38.9672 28.0402C39.2615 27.52 39.3922 26.9078 39.2628 26.2581C39.0054 24.9597 37.5747 23.9183 36.3129 23.8226C34.865 23.7135 33.5425 24.6833 33.2284 26.1065C32.9446 27.4012 33.6666 28.7215 34.7686 29.3773C34.8954 29.4524 35.0339 29.5118 35.1765 29.5628C34.4756 29.6088 33.7629 29.4912 33.1083 29.2137Z" fill="#A49D9D"/>
<path d="M39.9906 29.6463C42.0857 29.3239 44.0784 28.8256 46.2184 28.7505C48.3738 28.6753 50.6021 29.1227 52.6691 29.6972C52.7715 29.7251 52.8332 29.5797 52.7406 29.5262C49.1408 27.4617 43.5582 27.3406 39.9584 29.5724C39.9163 29.5978 39.9457 29.6536 39.9906 29.6463Z" fill="#A49D9D"/>
<path d="M42.7595 25.8457C42.8024 25.8577 42.8373 25.825 42.8413 25.7838C42.8601 25.5474 42.7729 25.2843 42.6817 25.0698C42.5744 24.8175 42.1453 24.9994 42.2378 25.2564C42.325 25.4952 42.502 25.7716 42.7595 25.8457Z" fill="#A49D9D"/>
<path d="M45.4105 24.4723C45.4322 24.4869 45.4608 24.476 45.4743 24.4554C45.6305 24.2238 45.5708 23.8807 45.5192 23.6201C45.4621 23.3329 45.401 22.9606 45.0818 22.8648C45.0479 22.854 45.0112 22.871 44.9922 22.9012C44.8319 23.1619 44.9745 23.4795 45.0452 23.7523C45.109 23.9984 45.1864 24.3232 45.4105 24.4723Z" fill="#A49D9D"/>
<path d="M41.3247 23.7328C41.2861 23.4249 41.1116 23.1921 40.9105 22.9642C40.7374 22.7654 40.5523 22.3993 40.2579 22.3944C40.234 22.3944 40.2007 22.4102 40.19 22.4343C40.0795 22.6939 40.2979 22.8975 40.4684 23.0769C40.7094 23.3303 40.9651 23.5836 41.2648 23.7679C41.2874 23.7824 41.3287 23.7643 41.3247 23.7328Z" fill="#A49D9D"/>
<path d="M47.987 25.5717C48.1672 25.2007 48.1231 24.7449 48.1768 24.3448C48.2442 23.8671 48.4464 23.375 48.4037 22.8937C48.3996 22.8391 48.3391 22.787 48.2868 22.8258C47.9141 23.09 47.8508 23.5266 47.7944 23.9557C47.7298 24.4418 47.6445 25.1328 47.9182 25.5717C47.932 25.5959 47.9732 25.6007 47.987 25.5717Z" fill="#A49D9D"/>
<path d="M50.7412 24.5933C50.9168 24.3642 51.0213 24.1776 51.1202 23.9047C51.2122 23.6515 51.3571 23.3557 51.3069 23.089C51.2902 22.9955 51.1732 22.9604 51.0979 23.0029C50.6312 23.2659 50.6855 24.1121 50.6604 24.5716C50.6562 24.6201 50.7175 24.6249 50.7412 24.5933Z" fill="#A49D9D"/>
<path d="M51.5131 26.4205C51.943 26.0931 52.3645 25.4906 52.4835 24.9609C52.4933 24.9185 52.4569 24.8761 52.4121 24.8894C51.8184 25.0578 51.6041 25.8543 51.4613 26.3805C51.4543 26.4083 51.4865 26.4399 51.5131 26.4205Z" fill="#A49D9D"/>
<path d="M49.8747 21.0849C50.0135 20.9479 50.452 20.3696 50.0329 20.3344C49.9677 20.3295 49.9039 20.3732 49.8733 20.4265C49.7471 20.6364 49.6929 20.875 49.8525 21.0824C49.8567 21.0897 49.8678 21.0921 49.8747 21.0849Z" fill="#A49D9D"/>
<path d="M64.0127 27.9213C64.0274 27.891 64.0274 27.8521 63.9995 27.8267C63.6994 27.5382 62.986 27.7587 62.6667 27.943C62.6359 27.96 62.6461 28.0013 62.6756 28.0122C63.0183 28.1346 63.8097 28.3529 64.0127 27.9213Z" fill="#A49D9D"/>
<path d="M63.4909 24.4773C62.9742 24.3064 62.478 24.2579 62.042 24.6276C61.9979 24.664 62.0464 24.7246 62.0933 24.7161C62.5587 24.6216 63.027 24.7124 63.4909 24.5731C63.5393 24.5586 63.5379 24.4931 63.4909 24.4773Z" fill="#A49D9D"/>
<path d="M67.8758 36.7019C67.9236 36.6862 67.9281 36.6279 67.8878 36.6001C67.5723 36.3807 67.0551 36.2086 66.7187 36.4862C66.7038 36.4995 66.7083 36.5261 66.7262 36.5359C67.0655 36.7359 67.4991 36.8244 67.8758 36.7019Z" fill="#A49D9D"/>
<path d="M70.9806 41.1655C71.0048 41.1448 71.0018 41.1036 70.9806 41.083C70.6672 40.7824 70.0178 40.8102 69.6197 40.8842C69.5637 40.8951 69.5697 40.9775 69.6197 40.991C70.0223 41.0987 70.6006 41.4831 70.9806 41.1655Z" fill="#A49D9D"/>
<path d="M78.7023 36.2325C78.6694 36.2507 78.6694 36.3004 78.7023 36.3186C79.0239 36.4968 79.6215 36.5721 79.8928 36.2761C79.9227 36.2422 79.9148 36.1963 79.8787 36.1707C79.5792 35.9597 79.0066 36.0617 78.7023 36.2325Z" fill="#A49D9D"/>
<path d="M81.7661 15.4986C81.9167 15.5387 82.4048 15.7181 82.4778 15.4513C82.5982 15.0114 81.11 14.9167 80.8532 14.9942C80.8025 15.0114 80.7914 15.0695 80.8231 15.1071C81.0545 15.3726 81.4444 15.4125 81.7661 15.4986Z" fill="#A49D9D"/>
<path d="M29.839 26.2686C30.0922 26.1851 30.3137 26.1062 30.5339 25.9571C30.5592 25.9389 30.558 25.8965 30.5238 25.8869C30.2934 25.8237 30.101 25.842 29.8707 25.8989C29.6568 25.9511 29.4315 25.9511 29.3606 26.1814C29.3518 26.208 29.3606 26.2457 29.3821 26.2638C29.5416 26.3972 29.6479 26.3329 29.839 26.2686Z" fill="#A49D9D"/>
<path d="M12.6216 3.87048C10.9098 3.76864 9.27929 4.32509 7.68755 4.98821C8.18701 3.90321 8.61253 2.78669 8.75436 1.64834C8.77255 1.50045 8.56888 1.39134 8.45129 1.47499C7.45115 2.18297 6.85833 3.25221 6.37705 4.3857C5.87274 2.89094 5.28841 0.776708 4.12825 0.0129623C4.07612 -0.0197697 4.00096 0.0129604 3.98642 0.0711498C3.63122 1.52469 4.7441 3.66318 5.30176 5.10944C4.1719 4.54209 2.49772 3.66439 1.60547 4.08142C1.5691 4.0996 1.54971 4.15173 1.56183 4.19053C1.85763 5.11429 3.56453 5.77378 4.69439 6.23688C3.19721 6.76665 0.836872 7.34976 0.0209988 8.58994C-0.0129454 8.64207 0.0197889 8.71844 0.077979 8.73177C1.53273 9.08697 3.67122 7.97288 5.11748 7.41523C4.55013 8.54508 3.67243 10.2193 4.08824 11.1115C4.10643 11.1479 4.15977 11.1673 4.19735 11.1552C5.15264 10.8497 5.82667 9.03242 6.29219 7.90741C6.88864 9.57917 7.55056 11.2424 8.4719 12.7154C8.58222 12.8899 8.83558 12.8136 8.84649 12.6148C8.94833 10.9018 8.39188 9.27125 7.72876 7.6795C8.81376 8.18018 9.9315 8.60691 11.0698 8.74754C11.2177 8.76572 11.3268 8.56084 11.2432 8.44446C10.511 7.40916 9.39324 6.80908 8.2161 6.31931C9.78602 5.74953 11.339 5.11308 12.7222 4.24508C12.898 4.13597 12.8204 3.88139 12.6216 3.87048Z" fill="#3A3333"/>
</svg>
