<svg width="59" height="92" viewBox="0 0 59 92" fill="none" xmlns="http://www.w3.org/2000/svg">
<path d="M27.2938 90.4575C22.2699 90.4575 13.034 89.5995 7.62344 83.8493C6.15039 82.284 4.89964 80.4354 3.90586 78.3575C3.89909 78.3437 3.89191 78.3299 3.88445 78.3161C0.976071 72.9237 0.243001 67.7925 1.70555 63.0633C3.31455 57.8603 7.04055 54.7075 10.9853 51.3696C11.6632 50.7962 12.3642 50.2035 13.0589 49.5956C17.8939 45.3707 20.7861 40.6236 22.1606 34.6565C22.5802 32.8356 22.9235 31.0686 23.1809 29.4051C23.184 29.3858 23.1866 29.365 23.1884 29.3443C23.3932 27.0965 23.5001 24.8666 23.6034 22.71C23.6297 22.1615 23.6558 21.6185 23.6831 21.0811C23.6848 21.0479 23.6848 21.0134 23.683 20.9802C23.6541 20.4414 23.6062 19.8763 23.5363 19.2518C23.4925 18.8608 23.2191 18.5348 22.8422 18.4229C22.6555 18.3676 22.5157 18.322 22.3886 18.2778C22.3462 18.2626 22.3028 18.2502 22.2587 18.2419C20.2916 17.8357 19.1554 17.0385 18.8813 15.8725C18.8707 15.8269 18.8566 15.7813 18.8394 15.7371C18.1996 14.1096 18.2811 11.7291 18.4301 10.5782C18.8003 7.72663 20.5679 6.36163 24.3404 6.01761C24.8643 5.96925 25.2566 5.5161 25.229 4.9911C25.1409 3.31247 25.2257 2.83443 25.2425 2.75845C25.7685 1.52883 26.8792 0.978958 28.8394 0.978958C29.627 0.978958 30.4308 1.06739 31.1823 1.1641C32.6939 1.35752 32.9764 1.57581 33.0576 2.13535C33.1796 2.97536 33.2085 3.92036 33.1487 5.10991C33.1353 5.37794 33.2323 5.63906 33.4171 5.83386C33.602 6.02867 33.8584 6.13781 34.1266 6.13781C34.1654 6.13781 34.2136 6.1378 34.2299 6.14056C38.6662 6.75537 40.1843 8.75867 39.6459 13.2861C39.2585 16.5439 38.0862 17.8841 35.1659 18.4049C34.6785 18.492 34.3328 18.9285 34.3603 19.4231L34.4023 20.1789C34.6648 24.915 34.9362 29.8141 35.8183 34.517C35.8888 34.8928 35.9552 35.2934 36.0257 35.7162C36.348 37.6518 36.7133 39.8458 37.7335 41.5037C39.9679 45.1373 43.2274 47.9585 46.3796 50.6857C48.5981 52.6061 50.8923 54.5915 52.7393 56.8034C57.7597 62.8147 58.2402 73.1724 53.7889 79.4213C47.6547 88.0342 36.0366 89.8896 31.3262 90.2875C29.9858 90.4008 28.6295 90.4575 27.295 90.4575C27.2945 90.4575 27.2942 90.4575 27.2938 90.4575Z" fill="#A49D9D"/>
<path d="M31.4087 88.9073C22.4594 89.9946 11.6908 87.9374 6.18643 80.2199C1.09639 73.084 1.62899 61.2452 8.15505 55.2422C13.0897 50.7023 19.1113 47.8092 21.6375 41.1804C24.1549 34.5736 24.6904 26.8202 24.4618 19.7658C27.1805 20.1609 30.3422 19.9509 33.1311 19.6497C33.1717 26.2026 33.5931 32.7942 35.1093 39.1868C36.233 43.9256 40.0378 47.1696 43.4611 50.3928C45.2755 52.1032 47.1599 53.7349 48.9919 55.4232C53.3513 59.4436 55.0999 64.4518 54.9002 70.3125C54.4855 82.4595 41.7406 87.6515 31.4087 88.9073ZM19.7951 11.5951C19.8636 8.55283 21.8281 7.70453 24.4422 7.47795C24.5908 8.94658 24.7851 10.2812 24.9499 10.8159C24.0017 10.6473 23.0643 10.4456 22.1474 10.2328C22.1286 10.2287 22.1124 10.2522 22.1277 10.266C24.0365 12.0247 27.2037 12.3328 29.6784 12.2638C31.8109 12.2044 34.731 11.9059 36.1146 10.0905C36.1815 10.0021 36.0583 9.91507 35.9786 9.95375C35.0975 10.3779 34.193 10.6805 33.2748 10.8919C33.5334 10.2494 33.7965 8.54729 33.9223 7.55255C33.9623 7.56084 33.9975 7.57327 34.0398 7.57742C38.8459 8.16736 38.7948 11.3726 37.9978 15.125C37.378 18.0416 30.6157 17.7072 28.4712 17.8288C25.96 17.9711 22.4764 17.9559 20.3734 16.3132C20.3107 16.2635 20.2543 16.2054 20.1986 16.146C19.6843 14.752 19.7661 12.8841 19.7951 11.5951ZM53.4909 56.1761C48.9823 50.7783 42.2899 47.0438 38.5674 40.9911C37.4366 39.1522 37.168 36.4029 36.7806 34.3374C35.8639 29.448 35.6152 24.3402 35.3379 19.3693C38.6923 18.7697 40.1789 17.0952 40.6181 13.4022C41.2121 8.40499 39.3951 5.86702 34.3657 5.1707C34.2818 5.15965 34.2038 5.15965 34.1265 5.15965C34.1801 4.09306 34.1752 3.01819 34.0265 1.99443C33.8211 0.579689 32.583 0.355865 31.3062 0.192833C28.7563 -0.133217 25.4954 -0.381905 24.3293 2.40476C24.1914 2.73357 24.1852 3.78497 24.2512 5.04221C20.818 5.35583 17.961 6.58682 17.4591 10.4525C17.2851 11.7954 17.2261 14.3099 17.9281 16.0963C18.3371 17.8385 19.9889 18.7738 22.0613 19.2007C22.2254 19.2587 22.393 19.3112 22.5632 19.361C22.6255 19.9164 22.6754 20.4732 22.7052 21.0313C22.5711 23.6646 22.4682 26.4582 22.2134 29.2559C21.9426 31.005 21.5976 32.7389 21.2065 34.4369C19.8507 40.3224 16.9888 44.8623 12.4148 48.8592C7.61402 53.0537 2.74738 56.3806 0.770056 62.7746C-0.945737 68.3217 0.380725 73.8826 3.0226 78.7803C4.0306 80.8872 5.3304 82.8408 6.91038 84.5208C12.8223 90.8029 23.3238 91.9468 31.4087 91.2629C39.9871 90.5376 49.4362 87.2204 54.5863 79.9892C59.3767 73.2636 58.7162 62.432 53.4909 56.1761Z" fill="#3A3333"/>
<path d="M45.0266 54.854C40.5331 51.4898 14.7768 51.6445 10.2428 55.6677C7.47115 58.1242 5.78493 61.4579 5.10325 65.6704C4.15134 71.556 5.99093 77.7151 10.4279 81.7148C19.3629 89.7722 36.8961 88.6959 46.0527 81.7908C55.6251 74.5706 53.5868 61.2618 45.0266 54.854Z" fill="#3A3333"/>
<path d="M27.4262 49.9825C27.4644 49.9604 27.4919 49.9286 27.5271 49.9037C27.7002 49.8181 27.8679 49.7158 28.0207 49.5846C28.4092 49.2475 28.5877 48.6423 28.584 48.1477C28.5786 47.3533 28.0771 46.6957 27.3507 46.418C25.9968 45.8999 24.3318 47.2691 24.7871 48.7197C25.1317 49.8167 26.3236 50.6318 27.4262 49.9825Z" fill="#3A3333"/>
<path d="M29.837 42.7982C29.761 43.0746 29.8298 43.3868 29.996 43.6244C30.0051 43.6369 30.0126 43.6534 30.0221 43.6659C30.0503 43.7018 30.081 43.7322 30.1143 43.764C30.2749 43.9201 30.4907 44.0223 30.7448 44.0279C30.8947 44.032 31.0341 43.9892 31.165 43.9284C31.2186 43.9049 31.2679 43.8773 31.3153 43.8441C31.3389 43.8275 31.3629 43.8151 31.3849 43.7971C31.4505 43.7433 31.5104 43.6797 31.5568 43.6051C31.6303 43.5015 31.6897 43.3868 31.7172 43.2556C31.8375 42.685 31.4551 42.0591 30.8208 42.0784C30.3721 42.0936 29.961 42.3465 29.837 42.7982Z" fill="#3A3333"/>
<path d="M27.2062 38.4352C27.2344 38.4711 27.2652 38.5015 27.2983 38.5319C27.4586 38.6894 27.6749 38.7916 27.929 38.7971C28.0788 38.8013 28.2183 38.7585 28.349 38.6963C28.4026 38.6742 28.4515 38.6466 28.4993 38.6134C28.5231 38.5968 28.5471 38.5844 28.5691 38.565C28.6347 38.5112 28.6944 38.449 28.7406 38.3744C28.8145 38.2708 28.8739 38.1561 28.9012 38.0248C29.0216 37.4542 28.6393 36.8284 28.005 36.8477C27.5561 36.8629 27.1451 37.1158 27.021 37.5675C26.9451 37.8439 27.014 38.1561 27.1801 38.3923C27.1896 38.4062 27.1962 38.4227 27.2062 38.4352Z" fill="#3A3333"/>
<path d="M29.4343 32.4059C29.4413 32.4101 29.445 32.417 29.4525 32.4211C29.4687 32.4308 29.4858 32.4308 29.5024 32.4377C29.5111 32.4405 29.5165 32.4474 29.5252 32.4488C29.5281 32.4501 29.531 32.4488 29.5339 32.4488C29.6879 32.504 29.8449 32.4681 29.9669 32.3673C30.1114 32.2719 30.2081 32.113 30.1886 31.9058C30.1648 31.6544 29.995 31.4416 29.7236 31.4416C29.2897 31.4416 29.0839 31.8561 29.2321 32.1752C29.269 32.2761 29.3371 32.3562 29.4343 32.4059Z" fill="#3A3333"/>
<path d="M29.0017 16.2482C29.0897 16.2206 29.076 16.0838 28.9797 16.0852C26.3236 16.1101 24.0067 15.9222 21.4456 15.1706C21.3967 15.1554 21.3727 15.2231 21.4125 15.2493C23.436 16.5992 26.7022 16.9805 29.0017 16.2482Z" fill="#3A3333"/>
<path d="M29.6908 16.287C30.1383 16.4127 30.668 16.2939 31.0391 16.0245C31.0869 15.9899 31.0965 15.8891 31.02 15.878C30.5868 15.8172 30.1027 15.907 29.6908 16.0493C29.5792 16.088 29.5687 16.2524 29.6908 16.287Z" fill="#3A3333"/>
<path d="M45.2656 57.1584C41.0163 60.3789 33.9153 60.6359 28.8518 60.9371C22.8891 61.2935 16.0148 61.3267 10.6778 58.3217C10.5437 58.2471 10.3449 58.4102 10.4507 58.5497C13.68 62.8312 23.3006 62.1584 27.885 62.0686C32.6944 61.9733 42.4357 62.052 45.484 57.3767C45.5675 57.2496 45.3952 57.0617 45.2656 57.1584Z" fill="#A49D9D"/>
<path d="M26.3905 55.0032C30.5174 54.8415 34.6347 55.1897 38.7571 55.0819C38.8401 55.0791 38.8654 54.9451 38.7774 54.9313C34.7148 54.2778 30.4912 54.3787 26.3905 54.5099C22.1445 54.6453 17.47 54.9092 13.4476 56.3889C13.3746 56.4165 13.4036 56.516 13.4791 56.5036C17.7937 55.8114 22.0132 55.1745 26.3905 55.0032Z" fill="#A49D9D"/>
<path d="M41.2171 55.4411C41.2711 55.4328 41.272 55.3568 41.2318 55.332C40.793 55.0695 39.9988 54.9603 39.493 55.0363C39.4648 55.0405 39.4673 55.0778 39.4861 55.0902C39.9086 55.3914 40.7087 55.5199 41.2171 55.4411Z" fill="#A49D9D"/>
<path d="M28.8526 59.3883C32.1813 59.1922 35.5174 58.8274 38.7757 58.1076C38.8517 58.091 38.836 57.9639 38.7571 57.9708C31.9326 58.6146 25.2085 59.6218 18.3554 58.6658C18.3389 58.663 18.3321 58.6851 18.3487 58.6906C21.6375 59.865 25.4253 59.59 28.8526 59.3883Z" fill="#A49D9D"/>
<path d="M30.8113 56.6763C26.1165 55.9399 20.7977 56.4621 16.2087 57.6586C16.1377 57.6766 16.1506 57.7954 16.2266 57.7885C21.1302 57.3477 25.8532 56.878 30.7864 56.8587C30.8881 56.8587 30.9171 56.6929 30.8113 56.6763Z" fill="#A49D9D"/>
<path d="M35.9055 57.0424C35.9702 57.0314 35.9678 56.9264 35.9055 56.9139C34.7982 56.6846 33.4583 56.4552 32.3647 56.8144C32.3008 56.8352 32.3115 56.9305 32.3805 56.9319C33.53 56.9567 34.7709 57.2303 35.9055 57.0424Z" fill="#A49D9D"/>
<path d="M29.7643 73.5745C28.4105 73.0578 26.7454 74.4255 27.2008 75.8776C27.5454 76.9732 28.7373 77.7883 29.8399 77.1404C29.878 77.1169 29.9054 77.0865 29.9407 77.0602C30.1139 76.9746 30.2816 76.8737 30.4343 76.7411C30.8229 76.404 31.0014 75.8002 30.9977 75.3042C30.9923 74.5098 30.4908 73.8522 29.7643 73.5745Z" fill="#A49D9D"/>
<path d="M15.8031 66.4123C14.4493 65.8942 12.7842 67.2634 13.2395 68.714C13.5843 69.811 14.776 70.6262 15.8787 69.9768C15.9168 69.9547 15.9443 69.9229 15.9795 69.8967C16.1526 69.811 16.3203 69.7102 16.4731 69.5789C16.8616 69.2418 17.0402 68.6367 17.0364 68.1421C17.031 67.3463 16.5295 66.6886 15.8031 66.4123Z" fill="#A49D9D"/>
<path d="M36.1956 66.8019C35.675 66.5422 35.1022 67.1155 35.4147 67.5839C35.6547 67.9431 35.8765 67.9514 36.0322 67.8271C36.5137 67.7386 36.5863 67.0465 36.1956 66.8019Z" fill="#A49D9D"/>
<path d="M33.8804 80.4285C33.3598 80.1688 32.787 80.7421 33.0996 81.2091C33.3395 81.5697 33.5612 81.578 33.7173 81.4536C34.1984 81.3666 34.2711 80.6731 33.8804 80.4285Z" fill="#A49D9D"/>
<path d="M15.994 72.8575C15.4735 72.5977 14.9005 73.1697 15.2132 73.6381C15.4532 73.9987 15.6748 74.0069 15.8305 73.8812C16.3121 73.7942 16.3848 73.102 15.994 72.8575Z" fill="#A49D9D"/>
<path d="M23.1299 68.9365C22.6812 68.9517 22.2702 69.2045 22.1461 69.6563C22.07 69.9326 22.139 70.2448 22.3051 70.4811C22.3142 70.4949 22.3217 70.5115 22.3312 70.5239C22.3594 70.5598 22.3901 70.5902 22.4234 70.6206C22.5841 70.7781 22.7999 70.8804 23.0539 70.8859C23.2038 70.89 23.3432 70.8472 23.4741 70.785C23.5277 70.7629 23.577 70.7353 23.6243 70.7021C23.648 70.6856 23.6721 70.6731 23.694 70.6538C23.7597 70.5999 23.8195 70.5377 23.866 70.4631C23.9394 70.3595 23.9988 70.2448 24.0262 70.1136C24.1466 69.543 23.7642 68.9171 23.1299 68.9365Z" fill="#A49D9D"/>
<path d="M41.2363 72.3863C40.7876 72.4015 40.3766 72.6543 40.2524 73.1061C40.1764 73.3824 40.2453 73.6947 40.4114 73.9323C40.4209 73.9461 40.4277 73.9599 40.4375 73.9737C40.4658 74.0097 40.4965 74.0401 40.5296 74.0705C40.6899 74.228 40.9063 74.3302 41.1603 74.3357C41.3102 74.3399 41.4496 74.297 41.5805 74.2349C41.6339 74.2128 41.683 74.1851 41.7307 74.152C41.7544 74.1354 41.7785 74.123 41.8004 74.105C41.8661 74.0497 41.9259 73.9876 41.9719 73.913C42.0458 73.8093 42.1052 73.6947 42.1326 73.5634C42.2529 72.9928 41.8706 72.367 41.2363 72.3863Z" fill="#A49D9D"/>
<path d="M32.8592 2.55124C32.9634 2.48216 32.8953 2.33433 32.7773 2.35643C30.3688 2.80821 27.9398 3.27519 25.4991 2.78749C25.409 2.76953 25.3206 2.8842 25.402 2.95467C27.388 4.67474 30.879 3.83888 32.8592 2.55124Z" fill="#A49D9D"/>
<path d="M28.912 4.73134C28.5359 4.55726 28.144 4.64016 27.7392 4.6374C27.2252 4.63325 26.7326 4.51582 26.229 4.43292C26.1845 4.42602 26.1492 4.47437 26.1836 4.51029C26.5 4.8391 26.9264 4.98555 27.3751 5.03667C27.8713 5.09332 28.489 5.17621 28.912 4.86259C28.953 4.8322 28.9696 4.75759 28.912 4.73134Z" fill="#A49D9D"/>
<path d="M27.5039 5.78002C27.2486 5.78279 27.0028 5.68608 26.7479 5.70404C26.7143 5.70542 26.6806 5.74548 26.7047 5.77864C27.0169 6.20002 27.8642 6.36582 28.1954 5.89746C28.2221 5.86016 28.1968 5.79246 28.1498 5.78555C27.9286 5.75239 27.7259 5.77588 27.5039 5.78002Z" fill="#A49D9D"/>
<path d="M45.0187 42.7968C46.2287 43.3881 47.8664 42.6545 49.055 42.2635C50.5151 41.7827 52.3118 40.9773 52.411 39.2724C52.4338 38.8828 52.1702 38.3854 51.807 38.2196C50.3856 37.5675 49.0247 38.42 47.9009 39.3553C46.9141 40.1773 45.2523 41.0408 44.8172 42.3022C44.757 42.4749 44.8516 42.7153 45.0187 42.7968Z" fill="#DD5F63"/>
<path d="M50.7687 47.9418C51.7173 48.8095 53.1749 48.4323 54.3328 48.2541C55.6736 48.0482 57.5663 47.526 58.1467 46.1803C58.3787 45.6429 58.3662 44.8222 57.717 44.5418C56.4063 43.9781 55.2448 44.4326 54.0055 45.035C52.9469 45.5489 51.1822 46.0698 50.6753 47.2179C50.5687 47.4583 50.5554 47.747 50.7687 47.9418Z" fill="#DD5F63"/>
<path d="M13.1383 41.8726C13.1047 41.8118 13.0706 41.751 13.0366 41.6902C13.0366 41.7883 13.0366 41.8891 13.0366 41.9872C13.2965 41.5299 13.2271 40.9151 13.074 40.4288C13.074 40.6471 13.074 40.8654 13.074 41.0851C13.436 39.9287 12.7389 38.2196 11.9407 37.4086C11.3133 36.7717 10.2941 36.646 9.52584 37.0964C8.50126 37.696 8.38534 38.8234 8.81045 39.8223C9.24842 40.8516 10.7259 42.0066 11.8817 41.9928C11.6737 41.9361 11.4657 41.8808 11.2577 41.8242C11.5275 41.9969 11.7933 42.0867 12.1021 42.1613C12.2727 42.2028 12.6879 42.1254 12.8111 42.2C13.0213 42.3243 13.2536 42.0798 13.1383 41.8726Z" fill="#DD5F63"/>
<path d="M7.85151 45.5793C7.72275 45.2602 7.57174 45.0405 7.34253 44.7918C7.21252 44.691 7.08183 44.5901 6.95057 44.4893C6.89835 44.4506 6.54508 44.1936 6.85013 44.4519C6.60863 44.2489 6.36948 44.0748 6.10256 43.9104C5.57659 43.5885 5.0386 43.6216 4.45819 43.7031C3.81921 43.7929 3.38001 44.5321 3.37752 45.122C3.37254 46.4345 4.52741 47.3616 5.804 47.2718C6.2765 47.2386 6.75729 47.1944 7.15906 46.9195C7.54231 46.657 8.06773 46.114 7.85151 45.5793Z" fill="#DD5F63"/>
</svg>
