<svg width="81" height="126" viewBox="0 0 81 126" fill="none" xmlns="http://www.w3.org/2000/svg">
<path d="M37.9019 124.282C31.0333 124.282 18.4061 123.109 11.0088 115.247C8.9949 113.107 7.28489 110.58 5.92621 107.739C5.91695 107.72 5.90713 107.701 5.89693 107.682C1.92063 100.31 0.91839 93.2945 2.91797 86.8288C5.11777 79.7153 10.2119 75.4049 15.6051 70.8413C16.5319 70.0574 17.4904 69.2471 18.4401 68.416C25.0505 62.6397 29.0047 56.1495 30.8839 47.9914C31.4576 45.5018 31.927 43.086 32.2789 40.8117C32.283 40.7853 32.2866 40.757 32.2891 40.7286C32.569 37.6554 32.7152 34.6067 32.8565 31.6582C32.8924 30.9083 32.9281 30.166 32.9655 29.4312C32.9677 29.3858 32.9677 29.3386 32.9653 29.2933C32.9258 28.5566 32.8603 27.7841 32.7647 26.9303C32.7048 26.3957 32.331 25.95 31.8157 25.797C31.5605 25.7214 31.3694 25.6591 31.1956 25.5986C31.1376 25.5778 31.0783 25.5609 31.018 25.5495C28.3286 24.9942 26.7752 23.9043 26.4004 22.3101C26.3859 22.2477 26.3666 22.1854 26.3432 22.125C25.4685 19.8999 25.5799 16.6453 25.7835 15.0718C26.2898 11.1732 28.7064 9.30696 33.864 8.83663C34.5803 8.77052 35.1167 8.15097 35.0789 7.43319C34.9584 5.13819 35.0744 4.48463 35.0975 4.38074C35.8166 2.69962 37.335 1.94785 40.015 1.94785C41.0918 1.94785 42.1908 2.06875 43.2182 2.20097C45.2848 2.46542 45.6711 2.76385 45.7821 3.52885C45.9489 4.6773 45.9884 5.96929 45.9066 7.59563C45.8883 7.96207 46.0209 8.31908 46.2736 8.58541C46.5264 8.85175 46.8769 9.00097 47.2436 9.00097C47.2967 9.00097 47.3626 9.00095 47.3849 9.00473C53.4501 9.84528 55.5256 12.5842 54.7895 18.7741C54.2598 23.2281 52.6571 25.0603 48.6646 25.7724C47.9982 25.8914 47.5256 26.4883 47.5632 27.1645L47.6206 28.1977C47.9795 34.6729 48.3505 41.3709 49.5565 47.8006C49.6529 48.3144 49.7437 48.8622 49.84 49.4402C50.2807 52.0865 50.7801 55.0861 52.1749 57.3527C55.2298 62.3205 59.6861 66.1776 63.9958 69.9063C67.0289 72.5318 70.1654 75.2462 72.6907 78.2703C79.5545 86.4888 80.2115 100.65 74.1257 109.193C65.739 120.969 49.855 123.505 43.415 124.049C41.5824 124.204 39.7281 124.282 37.9036 124.282C37.9028 124.282 37.9025 124.282 37.9019 124.282Z" fill="white"/>
<path d="M43.5275 122.162C31.2922 123.649 16.5695 120.836 9.04395 110.285C2.0849 100.529 2.81307 84.343 11.7354 76.1358C18.482 69.9289 26.7147 65.9736 30.1685 56.9107C33.6103 47.878 34.3424 37.2776 34.0298 27.6329C37.7467 28.1731 42.0695 27.886 45.8824 27.4743C45.9379 36.4333 46.514 45.4451 48.5869 54.185C50.1233 60.6639 55.3251 65.099 60.0054 69.5058C62.4861 71.8442 65.0623 74.075 67.567 76.3832C73.5272 81.8799 75.9178 88.7271 75.6448 96.7398C75.0778 113.347 57.6532 120.445 43.5275 122.162ZM27.6495 16.462C27.7432 12.3027 30.429 11.1429 34.003 10.8331C34.2062 12.841 34.4718 14.6657 34.6971 15.3967C33.4008 15.1663 32.1192 14.8905 30.8655 14.5996C30.8398 14.5939 30.8177 14.626 30.8387 14.6449C33.4484 17.0495 37.7785 17.4707 41.1619 17.3762C44.0774 17.295 48.0697 16.887 49.9614 14.405C50.0528 14.2841 49.8844 14.1651 49.7754 14.218C48.5708 14.7979 47.3342 15.2116 46.0788 15.5006C46.4324 14.6222 46.7921 12.2951 46.9641 10.9351C47.0187 10.9465 47.0669 10.9635 47.1247 10.9691C53.6956 11.7757 53.6257 16.1579 52.536 21.2881C51.6886 25.2756 42.4433 24.8185 39.5113 24.9847C36.0781 25.1792 31.3155 25.1585 28.4402 22.9126C28.3544 22.8446 28.2774 22.7652 28.2012 22.684C27.498 20.7781 27.6098 18.2244 27.6495 16.462ZM73.718 77.4127C67.554 70.0328 58.4042 64.9271 53.3148 56.6519C51.7687 54.1378 51.4015 50.3789 50.8719 47.555C49.6186 40.8702 49.2786 33.887 48.8995 27.0908C53.4855 26.271 55.518 23.9817 56.1185 18.9327C56.9307 12.1006 54.4464 8.63069 47.5703 7.67869C47.4556 7.66358 47.3489 7.66357 47.2433 7.66357C47.3166 6.20535 47.3098 4.7358 47.1066 3.33614C46.8257 1.40192 45.133 1.09591 43.3873 0.873016C39.9012 0.427238 35.4429 0.0872421 33.8486 3.89713C33.6601 4.34669 33.6516 5.78413 33.7419 7.50302C29.048 7.9318 25.142 9.6148 24.4558 14.8999C24.218 16.7359 24.1373 20.1737 25.097 22.616C25.6562 24.9979 27.9145 26.2767 30.7478 26.8604C30.9722 26.9397 31.2014 27.0115 31.4341 27.0795C31.5193 27.8388 31.5875 28.6 31.6283 29.3631C31.4448 32.9634 31.3041 36.7827 30.9558 40.6077C30.5856 42.999 30.1139 45.3696 29.5792 47.691C27.7256 55.7377 23.8128 61.9446 17.5592 67.4091C10.9957 73.1438 4.34213 77.6922 1.63875 86.434C-0.707063 94.0179 1.10646 101.621 4.71839 108.317C6.09653 111.197 7.87359 113.868 10.0337 116.165C18.1165 124.754 32.4739 126.318 43.5275 125.383C55.2558 124.391 68.1745 119.856 75.2157 109.97C81.765 100.774 80.8619 85.9656 73.718 77.4127Z" fill="#554949"/>
<path d="M62.1456 75.6051C56.0022 71.0056 20.7886 71.2172 14.5896 76.7176C10.8003 80.0761 8.49491 84.634 7.56294 90.3932C6.26149 98.4399 8.77655 106.861 14.8427 112.329C27.0585 123.345 51.0297 121.873 63.5485 112.433C76.6358 102.561 73.849 84.3658 62.1456 75.6051Z" fill="#554949"/>
<path d="M38.0829 68.9449C38.135 68.9146 38.1726 68.8712 38.2207 68.8372C38.4574 68.7201 38.6867 68.5803 38.8956 68.4009C39.4268 67.94 39.6708 67.1126 39.6657 66.4364C39.6584 65.3503 38.9727 64.4512 37.9795 64.0715C36.1286 63.3632 33.8521 65.2351 34.4747 67.2184C34.9458 68.7182 36.5753 69.8326 38.0829 68.9449Z" fill="#554949"/>
<path d="M41.3786 59.1226C41.2747 59.5004 41.3687 59.9273 41.596 60.2521C41.6084 60.2691 41.6186 60.2918 41.6317 60.3088C41.6702 60.3579 41.7121 60.3995 41.7577 60.4429C41.9773 60.6564 42.2724 60.7961 42.6198 60.8037C42.8247 60.8094 43.0153 60.7508 43.1942 60.6677C43.2675 60.6356 43.3349 60.5978 43.3997 60.5525C43.432 60.5298 43.4648 60.5128 43.4949 60.4883C43.5846 60.4146 43.6664 60.3277 43.7299 60.2257C43.8303 60.084 43.9116 59.9273 43.9492 59.7478C44.1137 58.9677 43.5908 58.112 42.7236 58.1385C42.1101 58.1593 41.5482 58.5049 41.3786 59.1226Z" fill="#554949"/>
<path d="M37.782 53.1575C37.8206 53.2066 37.8627 53.2482 37.908 53.2897C38.1271 53.5051 38.4229 53.6448 38.7703 53.6524C38.9751 53.6581 39.1658 53.5995 39.3445 53.5145C39.4178 53.4843 39.4847 53.4465 39.55 53.4012C39.5825 53.3785 39.6154 53.3615 39.6454 53.3351C39.7351 53.2614 39.8168 53.1764 39.8798 53.0744C39.9809 52.9327 40.0621 52.776 40.0995 52.5965C40.264 51.8164 39.7414 50.9607 38.8742 50.9872C38.2605 51.0079 37.6986 51.3536 37.5289 51.9713C37.425 52.3491 37.5193 52.776 37.7463 53.099C37.7594 53.1178 37.7684 53.1405 37.782 53.1575Z" fill="#554949"/>
<path d="M40.8282 44.9143C40.8379 44.92 40.843 44.9294 40.8532 44.9351C40.8753 44.9483 40.8987 44.9483 40.9214 44.9578C40.9333 44.9616 40.9406 44.971 40.9525 44.9729C40.9565 44.9748 40.9605 44.9729 40.9644 44.9729C41.175 45.0484 41.3896 44.9993 41.5564 44.8614C41.754 44.7311 41.8862 44.5139 41.8596 44.2306C41.8271 43.8868 41.5949 43.5959 41.2238 43.5959C40.6307 43.5959 40.3492 44.1626 40.5519 44.5989C40.6023 44.7368 40.6954 44.8463 40.8282 44.9143Z" fill="#554949"/>
<path d="M40.2367 22.8238C40.357 22.786 40.3383 22.599 40.2066 22.6009C36.5753 22.6349 33.4076 22.378 29.9062 21.3505C29.8393 21.3297 29.8064 21.4223 29.8608 21.4582C32.6273 23.3036 37.0928 23.8249 40.2367 22.8238Z" fill="#554949"/>
<path d="M41.1787 22.8767C41.7906 23.0486 42.5148 22.8861 43.0221 22.5178C43.0875 22.4706 43.1005 22.3327 42.996 22.3176C42.4037 22.2344 41.7418 22.3572 41.1787 22.5518C41.0261 22.6047 41.0118 22.8294 41.1787 22.8767Z" fill="#554949"/>
<path d="M62.4724 78.7557C56.6627 83.1587 46.9544 83.51 40.0316 83.9218C31.8796 84.4091 22.481 84.4545 15.1844 80.3461C15.001 80.2441 14.7292 80.467 14.8739 80.6578C19.289 86.5115 32.4421 85.5916 38.7098 85.4688C45.2852 85.3385 58.6034 85.4461 62.771 79.0541C62.8851 78.8804 62.6496 78.6235 62.4724 78.7557Z" fill="white"/>
<path d="M36.6666 75.809C42.3089 75.588 47.938 76.064 53.5741 75.9167C53.6876 75.9129 53.7222 75.7297 53.6018 75.7108C48.0476 74.8174 42.2731 74.9552 36.6666 75.1347C30.8615 75.3198 24.4707 75.6806 18.9713 77.7036C18.8714 77.7414 18.9111 77.8774 19.0144 77.8604C24.9132 76.914 30.6821 76.0432 36.6666 75.809Z" fill="white"/>
<path d="M56.9374 76.4078C57.0112 76.3965 57.0124 76.2926 56.9574 76.2586C56.3575 75.8997 55.2718 75.7505 54.5803 75.8544C54.5417 75.86 54.5451 75.911 54.5708 75.928C55.1484 76.3398 56.2423 76.5155 56.9374 76.4078Z" fill="white"/>
<path d="M40.0326 81.8044C44.5835 81.5361 49.1446 81.0375 53.5994 80.0534C53.7032 80.0307 53.6817 79.8569 53.5739 79.8664C44.2435 80.7466 35.0505 82.1236 25.681 80.8165C25.6583 80.8127 25.6491 80.8429 25.6718 80.8505C30.1683 82.456 35.3468 82.0801 40.0326 81.8044Z" fill="white"/>
<path d="M42.7108 78.0965C36.2922 77.0897 29.0203 77.8037 22.7464 79.4395C22.6493 79.464 22.6669 79.6265 22.7707 79.617C29.475 79.0145 35.9321 78.3723 42.6768 78.3458C42.8158 78.3458 42.8555 78.1191 42.7108 78.0965Z" fill="white"/>
<path d="M49.6753 78.597C49.7638 78.5819 49.7604 78.4383 49.6753 78.4213C48.1615 78.1077 46.3295 77.7942 44.8344 78.2853C44.747 78.3136 44.7617 78.444 44.856 78.4459C46.4275 78.4799 48.1241 78.8539 49.6753 78.597Z" fill="white"/>
<path d="M41.2791 101.199C39.4282 100.493 37.1517 102.363 37.7743 104.348C38.2453 105.846 39.8749 106.961 41.3824 106.075C41.4345 106.043 41.4719 106.001 41.5203 105.965C41.757 105.848 41.9863 105.71 42.195 105.529C42.7264 105.068 42.9704 104.242 42.9653 103.564C42.9579 102.478 42.2723 101.579 41.2791 101.199Z" fill="white"/>
<path d="M22.1917 91.4075C20.3408 90.6991 18.0643 92.571 18.6869 94.5544C19.1581 96.0541 20.7875 97.1686 22.295 96.2808C22.3471 96.2506 22.3847 96.2071 22.4329 96.1713C22.6696 96.0541 22.8989 95.9163 23.1078 95.7368C23.639 95.2759 23.883 94.4486 23.8779 93.7724C23.8705 92.6844 23.1849 91.7853 22.1917 91.4075Z" fill="white"/>
<path d="M50.0719 91.9401C49.3602 91.585 48.5771 92.3689 49.0043 93.0092C49.3324 93.5004 49.6356 93.5117 49.8485 93.3417C50.5068 93.2208 50.6061 92.2745 50.0719 91.9401Z" fill="white"/>
<path d="M46.9068 110.57C46.1951 110.215 45.4119 110.999 45.8394 111.638C46.1673 112.131 46.4705 112.142 46.6839 111.972C47.3416 111.853 47.441 110.905 46.9068 110.57Z" fill="white"/>
<path d="M22.4527 100.219C21.741 99.864 20.9577 100.646 21.3851 101.286C21.7132 101.779 22.0162 101.791 22.2291 101.619C22.8876 101.5 22.9869 100.553 22.4527 100.219Z" fill="white"/>
<path d="M32.2091 94.8584C31.5955 94.8792 31.0336 95.2249 30.864 95.8426C30.7599 96.2203 30.8543 96.6472 31.0814 96.9702C31.0938 96.9891 31.104 97.0118 31.1171 97.0288C31.1556 97.0779 31.1975 97.1194 31.2431 97.161C31.4627 97.3763 31.7578 97.5161 32.1052 97.5237C32.3101 97.5293 32.5007 97.4708 32.6796 97.3858C32.7529 97.3556 32.8203 97.3178 32.8849 97.2724C32.9174 97.2498 32.9503 97.2328 32.9803 97.2063C33.07 97.1327 33.1518 97.0477 33.2154 96.9457C33.3157 96.804 33.397 96.6472 33.4344 96.4678C33.5991 95.6877 33.0762 94.832 32.2091 94.8584Z" fill="white"/>
<path d="M56.9637 99.5751C56.3502 99.5958 55.7882 99.9415 55.6184 100.559C55.5145 100.937 55.6088 101.364 55.8358 101.689C55.8488 101.708 55.8581 101.727 55.8715 101.745C55.9102 101.795 55.9522 101.836 55.9975 101.878C56.2166 102.093 56.5124 102.233 56.8598 102.24C57.0647 102.246 57.2553 102.187 57.4342 102.102C57.5073 102.072 57.5744 102.034 57.6395 101.989C57.672 101.966 57.7049 101.949 57.7349 101.925C57.8246 101.849 57.9064 101.764 57.9693 101.662C58.0704 101.521 58.1516 101.364 58.189 101.184C58.3535 100.404 57.8309 99.5486 56.9637 99.5751Z" fill="white"/>
<path d="M46.8778 4.09736C47.0202 4.00291 46.9271 3.8008 46.7658 3.83102C43.4729 4.44869 40.152 5.08714 36.8151 4.42036C36.692 4.39581 36.5711 4.55258 36.6823 4.64892C39.3976 7.00058 44.1705 5.8578 46.8778 4.09736Z" fill="white"/>
<path d="M41.4813 7.07803C40.9671 6.84003 40.4313 6.95336 39.8778 6.94959C39.1751 6.94392 38.5016 6.78337 37.8131 6.67003C37.7522 6.66059 37.7041 6.72669 37.7511 6.7758C38.1837 7.22536 38.7666 7.42558 39.3801 7.49547C40.0584 7.57292 40.9029 7.68625 41.4813 7.25747C41.5374 7.21592 41.5601 7.11392 41.4813 7.07803Z" fill="white"/>
<path d="M39.556 8.51174C39.2069 8.51552 38.8709 8.38329 38.5224 8.40785C38.4765 8.40974 38.4304 8.46451 38.4633 8.50985C38.8902 9.08596 40.0486 9.31263 40.5014 8.67229C40.5378 8.62129 40.5033 8.52874 40.439 8.51929C40.1366 8.47396 39.8595 8.50607 39.556 8.51174Z" fill="white"/>
<path d="M62.1352 59.1207C63.7895 59.9291 66.0286 58.9261 67.6536 58.3916C69.6497 57.7342 72.1062 56.633 72.2419 54.3021C72.273 53.7695 71.9126 53.0895 71.416 52.8628C69.4727 51.9713 67.6122 53.1367 66.0758 54.4155C64.7265 55.5394 62.4546 56.7199 61.8598 58.4445C61.7774 58.6806 61.9068 59.0093 62.1352 59.1207Z" fill="#BE3C41"/>
<path d="M69.9964 66.1549C71.2933 67.3411 73.2861 66.8255 74.8692 66.5818C76.7023 66.3004 79.2899 65.5864 80.0834 63.7466C80.4006 63.0118 80.3836 61.8898 79.496 61.5064C77.704 60.7357 76.116 61.3572 74.4217 62.1807C72.9744 62.8834 70.5617 63.5955 69.8687 65.1652C69.7229 65.4938 69.7047 65.8886 69.9964 66.1549Z" fill="#BE3C41"/>
<path d="M18.5485 57.857C18.5026 57.7739 18.456 57.6908 18.4095 57.6077C18.4095 57.7418 18.4095 57.8797 18.4095 58.0138C18.7648 57.3886 18.67 56.548 18.4607 55.8831C18.4607 56.1816 18.4607 56.48 18.4607 56.7803C18.9556 55.1993 18.0025 52.8628 16.9112 51.754C16.0535 50.8832 14.6601 50.7113 13.6097 51.3271C12.2089 52.1469 12.0504 53.6882 12.6316 55.0539C13.2304 56.4611 15.2503 58.0402 16.8306 58.0213C16.5461 57.9439 16.2618 57.8683 15.9774 57.7909C16.3463 58.027 16.7097 58.1498 17.1319 58.2518C17.3651 58.3085 17.9328 58.2027 18.1012 58.3047C18.3885 58.4747 18.7063 58.1403 18.5485 57.857Z" fill="#BE3C41"/>
<path d="M11.3204 62.9249C11.1444 62.4886 10.9379 62.1882 10.6246 61.8482C10.4468 61.7104 10.2681 61.5725 10.0887 61.4346C10.0173 61.3817 9.53428 61.0304 9.95135 61.3836C9.62117 61.1059 9.29421 60.8679 8.92927 60.6431C8.21017 60.203 7.47464 60.2484 6.68112 60.3598C5.80751 60.4826 5.20704 61.4931 5.20364 62.2997C5.19684 64.0941 6.77576 65.3616 8.52109 65.2388C9.16709 65.1935 9.82442 65.133 10.3737 64.7571C10.8977 64.3982 11.616 63.6559 11.3204 62.9249Z" fill="#BE3C41"/>
</svg>
