<svg width="97" height="81" viewBox="0 0 97 81" fill="none" xmlns="http://www.w3.org/2000/svg">
<path d="M89.7001 14.6376C91.0299 10.9278 90.6479 6.75827 88.8163 3.24682C87.1318 0.0108795 86.0068 0.00211334 85.7416 3.97334C85.5818 6.34764 84.156 7.92699 83.5198 8.88866C83.4686 8.89217 83.4184 8.89743 83.3672 8.90971C82.4376 8.27621 81.4633 7.67431 80.4352 7.11803C62.3099 -2.68807 32.2946 -2.29147 15.5468 7.86909C14.7791 6.7144 13.8743 5.26138 13.5626 4.42608C12.6678 2.02544 11.6212 -0.343605 9.51366 4.17689C8.18472 7.02501 7.22411 11.3033 7.97624 14.2304C0.989837 22.4484 -1.1323 33.9461 0.543754 43.8663C2.09346 53.0529 7.52068 59.8477 14.8953 64.57C14.8819 68.0814 16.0212 71.8105 16.6738 75.2254C8.34283 78.9071 11.7922 79.6582 14.6722 80.0653C17.3922 80.4514 18.2275 80.4672 20.0399 80.4128C21.6586 80.3636 23.1083 79.0703 23.0679 77.3839C22.9949 74.3112 22.6705 71.3104 22.4887 68.3026C37.5961 73.5969 61.2176 71.9421 75.0969 66.4898C75.1404 66.997 75.1747 67.4936 75.1787 67.9691C75.208 71.3613 75.0014 74.7516 75.2564 78.1332C75.4082 80.153 76.9902 81.2726 78.9453 80.9427C81.3271 80.5444 83.2885 80.3671 85.7443 79.8828C88.2093 79.3967 87.3521 77.1347 81.4925 75.5466C81.7476 73.3565 81.8673 71.1559 81.9531 68.9396C82.0189 67.2426 82.2411 64.9631 81.9692 62.9099C88.5494 58.4491 92.591 53.0424 94.6073 47.3409C98.6196 35.994 97.1408 23.5803 89.7001 14.6376Z" fill="black"/>
<path d="M35.3993 14.8079C25.3337 14.8079 16.9324 23.2102 16.9324 33.2742C16.9324 43.34 25.3337 51.7405 35.3993 51.7405C45.466 51.7405 53.8674 43.34 53.8674 33.2742C53.8674 23.2102 45.466 14.8079 35.3993 14.8079Z" fill="white"/>
<path d="M84.9457 32.788C84.9457 25.358 78.7433 19.1529 71.31 19.1529C63.8782 19.1529 57.676 25.358 57.676 32.788C57.676 40.2198 63.8782 46.4232 71.31 46.4232C78.7433 46.4232 84.9457 40.2198 84.9457 32.788Z" fill="white"/>
<path d="M16.8581 46.4442C15.0442 47.355 13.4186 49.1151 12.2095 50.719C11.5435 51.6017 12.7898 52.5862 13.6253 52.1334C15.3417 51.2051 17.0549 49.8837 18.5369 48.6202C19.796 47.548 18.1942 45.7721 16.8581 46.4442Z" fill="white"/>
<path d="M20.3075 50.6823C19.3381 50.9613 18.829 51.8387 18.2436 52.5968C17.745 53.2444 17.2968 53.9112 16.9239 54.6395C16.5149 55.4379 17.4256 56.654 18.2843 55.9995C18.9474 55.4941 19.5904 54.9746 20.1488 54.3517C20.8279 53.5953 21.6601 52.7863 21.6541 51.7089C21.6504 51.0245 20.9769 50.4892 20.3075 50.6823Z" fill="white"/>
<path d="M15.7814 43.3927C16.2671 42.7907 16.0537 41.5079 15.0526 41.6308C13.3748 41.8379 11.5039 42.7258 10.1134 43.6875C9.37757 44.1981 9.55761 45.5862 10.6077 45.5143C12.3155 45.3985 14.6672 44.7685 15.7814 43.3927Z" fill="white"/>
<path d="M82.9566 49.7996C82.3008 49.1608 81.624 48.4624 80.7548 48.1395C79.8711 47.8114 79.1704 48.9222 79.5905 49.654C80.0155 50.3963 80.7662 51.0052 81.3687 51.6071C81.9399 52.1792 82.6769 53.0426 83.5794 52.7337C84.0457 52.5758 84.3403 52.2055 84.3605 51.7089C84.3947 50.8578 83.5018 50.3296 82.9566 49.7996Z" fill="white"/>
<path d="M86.1447 46.0055C85.4601 45.6493 84.759 45.1913 84.0106 44.9912C83.0016 44.7227 82.3059 45.9669 83.0105 46.7092C83.5475 47.2743 84.3075 47.6182 84.9789 48.0008C85.641 48.3763 86.2658 48.808 87.0404 48.8747C87.8274 48.9414 88.2907 47.9622 87.9209 47.3392C87.5275 46.6741 86.8068 46.3512 86.1447 46.0055Z" fill="white"/>
<path d="M89.1289 42.7187C88.7468 42.2677 88.1902 42.0308 87.6829 41.7518C87.1227 41.443 86.5729 41.0586 85.9442 40.9077C84.899 40.6603 84.3469 41.829 84.9625 42.5959C85.3633 43.0943 85.9787 43.4154 86.5226 43.7365C87.1241 44.091 87.6948 44.4157 88.405 44.4666C89.373 44.5332 89.6557 43.3382 89.1289 42.7187Z" fill="white"/>
</svg>
