<svg width="81" height="73" viewBox="0 0 81 73" fill="none" xmlns="http://www.w3.org/2000/svg">
<rect x="13" y="26" width="52" height="32" fill="#3A3333"/>
<circle cx="7.5" cy="11.5" r="5.5" fill="#3A3333"/>
<circle cx="73" cy="13" r="6" fill="#3A3333"/>
<path d="M74.1422 16.7686C69.5626 18.9197 66.6539 13.2369 69.1979 9.95584C70.2122 8.64625 71.6971 7.55175 73.1868 7.34136C75.1659 7.06006 77.5263 8.35312 77.9193 10.4712C78.3947 13.0265 76.5332 15.6434 74.1422 16.7686ZM55.0778 49.6645C52.6845 50.2082 50.4417 50.8583 48.1002 51.1018C51.2277 51.4706 54.513 51.1916 57.4359 50.6597C57.6077 50.629 57.723 50.8559 57.5582 50.9505C54.5436 52.7258 50.2346 52.8818 46.8529 52.4492C43.6782 52.0403 40.7177 51.0356 38.5056 48.615C38.2655 48.3526 38.0584 48.0642 37.8796 47.7616C35.2956 44.6271 35.6533 39.904 41.3272 35.9776C44.549 33.7484 48.4743 33.1267 52.2561 32.4436C56.9181 31.602 61.4766 34.9966 62.2367 39.6369C63.0415 44.542 59.6951 48.615 55.0778 49.6645ZM36.6582 54.9691C36.2017 55.8296 35.1026 55.9005 34.1872 55.8839C33.2011 55.8674 31.6009 56.0707 30.8125 55.4112C30.1371 54.8486 30.2571 54.0401 30.5913 53.3049C30.7254 53.0095 31.1961 51.9859 31.6809 51.09C33.1423 48.3975 34.2202 48.388 35.5074 50.9765C35.7028 51.3665 35.8604 51.7684 35.9993 52.1183C36.3076 52.8842 37.103 54.1299 36.6582 54.9691ZM29.5488 48.8868C26.2188 51.7069 21.1261 51.246 17.3443 49.8371C17.2502 49.804 17.2596 49.6551 17.3702 49.6551C19.0552 49.6598 20.9096 49.7733 22.7076 49.6716C21.2344 49.4376 19.7965 49.0027 18.2786 48.6292C14.9133 47.8065 12.5365 44.5987 13.2166 40.7314C13.859 37.0697 17.2643 34.3914 20.6649 35.0486C23.4254 35.5852 26.287 36.0722 28.6074 37.8262C32.2881 40.6108 32.794 43.9085 31.4314 46.3456C30.989 47.3172 30.3418 48.2131 29.5488 48.8868ZM7.71447 15.8254C5.49998 15.9199 3.06662 14.8018 2.96072 11.6768C2.90189 9.9653 3.67377 8.21129 5.00105 7.30355C7.6062 5.51881 10.3243 6.29654 11.6822 9.48307C12.8212 12.1566 10.1314 15.7261 7.71447 15.8254ZM80.002 7.96071C78.7477 5.88049 76.698 4.10757 74.4505 3.24239C71.843 2.23537 69.2755 3.17146 67.1952 4.812C66.0609 5.70555 65.0183 6.94896 64.2441 8.35075C51.5502 -3.25597 30.1348 -1.84944 17.2455 6.96552C16.4595 5.92541 15.5534 4.97039 14.558 4.14775C12.8071 2.70105 11.2351 1.70348 8.93584 1.42928C6.04594 1.08414 3.44785 3.66788 1.94171 5.83085C-1.24472 10.4121 -0.501057 14.92 4.11149 18.0498C4.8575 18.5533 5.65059 18.993 6.46249 19.4043C4.16798 23.5671 2.603 27.8742 1.77697 31.6895C0.263775 38.6724 0.621487 46.0336 4.87633 52.3948C7.47677 56.2787 11.7175 58.827 16.563 60.5077C16.3301 63.1198 16.3959 65.7958 17.2008 68.0391C17.7279 69.5047 19.7918 70.4479 20.9802 69.039C22.5546 67.1763 23.6278 64.8455 24.5856 62.5123C25.7411 62.7085 26.9013 62.8787 28.0544 63.0182C29.7182 63.2238 31.4267 63.394 33.1588 63.5311C33.18 66.4576 33.2247 69.5047 34.9144 71.9584C35.7592 73.1806 37.8278 73.5044 38.595 71.9584C39.8211 69.5 40.6142 66.7224 41.2002 63.8574C44.3489 63.855 47.5071 63.6872 50.5924 63.3137C51.6208 65.9116 52.9433 68.2779 54.7483 70.0177C55.9085 71.1311 57.8665 70.6441 58.3137 69.0721C58.9632 66.7697 59.1491 64.238 59.0667 61.6448C59.848 61.4226 60.6199 61.1862 61.3777 60.9261C70.9229 57.6285 73.761 48.8348 74.6576 41.3791C75.4695 34.616 74.7917 26.9617 72.0713 20.0355C72.2501 19.9646 72.396 19.9078 72.4455 19.8913C73.5868 19.4989 74.6882 19.0096 75.799 18.5391C79.9244 16.7875 82.5342 12.1614 80.002 7.96071Z" fill="#F1F1F1"/>
</svg>
